{"glyphs":{"0":{"ha":700,"x_min":12,"x_max":692,"o":"m 473 897 q 600 793 550 867 l 589 782 q 646 701 607 701 l 658 713 l 692 574 l 681 528 l 692 494 q 450 33 671 288 q 416 9 416 33 l 404 21 l 393 21 l 323 -2 l 254 9 l 243 9 l 243 -2 l 335 -25 l 335 -37 l 254 -37 l 151 44 l 151 33 l 174 -25 l 162 -25 q 81 113 127 -15 l 70 113 l 70 90 l 93 21 q 12 309 50 21 q 174 759 106 759 q 220 817 174 793 l 231 817 q 139 667 139 703 l 220 770 q 473 897 220 805 m 197 286 l 197 229 l 208 113 q 508 621 508 391 l 508 701 l 519 690 l 554 701 l 554 713 l 543 724 l 543 736 q 289 597 492 736 q 197 286 197 396 m 531 667 l 519 540 l 519 528 l 531 528 l 554 621 l 543 667 l 531 667 m 127 655 l 58 459 l 70 425 l 58 436 l 47 436 l 47 425 l 58 367 l 70 367 l 70 401 l 58 413 q 116 563 88 413 q 139 621 139 563 l 139 655 l 127 655 m 323 33 l 323 21 l 335 21 l 381 33 l 381 44 l 358 44 l 323 33 z "},"1":{"ha":315,"x_min":22,"x_max":313,"o":"m 184 877 l 254 877 q 313 703 313 874 l 313 693 q 260 266 267 649 l 205 22 l 205 -26 q 159 -52 159 -26 q 54 34 99 -52 l 31 34 l 141 559 l 141 571 q 104 620 117 592 q 47 657 104 642 l 22 791 l 33 791 q 184 877 129 857 m 142 450 l 143 400 l 155 400 l 154 450 l 142 450 m 132 363 l 121 302 l 121 290 l 132 290 l 143 351 l 143 363 l 132 363 z "},"2":{"ha":663,"x_min":-34,"x_max":682,"o":"m 252 906 l 264 906 l 239 882 l 228 882 l 252 906 m 398 906 q 485 869 396 882 l 486 882 q 657 597 667 755 l 652 534 q 441 224 608 419 l 487 224 l 486 213 l 418 200 l 416 175 l 427 175 l 484 188 l 494 175 l 495 188 l 506 175 l 539 175 l 551 188 q 648 125 621 172 l 682 125 q 583 -10 657 -10 q 186 -85 376 -10 l 187 -72 l 175 -85 q 0 -22 71 -85 l -34 -22 l -33 -10 q 30 89 26 44 l 136 175 l 125 175 l 7 76 l -16 76 l -14 101 q 212 299 119 165 l 201 312 l 212 312 l 222 299 l 315 336 l 304 349 l 305 361 q 454 572 387 361 l 431 572 q 382 498 428 522 l 382 509 q 448 659 445 608 q 385 708 450 683 q 234 633 293 683 l 212 633 l 168 646 l 122 633 q 70 696 66 633 q 272 869 191 869 l 398 906 m 159 844 l 170 844 q 59 696 61 728 l 37 696 l 38 720 l 159 844 m 382 498 l 380 485 l 345 448 l 345 460 l 382 498 m 262 386 l 273 386 l 272 361 l 132 275 l 109 275 l 262 386 z "},"3":{"ha":728,"x_min":23,"x_max":714,"o":"m 614 876 q 678 810 660 858 l 675 771 l 559 589 l 545 549 q 714 339 714 458 q 713 327 714 333 l 712 300 q 531 14 698 95 l 524 79 l 513 79 q 380 -12 479 79 l 357 -12 l 355 -25 l 401 -25 l 377 -51 l 343 -39 l 283 -78 l 138 -12 l 149 -25 l 146 -51 l 136 -51 q 84 39 79 -31 q 23 157 45 56 l 81 170 l 81 157 l 93 170 l 104 170 q 349 53 160 104 q 482 144 352 84 l 495 157 l 497 183 l 460 157 l 449 157 l 450 170 q 517 300 513 258 l 472 327 l 425 300 l 391 314 q 319 275 376 275 l 296 275 q 277 327 273 275 l 199 379 q 179 418 176 379 q 417 692 297 692 l 420 732 l 186 692 l 175 692 l 176 705 l 199 705 l 200 719 q 64 758 62 719 l 66 771 l 79 810 l 59 836 l 60 850 l 141 862 l 163 862 l 163 850 q 115 823 117 850 q 614 876 323 876 m 313 680 l 311 666 q 194 471 230 576 l 182 471 l 172 484 l 173 496 q 313 680 214 599 z "},"4":{"ha":800,"x_min":8,"x_max":839,"o":"m 589 935 q 644 888 641 920 q 397 646 485 753 l 397 635 q 652 842 527 764 l 661 796 q 514 669 592 758 l 512 635 l 548 658 l 594 658 l 627 623 l 625 589 l 612 577 l 612 566 l 622 554 l 633 554 l 648 600 l 671 600 l 681 566 l 665 508 l 660 416 l 671 416 l 729 427 l 741 416 l 752 427 l 772 370 l 795 370 l 797 393 l 831 393 l 839 335 l 813 289 l 822 254 l 730 254 l 694 220 l 660 231 l 658 208 l 646 208 l 636 220 l 625 220 l 619 139 l 622 1 q 596 -45 599 1 l 583 -57 l 572 -57 l 576 1 l 564 1 q 535 -92 558 -92 q 508 24 512 -92 l 496 24 l 490 -80 l 479 -80 q 464 47 456 -80 l 431 81 l 446 139 l 452 220 l 92 185 l 14 220 l 14 231 q 41 289 20 289 q 8 323 43 323 l 23 381 l 12 381 q 199 612 91 516 l 199 600 l 60 427 l 60 416 l 72 416 q 296 681 101 498 l 295 669 l 220 577 l 232 577 q 589 935 370 743 m 471 900 l 471 888 l 397 819 l 398 831 l 471 900 m 348 773 l 347 762 l 261 681 l 262 692 l 348 773 m 249 669 l 248 658 l 199 612 l 200 623 l 249 669 m 465 623 q 329 473 464 593 l 279 416 l 291 416 q 485 566 420 566 l 487 600 l 465 623 m 499 612 l 496 566 l 530 554 l 532 577 l 499 612 m 325 404 l 324 393 l 359 393 l 475 404 l 483 531 q 325 404 348 404 m 494 519 l 489 450 l 500 450 l 505 519 l 494 519 z "},"5":{"ha":627,"x_min":5,"x_max":674,"o":"m 648 903 l 616 866 q 674 808 616 827 l 674 797 l 605 693 l 536 705 q 282 624 282 705 l 259 532 q 559 370 559 486 q 340 -21 559 196 l 132 -67 l 63 -44 l 63 -33 q 144 1 137 -33 q 5 82 59 1 l 17 94 l 17 105 l 52 94 q 328 267 138 94 l 340 313 l 351 313 l 351 290 l 363 290 l 386 347 l 386 359 l 374 359 l 374 336 l 363 336 l 340 359 l 340 370 q 178 313 259 359 l 98 347 q 52 370 98 370 l 52 405 l 75 405 l 75 382 l 86 393 l 98 393 l 52 474 q 121 682 96 682 l 121 670 l 75 497 q 144 682 117 497 l 109 705 l 132 751 l 102 814 l 102 838 l 114 838 q 224 889 224 848 l 305 878 l 648 903 m 294 866 l 294 854 l 374 854 l 374 866 l 294 866 m 397 336 l 363 255 l 374 255 l 409 324 l 409 336 l 397 336 z "},"6":{"ha":697,"x_min":12,"x_max":680,"o":"m 427 901 l 496 901 q 565 832 565 901 l 553 821 l 565 821 l 600 832 q 507 774 600 814 l 507 763 l 611 809 l 611 798 l 415 671 l 300 498 l 311 498 l 357 509 q 600 429 534 480 l 611 429 l 611 417 l 576 417 l 576 406 l 680 359 q 450 14 680 182 l 265 -21 q 46 163 137 -21 q 12 198 46 198 l 23 256 l 23 394 q 334 844 109 686 l 427 901 m 427 751 q 208 463 233 565 l 208 452 l 219 452 q 438 751 224 492 l 427 751 m 427 336 l 427 325 l 507 325 l 507 336 l 427 336 m 196 221 q 300 140 196 161 q 519 279 441 140 l 519 290 l 473 279 l 415 302 l 415 290 l 404 302 l 392 302 q 196 221 293 302 m 600 279 l 611 267 l 623 267 l 623 302 l 600 279 m 553 210 l 530 163 l 542 163 l 565 198 l 565 210 l 553 210 z "},"7":{"ha":646,"x_min":16,"x_max":675,"o":"m 587 884 q 675 752 659 880 l 559 573 q 484 439 514 464 l 496 439 l 406 281 l 418 281 l 329 124 l 317 125 l 319 136 l 387 306 l 388 317 l 376 318 q 166 -155 265 120 l 119 -164 q 67 -22 60 -81 l 345 527 l 355 515 l 367 515 l 356 527 l 358 538 q 406 640 398 581 l 410 674 l 362 665 l 352 677 l 58 647 l 38 671 l 40 682 l 98 691 l 109 679 l 125 713 l 113 713 l 64 692 q 16 761 16 709 q 17 777 16 768 q 98 864 48 867 l 587 884 m 245 845 l 244 833 l 267 831 l 384 838 l 394 825 l 475 832 l 477 844 l 374 849 l 245 845 m 138 723 l 136 711 l 159 711 l 370 723 l 371 734 l 290 739 l 138 723 m 347 446 l 313 368 l 312 356 l 323 355 l 356 435 l 358 446 l 347 446 m 298 345 l 266 266 l 254 267 l 257 290 l 245 290 l 243 267 l 252 255 l 240 245 l 252 243 l 157 53 l 156 41 l 168 41 l 309 333 l 310 345 l 298 345 m 179 -144 l 191 -144 l 186 -179 l 160 -201 l 151 -189 l 152 -178 q 179 -144 175 -178 z "},"8":{"ha":675,"x_min":0,"x_max":675,"o":"m 420 903 q 510 854 511 879 l 382 829 l 394 817 l 394 804 l 463 829 l 486 829 q 578 779 529 779 q 622 718 577 754 q 675 568 620 641 l 675 543 q 568 444 598 444 l 568 419 l 602 370 l 589 357 l 589 345 q 644 220 644 264 l 643 208 q 348 -40 638 35 l 348 -52 l 336 -40 l 290 -52 q 7 134 84 -52 l 9 208 l 21 220 l 0 307 l 108 456 l 108 469 l 85 469 l 86 494 l 97 481 l 109 481 l 109 507 l 75 518 l 89 618 l 78 630 l 78 643 q 292 891 82 795 l 408 891 l 420 903 m 198 829 l 126 730 l 138 730 l 210 829 l 198 829 m 273 593 l 284 581 l 273 581 q 363 518 283 518 q 503 593 502 531 q 413 655 463 593 l 436 655 l 538 593 l 549 593 q 403 730 479 730 q 273 593 291 670 m 378 643 l 389 643 l 412 618 l 400 618 l 378 643 m 594 543 l 629 518 l 642 581 l 630 581 l 594 543 m 490 494 l 489 481 l 500 481 q 583 518 582 494 l 583 531 l 559 531 l 490 494 m 95 419 q 23 307 24 335 l 22 295 l 34 295 l 106 419 l 95 419 m 193 195 q 296 146 207 146 l 307 146 q 448 258 388 146 l 448 270 l 426 295 l 311 295 l 299 283 l 288 295 l 276 295 q 193 195 195 270 m 412 171 l 423 171 l 458 208 q 412 171 412 189 z "},"9":{"ha":692,"x_min":-24,"x_max":677,"o":"m 319 909 q 545 817 458 909 l 544 806 l 521 806 l 629 667 l 677 483 q 422 22 667 288 q 208 -116 252 -116 l 208 -104 l 149 -139 l 125 -139 l 104 -116 l 236 -12 l 84 -58 l 73 -47 l 74 -35 l 98 -12 l 87 -1 l 88 22 l 254 102 q 352 218 285 102 q 437 310 397 244 l 438 321 l 427 321 l 391 310 l 174 356 l 174 345 q -4 460 71 361 l -3 471 l 9 483 l 9 494 q -24 515 -24 494 l -24 517 l 29 656 q 319 909 151 909 m 201 621 l 198 587 q 376 448 191 448 l 387 448 q 481 494 438 448 q 375 656 455 656 l 340 656 l 201 621 m 304 183 l 304 172 l 254 114 l 243 114 l 243 125 l 304 183 m 174 125 l 185 114 l 184 102 l 55 45 q 174 125 58 64 z "}," ":{"ha":386,"x_min":0,"x_max":0,"o":""},"!":{"ha":374,"x_min":56,"x_max":320,"o":"m 169 1014 l 320 959 l 320 945 q 258 519 258 682 l 258 505 q 307 271 258 422 l 295 230 q 258 284 264 230 l 245 284 l 245 257 l 194 257 l 169 326 l 157 312 l 144 312 q 56 546 56 382 l 56 573 l 81 849 l 94 849 l 106 766 l 81 766 l 81 739 l 106 711 l 119 711 l 144 876 l 131 863 l 119 863 l 119 903 l 144 931 l 144 890 l 157 890 l 157 945 l 131 972 l 169 1014 m 94 903 l 106 903 l 119 849 l 94 849 l 94 903 m 94 697 l 94 642 l 106 642 l 106 697 l 94 697 m 68 656 l 68 587 l 81 519 l 94 519 l 94 560 l 81 656 l 68 656 m 94 464 q 157 340 131 340 l 94 464 m 217 167 l 217 155 l 205 144 l 205 132 l 217 144 l 240 144 l 275 75 l 286 40 l 252 5 l 275 5 l 298 -18 l 298 -41 l 125 -75 l 113 -64 l 113 -41 q 159 -18 159 -41 l 159 -6 l 90 -6 l 90 63 l 102 75 l 102 86 l 90 86 l 56 75 l 56 86 q 217 167 90 167 z "},"\"":{"ha":391,"x_min":31,"x_max":360,"o":"m 43 732 l 70 899 l 70 954 l 52 981 l 79 1023 l 190 968 l 190 954 q 149 635 158 771 l 147 636 q 153 606 149 621 l 146 564 q 126 619 130 564 l 119 619 l 119 592 l 92 592 l 79 661 l 73 647 l 66 647 q 31 744 42 683 l 43 732 m 211 882 l 240 889 l 240 944 l 222 966 l 250 1016 l 360 994 l 360 981 q 319 649 303 747 l 317 649 q 323 621 319 635 l 316 576 q 296 625 300 572 l 290 623 l 290 596 l 262 589 l 243 611 l 237 595 l 230 593 q 201 722 206 622 l 211 882 z "},"#":{"ha":772,"x_min":0,"x_max":0,"o":""},"$":{"ha":772,"x_min":0,"x_max":0,"o":""},"%":{"ha":748,"x_min":42,"x_max":720,"o":"m 328 841 q 345 804 337 822 q 359 774 359 787 l 358 774 l 359 772 l 359 771 l 358 766 l 359 762 l 326 708 q 273 657 316 687 q 227 636 241 636 l 222 636 l 210 642 l 161 656 q 88 699 128 656 q 50 747 50 729 l 47 763 l 47 777 q 85 851 47 804 q 187 911 150 902 l 218 924 l 234 920 l 267 925 q 271 907 262 928 l 274 896 q 269 888 274 889 l 250 889 l 264 880 l 264 878 l 267 876 l 246 882 q 253 880 253 882 l 258 881 q 302 872 278 881 l 253 831 q 170 793 180 806 q 118 730 91 787 l 142 720 l 192 729 l 199 729 l 210 728 q 264 774 252 752 q 294 820 278 790 l 294 821 l 328 841 m 267 375 l 164 228 l 176 218 l 248 323 l 267 375 m 176 360 q 117 232 92 252 l 176 360 m 353 601 l 347 607 l 306 530 l 308 503 l 353 601 m 406 667 l 381 597 l 494 760 l 524 859 l 570 869 l 539 826 l 552 816 l 593 873 l 586 921 l 654 936 l 720 821 l 710 807 q 334 349 453 519 l 323 335 q 101 -1 264 250 l 59 -35 q 44 -3 44 -23 q 62 50 44 18 l 49 60 l 52 77 l 103 165 l 119 208 l 55 113 l 42 123 q 75 280 75 245 q 198 474 106 344 l 218 502 l 444 769 l 457 760 l 409 665 l 406 667 m 548 -31 q 535 -33 541 -33 q 505 -16 516 -33 l 498 -5 q 500 5 496 3 l 519 9 l 537 22 l 536 24 l 532 26 l 519 18 q 513 19 513 17 l 509 16 q 479 26 483 9 l 475 29 q 478 33 474 32 l 479 35 l 479 38 q 441 90 457 64 q 418 121 422 106 l 420 121 l 418 123 l 418 130 l 414 136 l 428 205 q 460 276 431 231 q 495 311 483 308 l 499 313 l 513 308 l 546 329 q 625 297 576 337 q 689 227 684 247 l 696 208 l 700 193 q 689 98 708 161 q 616 3 646 24 l 591 -18 l 576 -18 l 548 -31 m 623 243 l 618 245 l 565 216 l 559 214 l 548 213 q 514 147 517 175 q 500 87 506 125 l 503 79 q 515 64 512 63 q 604 148 598 127 q 623 243 630 195 z "},"&":{"ha":1004,"x_min":22,"x_max":984,"o":"m 506 907 l 671 911 q 727 820 728 880 l 726 802 q 524 517 725 712 q 693 289 623 356 l 701 289 q 861 479 793 378 q 877 452 878 479 l 868 423 l 877 423 l 926 462 l 935 453 l 943 453 l 976 463 l 984 454 l 984 426 q 783 208 929 314 l 782 198 l 895 61 l 895 43 q 712 -26 814 -24 q 615 64 713 -10 l 607 64 l 671 -9 l 671 -18 l 654 -37 l 574 45 l 457 -5 l 391 3 l 326 -7 l 326 -17 q 374 -34 375 -16 l 292 -83 l 275 -83 q 22 87 74 -87 l 23 125 q 326 494 31 229 q 271 688 294 562 l 290 763 l 281 791 q 506 907 425 906 m 686 847 l 686 838 l 693 791 l 685 763 l 701 782 l 702 801 l 694 847 l 686 847 m 453 711 l 468 628 q 553 760 533 675 l 538 834 q 453 711 454 780 m 635 790 q 492 591 635 759 l 492 582 l 500 582 q 644 762 627 710 l 644 790 l 635 790 m 428 673 l 427 646 l 435 608 l 443 609 l 444 618 l 436 673 l 428 673 m 382 384 q 542 137 456 217 l 551 137 l 551 146 q 390 385 551 175 l 382 384 m 204 129 q 359 39 245 37 l 442 79 l 467 70 l 566 109 l 567 128 l 559 127 l 534 109 l 525 109 q 365 356 439 205 l 357 355 q 204 129 239 273 m 172 156 l 171 109 q 195 73 182 73 l 180 156 l 172 156 m 789 142 l 789 133 l 838 79 l 838 87 l 789 142 z "},"'":{"ha":320,"x_min":45,"x_max":294,"o":"m 54 859 l 67 859 l 79 776 l 54 776 l 54 749 l 45 755 l 54 859 m 67 913 l 79 913 l 92 859 l 67 859 l 67 913 m 67 707 l 67 652 l 79 652 l 79 707 l 67 707 m 94 732 l 117 885 l 104 872 l 92 872 l 92 913 l 117 941 l 117 899 l 130 899 l 130 954 l 104 981 l 143 1023 l 294 968 l 294 954 q 237 635 250 771 l 235 636 q 243 606 239 621 l 233 564 q 206 619 211 564 l 197 619 l 197 592 l 161 592 l 143 661 l 134 647 l 124 647 q 76 744 92 683 l 94 732 m 121 707 l 110 714 q 134 674 123 674 l 121 707 z "},"(":{"ha":680,"x_min":273,"x_max":644,"o":"m 621 990 l 569 924 l 508 861 l 463 790 q 396 144 353 486 q 486 -127 458 -94 q 538 -190 532 -137 l 515 -235 l 511 -235 q 469 -208 492 -235 q 332 52 316 9 l 304 227 l 321 -11 l 312 -5 q 273 295 273 118 q 274 359 273 326 q 304 659 279 494 q 428 905 332 777 q 540 1042 500 1042 q 551 1040 545 1042 l 500 964 l 490 935 l 500 929 q 629 1061 592 1061 l 633 1061 l 644 1055 l 597 995 l 593 980 l 621 990 z "},")":{"ha":677,"x_min":68,"x_max":405,"o":"m 383 280 l 298 15 l 293 -9 l 315 -14 l 404 172 l 405 275 l 383 280 m 197 957 l 196 1067 q 269 971 231 958 l 278 993 l 343 801 l 342 728 l 361 682 q 231 -80 387 370 q 202 -125 197 -92 l 188 -113 l 177 -117 l 115 -174 l 131 -204 l 134 -221 l 94 -228 l 68 -172 q 210 857 376 467 l 125 1045 l 159 1064 l 197 957 z "},"*":{"ha":541,"x_min":0,"x_max":0,"o":""},"+":{"ha":813,"x_min":80,"x_max":701,"o":"m 177 395 l 177 404 l 141 404 l 141 395 l 177 395 m 462 512 q 452 496 452 507 l 452 495 l 458 496 l 602 514 l 610 505 l 620 505 l 673 514 l 701 496 l 692 450 l 701 441 q 593 395 701 395 l 449 389 q 375 121 412 245 l 367 125 q 362 157 351 132 l 353 161 q 299 106 338 169 l 270 130 q 344 385 329 315 l 334 385 l 258 125 l 234 137 l 237 145 l 250 150 l 264 183 l 256 186 l 245 182 l 271 241 l 283 245 l 267 253 l 271 261 l 287 254 l 294 270 l 278 278 l 286 295 l 298 299 l 281 307 l 285 315 l 319 370 l 303 378 l 315 382 l 316 385 l 107 376 l 80 386 l 80 404 l 107 404 l 89 431 q 233 477 109 477 l 296 486 l 326 488 q 353 661 338 568 l 326 781 l 335 781 q 371 689 355 781 l 362 597 l 362 588 l 371 588 l 371 606 q 398 625 398 606 l 398 634 l 380 781 l 380 790 l 398 790 l 434 762 l 443 772 l 452 772 q 488 634 488 692 l 479 643 l 470 643 l 488 579 l 461 570 l 461 542 l 469 543 l 462 512 z "},",":{"ha":477,"x_min":94,"x_max":323,"o":"m 261 254 l 292 254 q 323 186 323 241 l 323 182 q 313 111 323 153 l 317 83 q 230 -111 260 -111 q 202 -157 230 -142 l 190 -157 q 155 -126 155 -151 q 193 -51 160 -51 l 196 -48 l 196 -45 l 177 -17 l 183 20 l 149 8 q 97 24 97 16 l 94 33 q 131 117 94 117 l 134 120 l 134 123 l 112 151 q 149 235 117 235 l 261 254 m 214 139 l 218 139 l 248 145 l 248 155 l 245 155 q 214 139 230 155 z "},"-":{"ha":677,"x_min":39,"x_max":615,"o":"m 376 553 l 395 550 l 437 557 l 439 568 l 419 571 l 378 564 l 376 553 m 385 434 l 405 432 l 401 468 l 382 470 l 385 434 m 140 608 l 140 615 l 178 625 l 206 610 l 267 614 l 275 601 l 276 612 l 284 600 l 404 596 l 463 589 l 450 578 l 448 567 l 602 583 l 597 560 q 564 541 568 564 l 574 540 l 605 547 l 603 536 l 591 526 l 589 514 q 615 492 615 511 q 614 487 615 490 l 438 451 l 436 439 l 475 435 l 473 423 l 352 415 l 378 447 l 368 448 q 262 414 278 450 l 260 403 l 220 408 l 213 421 l 210 410 l 218 397 l 179 402 l 182 414 l 193 423 l 195 435 l 183 425 l 146 429 l 145 437 l 68 464 l 72 480 l 133 480 l 136 496 q 115 534 108 504 l 39 555 l 42 571 q 140 608 50 604 z "},".":{"ha":425,"x_min":52,"x_max":330,"o":"m 261 250 l 306 205 l 304 193 l 330 168 l 329 155 l 302 155 l 302 142 l 328 142 l 327 131 q 250 87 251 111 l 276 87 q 98 -14 269 -14 l 59 -1 l 59 54 q 112 55 101 37 l 52 87 l 92 168 l 58 200 q 203 252 62 252 q 261 250 231 252 z "},"/":{"ha":680,"x_min":-23,"x_max":696,"o":"m 477 606 l 454 523 l 465 519 l 489 602 l 477 606 m 439 514 l 401 423 l 394 399 l 406 396 l 444 488 l 450 511 l 439 514 m 379 391 l 366 344 l 377 340 l 391 388 l 379 391 m 351 336 l 322 280 l 319 269 l 330 265 l 355 309 l 362 332 l 351 336 m 294 224 l 281 178 l 292 174 l 306 221 l 294 224 m 236 290 l 202 224 l 199 212 l 210 209 l 240 263 l 248 286 l 236 290 m 186 184 l 171 137 l 182 133 l 197 180 l 186 184 m 195 58 l 165 4 l 153 -31 l 165 -35 l 202 43 l 206 55 l 195 58 m 696 944 q 109 -175 408 332 l 97 -172 l 90 -155 l 104 -147 l 149 -43 l 138 -38 l 37 -182 l 33 -132 q -12 -165 9 -124 l -23 -162 l 6 -98 l -5 -93 q -20 -71 -20 -88 q -17 -50 -20 -62 q 58 78 16 1 q 277 471 185 272 l 292 498 l 307 526 l 381 677 l 418 757 l 444 828 l 504 928 l 496 943 l 523 1025 l 530 1010 l 542 1006 l 557 1052 l 549 1068 l 553 1080 l 587 1068 l 296 452 q 595 1052 319 444 l 602 1052 q 599 1027 601 1040 l 611 978 l 623 978 l 635 990 l 636 990 q 647 944 634 951 l 647 916 l 671 931 l 682 968 q 694 967 687 969 l 695 966 q 696 944 695 954 z "},":":{"ha":425,"x_min":52,"x_max":330,"o":"m 261 720 l 306 676 l 276 663 l 301 639 l 300 626 l 274 626 l 273 613 l 300 613 l 298 602 q 300 538 313 562 l 264 526 q 216 479 178 545 q 73 464 165 412 l 59 524 q 52 558 52 543 q 75 606 52 587 l 114 600 l 92 638 l 58 671 q 203 722 62 722 q 261 720 231 722 m 261 250 l 306 205 l 304 193 l 330 168 l 329 155 l 302 155 l 302 142 l 328 142 l 327 131 q 250 87 251 111 l 276 87 q 98 -14 269 -14 l 59 -1 l 59 54 q 112 55 101 37 l 52 87 l 92 168 l 58 200 q 203 252 62 252 q 261 250 231 252 z "},";":{"ha":476,"x_min":52,"x_max":323,"o":"m 261 254 l 292 254 q 323 186 323 241 l 323 182 q 313 111 323 153 l 317 83 q 230 -111 260 -111 q 202 -157 230 -142 l 190 -157 q 155 -126 155 -151 q 193 -51 160 -51 l 196 -48 l 196 -45 l 177 -17 l 183 20 l 149 8 q 97 24 97 16 l 94 33 q 131 117 94 117 l 134 120 l 134 123 l 112 151 q 149 235 117 235 l 261 254 m 214 139 l 218 139 l 248 145 l 248 155 l 245 155 q 214 139 230 155 m 261 720 l 306 676 l 276 663 l 301 639 l 300 626 l 274 626 l 273 613 l 300 613 l 298 602 q 300 538 313 562 l 264 526 q 216 479 178 545 q 73 464 165 412 l 59 524 q 52 558 52 543 q 75 606 52 587 l 114 600 l 92 638 l 58 671 q 203 722 62 722 q 261 720 231 722 z "},"<":{"ha":811,"x_min":0,"x_max":0,"o":""},"=":{"ha":745,"x_min":81,"x_max":642,"o":"m 288 658 l 502 654 l 571 664 l 585 699 l 642 673 l 608 525 l 590 523 q 215 503 353 547 l 184 519 q 146 507 165 514 l 94 509 q 125 544 92 528 l 121 576 l 117 614 l 136 640 l 191 648 q 301 675 226 650 l 288 658 m 445 375 l 468 409 l 536 418 l 558 416 l 626 392 l 616 258 l 599 256 q 176 248 298 283 l 176 250 q 142 238 159 245 l 85 239 q 81 257 81 248 q 85 273 81 265 l 81 281 l 92 304 l 117 330 l 96 335 l 92 343 q 334 408 125 376 l 445 375 z "},">":{"ha":811,"x_min":0,"x_max":0,"o":""},"?":{"ha":930,"x_min":30,"x_max":896,"o":"m 612 920 q 896 852 896 908 l 896 850 l 893 816 l 893 620 q 524 401 761 488 l 523 389 l 534 378 q 450 332 532 343 l 450 320 l 484 320 l 496 332 l 507 320 l 519 332 l 516 286 l 423 262 l 424 274 l 389 262 q 298 309 297 283 q 340 424 335 336 l 389 470 l 378 470 l 342 447 l 343 481 q 535 597 469 597 l 534 585 q 463 539 533 566 l 378 481 l 401 481 q 747 666 559 523 l 758 666 l 759 689 l 747 689 l 677 654 l 677 677 l 701 677 l 703 701 l 587 701 l 413 689 q 235 597 410 633 l 150 516 l 138 516 l 140 562 l 152 562 l 163 551 l 174 551 l 175 562 l 165 574 l 177 585 l 165 585 q 104 516 106 558 q 38 574 35 516 l 62 597 q 30 627 30 597 l 30 631 l 46 712 l 35 724 q 117 747 63 747 q 600 920 125 890 l 612 920 m 224 804 l 235 804 q 597 873 414 873 q 860 827 772 873 l 861 850 q 633 885 762 885 l 598 885 q 224 804 345 885 m 580 770 l 579 758 l 648 758 l 649 770 l 580 770 m 661 770 l 660 758 l 706 758 l 707 770 l 661 770 m 517 689 l 528 689 l 528 677 l 481 666 q 517 689 482 689 m 515 458 l 515 447 l 549 447 q 692 516 657 516 l 692 528 l 669 528 l 515 458 m 278 355 l 290 355 l 263 297 l 229 297 l 231 332 l 278 355 m 534 193 l 545 182 l 544 170 l 474 159 l 474 147 l 566 147 l 566 136 l 543 136 l 542 124 l 565 124 l 564 113 q 454 -3 454 20 l 477 -3 q 321 -95 471 -95 l 287 -83 l 290 -49 q 325 -26 324 -49 l 281 -3 l 309 78 l 286 101 q 534 193 290 158 z "},"@":{"ha":553,"x_min":-553,"x_max":790,"o":"m 741 708 l 790 708 l 790 675 q 391 594 790 631 l 383 570 l 424 570 l 701 594 l 701 578 q 644 553 644 572 l 660 553 l 741 562 l 749 553 l 749 545 l 473 496 l 465 505 l 424 496 l 416 496 l 334 505 l 261 496 l 253 496 l 253 505 l 261 513 l 261 521 l -89 505 l -89 496 l 17 496 l 17 480 l 9 480 l -520 448 l -553 521 l -536 537 l -553 562 l -553 618 l -536 635 l -512 635 q 741 708 -263 635 m -48 553 l -48 545 l 25 545 l 17 553 l 17 562 l -48 553 m -349 529 l -349 521 l -341 521 l -154 537 l -154 545 l -219 553 l -349 529 m -178 496 l -178 488 l -138 488 l -138 496 l -178 496 m 58 505 l 188 505 l 188 488 l 58 488 l 58 505 z "},"A":{"ha":814,"x_min":-48,"x_max":782,"o":"m 459 956 q 551 922 467 922 l 644 518 l 724 518 l 724 507 l 655 495 l 655 484 q 690 460 690 484 l 782 460 l 782 449 q 667 403 782 423 l 690 334 l 678 299 l 690 230 l 678 218 l 690 218 l 678 207 l 690 68 l 690 -1 l 678 11 l 667 11 l 701 -162 l 678 -162 q 655 -127 678 -127 l 655 -139 l 667 -174 l 655 -174 l 644 -162 l 632 -162 q 609 -197 632 -197 l 551 -1 l 540 -1 l 540 -47 l 528 -47 l 505 92 l 540 68 l 540 80 q 505 184 530 184 l 517 195 l 517 230 l 494 230 l 494 195 l 482 195 l 482 241 l 494 253 l 482 253 l 471 241 l 471 288 l 482 288 l 494 276 l 505 276 l 494 288 l 494 357 l 240 299 l 240 276 l 321 299 l 367 288 l 425 299 l 425 276 q 182 161 182 233 q 113 -1 152 34 l 113 -24 l 79 -24 l 67 -12 l 56 -12 l 56 -24 l 21 -1 l 44 68 l 33 68 q -2 -24 -2 68 l -25 -1 l -14 68 l -48 103 l 148 576 l 159 576 q 182 541 159 541 l 194 599 l 182 587 l 171 587 l 171 633 l 182 691 l 194 680 l 205 680 l 194 691 l 194 703 l 217 749 l 229 749 l 240 737 l 252 737 l 252 749 q 217 772 252 772 l 275 933 l 321 933 l 309 922 l 309 910 q 459 956 389 956 m 390 691 l 298 449 l 321 449 q 448 518 436 449 l 401 691 l 390 691 m 286 622 l 263 541 l 252 553 l 240 553 l 252 507 l 263 507 l 298 610 l 298 622 l 286 622 m 159 518 l 148 507 l 148 484 l 159 484 l 171 518 l 159 518 m 229 472 l 217 426 l 229 426 l 240 437 l 240 472 l 229 472 m 125 460 l 113 414 l 125 414 l 148 460 l 125 460 m 321 426 l 321 414 l 344 414 q 448 449 448 426 l 436 449 l 321 426 m 482 172 l 505 172 l 505 103 l 494 103 l 482 172 m 644 92 l 644 68 l 655 22 l 667 22 l 667 45 l 655 92 l 644 92 m 528 57 l 528 34 l 563 45 l 563 68 l 528 57 z "},"B":{"ha":814,"x_min":7,"x_max":814,"o":"m 469 938 l 525 920 l 524 909 l 467 915 l 469 938 m 249 939 l 281 912 l 387 924 l 397 911 l 408 909 l 444 917 q 724 724 637 897 q 741 665 747 722 l 732 584 l 709 587 l 710 598 l 726 631 l 715 644 l 728 654 l 718 667 l 695 669 q 564 533 688 604 l 562 522 l 574 521 q 695 565 617 515 l 693 542 l 627 479 q 814 274 691 473 q 437 14 800 148 q 198 -53 282 -62 l 178 -26 l 166 -26 q 117 -55 163 -60 q 94 -87 113 -87 l 90 -87 q 76 -4 66 -84 l 64 -3 l 47 -59 l 35 -58 q 13 60 47 56 l 7 107 l 20 117 l 9 130 l 121 617 l 111 629 l 122 628 l 112 640 l 142 811 l 143 823 l 129 905 l 140 905 q 241 940 205 940 q 249 939 245 940 m 523 793 l 522 781 l 612 760 q 581 786 614 783 l 523 793 m 301 678 l 304 597 l 410 608 l 408 585 l 578 659 l 576 648 l 489 588 q 643 722 632 627 l 620 724 q 579 671 613 667 l 581 694 l 570 694 l 585 728 l 595 715 l 607 713 l 608 725 q 474 774 566 765 q 301 678 314 793 m 570 694 l 569 683 l 543 663 l 532 664 l 570 694 m 517 422 l 516 411 l 629 387 l 640 386 l 642 397 l 597 414 l 517 422 m 258 381 l 223 176 l 233 163 l 245 162 q 620 307 328 153 l 646 327 q 559 382 644 374 l 467 393 l 258 381 m 670 336 l 642 292 l 692 321 l 682 334 l 670 336 m 745 281 q 517 109 741 245 q 778 266 772 211 l 766 267 l 757 280 l 745 281 z "},"C":{"ha":694,"x_min":11,"x_max":680,"o":"m 414 888 l 426 888 q 680 749 593 888 l 680 738 l 656 738 l 668 726 l 668 715 q 599 738 599 723 q 195 461 330 738 l 172 380 l 207 161 l 241 161 q 564 369 385 161 l 576 369 l 576 357 q 299 150 453 180 l 299 138 l 311 138 q 610 346 431 138 l 645 300 l 645 265 q 472 92 645 228 l 460 81 l 449 81 l 449 58 q 645 196 645 153 l 668 196 l 668 184 q 334 12 523 12 l 334 0 l 391 0 l 437 12 l 449 12 l 449 0 l 311 -22 q 126 104 223 -22 l 126 92 l 184 0 l 184 -11 l 149 -11 q 22 173 42 62 l 11 323 q 126 692 11 612 l 126 680 l 57 565 l 57 553 l 68 553 q 357 865 68 663 l 322 853 l 311 853 l 311 865 l 414 888 m 288 842 l 299 842 l 299 830 l 218 795 q 288 842 218 819 m 184 761 l 184 749 l 126 692 l 126 703 l 184 761 m 45 208 l 45 173 l 57 127 l 68 127 l 68 138 l 57 208 l 45 208 z "},"D":{"ha":774,"x_min":9,"x_max":758,"o":"m 170 907 l 216 907 l 251 884 l 332 895 q 701 665 532 895 l 758 549 l 747 538 l 758 480 l 758 422 q 274 -27 758 126 l 159 -39 q 113 -4 159 -9 l 113 -50 l 78 -50 l 78 19 l 66 31 l 78 42 l 78 54 q 9 134 9 101 q 124 895 43 656 l 136 895 l 147 884 l 170 907 m 124 791 l 66 457 l 66 446 l 78 446 l 136 768 l 136 791 l 124 791 m 309 711 q 262 688 309 688 q 193 203 216 477 q 539 319 260 203 l 539 330 l 516 330 q 608 526 608 425 l 608 561 q 435 711 608 688 l 309 711 m 539 711 l 539 699 l 585 676 l 585 688 l 551 711 l 539 711 m 643 549 l 631 411 l 654 411 l 654 446 l 666 492 l 654 549 l 643 549 m 724 457 l 666 273 l 666 261 l 677 261 l 735 434 l 735 457 l 724 457 m 608 376 l 585 330 l 597 330 l 620 376 l 608 376 m 539 169 q 620 238 566 173 l 620 250 l 539 169 m 274 100 l 274 88 l 320 88 l 378 111 l 378 123 l 366 123 l 274 100 m 182 88 l 193 54 l 216 54 l 239 77 l 239 88 l 228 88 l 193 77 l 182 88 m 55 19 l 66 19 l 66 7 l 43 -16 l 32 -16 l 32 -4 l 55 19 z "},"E":{"ha":697,"x_min":0,"x_max":694,"o":"m 638 903 l 694 865 q 606 766 669 762 l 304 753 l 303 730 l 360 726 l 430 732 l 441 720 l 452 719 l 534 726 l 557 724 l 556 712 l 288 684 l 267 535 l 279 534 l 592 559 l 602 547 l 602 536 l 578 538 l 578 526 l 658 509 l 657 497 q 326 393 632 433 l 210 389 l 221 377 l 165 231 l 154 231 l 161 334 l 149 335 l 127 175 q 614 212 472 221 l 671 196 l 670 173 l 647 174 l 657 162 l 655 127 q 514 91 622 84 l 513 79 l 606 73 l 604 50 l 67 -28 l 56 -28 q 0 8 0 -16 l 0 10 l 2 45 l 34 170 l 23 182 l 46 181 l 42 123 l 54 122 q 81 178 60 180 l 70 191 l 78 305 l 55 307 l 39 250 l 52 261 l 64 260 l 59 191 l 47 193 l 50 227 l 38 227 l 37 204 l 25 205 l 26 228 l 63 422 l 52 423 l 78 479 l 67 491 l 68 503 l 93 697 l 104 685 l 115 684 l 117 707 l 109 766 l 127 869 l 130 903 l 141 902 l 152 890 l 164 901 l 176 899 l 186 888 l 199 899 l 233 896 l 638 903 m 61 399 l 56 319 l 67 318 l 73 398 l 61 399 m 441 385 l 453 385 l 452 373 l 243 352 l 232 365 l 233 376 l 337 380 l 336 369 l 441 385 z "},"F":{"ha":655,"x_min":5,"x_max":689,"o":"m 448 939 l 447 916 l 412 916 l 412 905 l 423 905 l 643 916 l 689 916 l 688 905 l 665 882 l 675 870 l 675 847 q 637 778 673 787 l 648 743 l 635 709 l 624 720 l 612 720 q 450 697 451 712 l 439 709 q 239 593 241 677 l 235 501 l 513 524 l 524 513 l 524 501 l 466 501 l 465 490 q 522 467 523 490 l 522 455 q 496 397 519 397 l 427 397 l 427 386 l 507 386 l 507 363 q 215 282 506 343 l 199 155 l 210 144 l 210 132 l 198 121 l 197 109 l 208 75 l 196 75 l 206 40 q 125 -139 210 -9 l 33 -127 l 49 -12 q 5 31 5 -12 l 5 34 q 47 397 22 63 l 70 397 l 59 409 l 74 501 l 85 490 l 96 490 l 113 605 l 115 651 q 57 674 57 651 l 81 709 q 37 743 35 709 q 75 847 41 847 q 135 905 133 847 l 146 905 l 157 893 l 182 916 l 216 916 l 250 882 l 448 939 m 480 882 l 479 870 l 514 870 l 642 882 l 642 893 l 572 893 l 480 882 m 372 755 l 372 743 l 383 743 l 614 766 l 614 778 l 581 789 l 568 778 l 557 778 l 546 789 l 372 755 m 66 294 l 61 167 l 73 167 l 77 294 l 66 294 m 83 -35 l 81 -81 l 92 -81 l 94 -35 l 83 -35 z "},"G":{"ha":833,"x_min":21,"x_max":942,"o":"m 492 884 l 502 873 l 513 873 l 515 884 q 696 746 705 836 l 711 677 l 688 677 q 669 723 692 723 l 658 723 l 664 665 l 662 654 l 639 654 q 620 688 616 654 l 607 677 l 595 677 q 485 723 538 723 q 217 481 370 723 l 180 354 q 307 135 163 201 l 304 112 l 281 112 l 279 100 l 302 100 q 544 308 385 100 l 545 319 l 534 319 q 366 158 442 209 l 355 158 l 498 308 l 417 308 q 385 331 420 331 l 375 342 l 376 354 q 495 389 378 377 l 498 412 l 485 400 l 416 400 l 355 481 l 368 492 l 369 504 l 495 492 l 798 527 l 800 538 q 745 562 742 538 l 756 562 l 766 550 l 779 562 l 791 562 q 911 504 913 526 l 910 492 l 897 481 l 896 469 l 942 469 l 939 446 l 928 446 l 741 423 l 740 412 l 751 412 l 857 423 l 854 400 q 728 308 739 400 l 673 123 l 684 112 l 683 100 l 665 43 l 667 -50 l 642 -73 l 651 -84 q 600 -142 604 -99 l 565 -142 q 553 -38 542 -142 l 541 -38 l 532 -119 l 498 -119 l 504 -61 l 501 20 l 478 20 q 346 -26 412 -26 l 288 -26 l 269 -3 l 269 8 l 292 8 l 294 20 q 35 181 54 20 q 21 330 21 256 q 26 423 21 376 l 28 446 q 111 677 39 534 l 123 677 l 120 654 l 77 573 l 76 562 l 87 562 q 312 827 99 667 l 323 827 l 325 838 l 313 838 l 277 827 q 492 884 311 884 m 254 815 l 265 815 l 176 734 l 177 746 l 254 815 m 423 792 l 422 781 l 503 781 l 504 792 l 423 792 m 176 734 l 174 723 l 123 677 l 124 688 l 176 734 m 686 550 l 732 550 l 706 527 l 686 550 m 343 158 l 355 158 l 330 135 l 318 135 l 343 158 m 399 43 l 497 89 l 500 112 l 488 112 l 399 43 m 315 8 l 315 -3 l 372 -3 l 373 8 l 315 8 z "},"H":{"ha":762,"x_min":14,"x_max":763,"o":"m 152 910 l 163 910 l 163 876 l 175 876 l 175 899 l 221 899 q 244 829 244 899 l 279 818 q 302 852 279 852 l 313 841 l 313 829 l 256 518 l 429 530 l 544 530 l 555 587 l 544 599 l 567 599 l 555 680 l 555 691 l 578 691 l 567 703 l 567 726 l 590 726 l 590 749 l 567 749 l 567 760 l 590 760 l 578 772 l 578 852 l 590 841 l 602 841 l 602 887 l 590 899 l 590 910 l 625 910 l 567 518 q 636 899 590 518 l 682 910 q 717 818 694 818 l 728 818 q 751 852 728 852 l 763 852 q 590 -81 705 454 l 578 -81 l 567 -70 l 578 -58 l 578 34 l 567 34 l 532 -81 l 498 -81 q 475 -12 475 -81 l 463 -12 l 463 -58 l 452 -58 q 429 -24 429 -58 q 498 368 429 60 l 486 368 l 336 357 l 233 368 q 163 -1 198 92 l 129 -1 q 106 92 106 -1 l 94 92 l 83 11 l 60 34 l 60 68 l 71 80 l 71 92 l 60 103 l 48 103 l 37 92 l 25 92 l 14 138 q 117 703 60 527 l 129 703 l 117 714 l 117 749 l 152 876 l 140 876 l 152 910 m 163 864 l 163 783 l 175 783 l 175 864 l 163 864 m 152 772 l 140 680 l 140 656 l 152 656 l 163 749 l 163 772 l 152 772 m 129 645 l 129 599 l 140 599 l 140 645 l 129 645 m 117 587 l 106 530 l 106 518 l 117 518 l 129 564 l 129 587 l 117 587 m 94 472 l 94 426 l 106 426 l 106 472 l 94 472 m 532 357 l 521 288 l 521 276 l 532 276 l 544 334 l 544 357 l 532 357 m 509 264 l 509 218 l 521 218 l 521 264 l 509 264 m 590 138 l 578 80 l 578 45 l 590 45 l 602 126 l 602 138 l 590 138 m 25 80 l 37 80 l 37 22 l 25 22 l 25 80 z "},"I":{"ha":326,"x_min":29,"x_max":326,"o":"m 261 899 q 304 865 258 865 l 326 819 l 313 807 l 325 807 q 224 242 242 563 l 220 173 l 231 161 l 231 150 l 218 138 l 230 138 l 218 127 l 224 46 l 223 23 q 159 -92 161 -52 l 113 -92 l 57 -69 l 73 12 l 29 58 l 50 231 l 62 438 l 87 473 l 90 519 l 79 530 l 79 542 l 102 542 l 103 553 l 92 565 l 139 784 l 127 784 l 140 795 l 143 865 l 132 876 l 133 888 l 261 899 m 134 692 l 130 611 l 141 611 l 145 692 l 134 692 m 116 576 l 112 507 l 123 507 l 127 576 l 116 576 m 98 473 l 95 404 l 106 404 l 110 473 l 98 473 m 96 12 l 93 -46 l 117 -23 l 119 12 l 96 12 z "},"J":{"ha":637,"x_min":2,"x_max":639,"o":"m 558 924 l 558 866 l 593 866 l 593 901 l 639 901 q 406 -43 528 -43 q 290 -101 406 -66 l 279 -90 l 267 -90 l 210 -101 l 198 -90 l 198 -101 q 83 3 83 -101 l 2 37 l 2 72 l 14 60 l 48 60 l 48 72 q 25 222 43 222 l 48 291 q 117 326 79 291 l 163 326 l 175 256 l 198 256 l 198 279 l 186 291 l 186 302 l 198 314 l 221 314 q 256 279 221 279 l 244 199 l 244 164 q 279 95 252 95 l 313 199 l 325 187 l 348 187 q 477 843 399 187 l 489 912 l 500 924 l 558 924 m 359 383 l 371 383 l 371 337 l 359 337 l 359 383 m 348 326 l 359 326 q 382 291 359 291 q 348 268 382 268 l 359 256 l 359 245 l 336 222 l 348 222 l 359 233 l 359 210 l 325 199 l 325 210 l 348 326 m 48 279 l 48 222 l 60 222 l 60 279 l 48 279 z "},"K":{"ha":748,"x_min":10,"x_max":809,"o":"m 671 940 l 682 928 l 682 917 l 671 905 l 659 917 l 648 917 l 544 848 l 532 848 q 671 940 532 878 m 221 917 l 233 813 q 267 882 256 813 l 279 882 l 290 836 l 256 652 l 382 744 l 394 744 l 256 617 l 256 606 l 521 802 l 532 790 q 740 917 688 917 l 751 917 l 763 871 l 671 779 l 682 779 q 751 825 705 825 l 763 813 l 763 825 l 751 836 l 763 848 l 798 848 l 809 813 q 406 513 722 772 q 682 52 484 343 l 682 29 l 671 -52 l 659 -40 l 648 -40 l 636 -86 l 590 -86 l 590 -63 l 578 -63 l 578 -86 l 555 -86 q 302 340 555 -45 l 279 410 l 221 398 q 149 52 206 121 l 149 41 l 33 52 l 33 87 l 45 168 q 10 237 10 168 q 48 352 29 352 l 37 363 q 106 744 71 681 l 94 779 l 129 871 l 129 882 l 117 894 l 117 905 l 140 905 l 140 825 l 152 825 l 163 859 l 152 871 l 152 882 q 221 917 163 917 m 521 848 l 532 848 l 486 802 l 475 802 l 521 848 m 129 790 l 117 721 l 117 675 l 129 675 l 140 779 l 140 790 l 129 790 m 463 802 l 475 802 l 406 744 l 394 744 l 463 802 m 613 755 l 567 721 l 555 709 l 555 698 l 567 698 l 613 732 l 625 744 l 625 755 l 613 755 m 417 98 l 429 98 l 463 64 l 452 64 l 417 98 m 463 64 q 521 -52 492 64 l 521 -63 l 509 -63 l 463 64 z "},"L":{"ha":720,"x_min":5,"x_max":777,"o":"m 178 910 q 201 841 201 910 l 224 841 l 258 864 l 270 852 l 212 207 q 604 288 286 241 l 616 288 l 616 276 q 212 172 212 210 l 339 207 l 339 195 l 558 241 l 558 230 l 570 241 l 581 241 l 593 230 l 650 241 l 696 241 l 777 230 l 777 218 q 604 161 777 184 l 604 149 l 616 161 l 627 161 l 708 149 l 720 161 l 720 126 l 339 34 l 97 -58 l 62 -58 l 16 -1 l 5 -1 l 5 11 q 51 45 5 40 l 51 80 l 16 126 l 62 645 l 74 645 l 74 599 l 62 518 l 85 518 l 62 368 l 74 357 l 62 311 l 62 253 l 74 253 l 120 864 q 143 899 143 864 l 155 910 l 178 910 z "},"M":{"ha":822,"x_min":-5,"x_max":819,"o":"m 611 920 l 634 920 l 632 897 l 605 850 l 595 862 l 583 862 l 611 920 m 184 908 l 207 908 l 239 885 l 240 897 q 328 839 302 885 q 410 597 368 839 l 570 839 l 582 850 l 593 850 l 593 839 l 429 551 l 452 551 q 668 908 633 908 l 701 885 l 701 897 q 819 781 751 897 l 815 747 l 803 735 l 813 724 l 809 677 l 786 677 l 803 608 l 781 481 l 777 447 l 788 435 l 787 424 l 762 401 l 783 378 l 758 355 l 779 332 l 766 320 l 755 320 l 766 309 l 737 -14 q 700 -49 703 -14 q 660 -106 665 -49 l 625 -106 l 560 -60 l 578 9 l 561 78 l 639 574 q 513 320 581 513 q 458 228 507 253 l 447 228 l 448 239 l 460 251 l 462 262 l 451 274 l 476 297 l 479 332 l 456 332 q 401 239 451 269 l 390 239 l 338 297 q 301 401 307 297 q 247 574 242 521 l 235 574 l 212 435 l 203 343 l 189 309 l 195 251 l 174 -3 q 147 -37 151 -3 l 85 -95 l 73 -95 l -5 -60 l 12 -3 l 12 124 l 16 182 l 28 193 l 18 205 l 20 216 q 87 597 35 393 l 99 597 l 88 608 l 90 620 l 105 666 l 97 712 l 98 724 l 110 724 l 108 701 l 119 701 l 123 735 l 112 747 l 154 827 l 157 862 l 144 850 l 132 850 l 122 862 l 125 897 l 136 897 l 147 885 l 159 885 l 184 908 m 473 389 l 481 355 l 493 355 q 635 666 498 416 l 652 724 q 473 389 566 616 m 678 631 l 666 620 l 640 332 l 652 332 l 685 574 l 674 585 l 686 585 l 675 597 l 676 608 l 689 620 l 690 631 l 678 631 m 603 32 l 595 -60 l 606 -60 l 623 -3 l 614 32 l 603 32 z "},"N":{"ha":870,"x_min":4,"x_max":863,"o":"m 235 898 l 315 829 q 338 863 315 863 l 350 863 l 511 448 l 511 425 l 500 425 l 477 494 l 465 494 l 465 471 l 546 275 l 557 275 q 690 901 604 575 l 725 878 l 760 890 l 829 855 l 829 844 q 794 798 794 844 l 806 798 l 817 786 l 829 786 l 840 844 l 863 844 l 863 832 l 852 821 l 863 809 l 863 798 q 707 33 777 531 l 684 33 l 707 218 q 638 -1 684 218 q 557 -36 595 -36 l 557 -59 l 546 -59 q 500 -36 546 -36 l 500 45 q 269 621 500 97 l 258 621 q 177 68 212 416 l 165 79 q 96 22 96 59 l 73 22 q 50 172 50 65 l 39 172 l 39 68 l 16 68 l 4 125 q 142 886 4 439 l 235 898 m 73 610 l 73 598 l 85 587 l 73 575 l 73 552 l 85 552 l 96 598 l 85 610 l 73 610 m 511 425 q 557 333 541 425 l 557 321 l 546 321 l 511 425 z "},"O":{"ha":848,"x_min":21,"x_max":828,"o":"m 517 907 q 770 826 652 907 l 759 814 l 759 803 l 805 734 l 782 734 l 770 745 l 759 745 l 793 492 l 805 492 q 828 549 805 549 l 828 503 q 713 203 828 438 l 724 203 q 482 -4 643 92 l 425 -16 l 413 -16 q 67 203 139 -16 l 21 273 l 33 284 l 21 365 l 21 388 q 205 722 21 484 l 205 711 q 67 457 121 597 l 67 446 l 79 446 q 390 872 121 614 l 309 826 l 298 826 q 517 907 298 879 m 459 711 l 448 722 l 448 711 l 459 699 l 378 630 q 194 307 283 630 q 298 146 194 215 l 309 146 q 597 411 435 146 q 655 595 655 537 l 655 688 q 540 734 655 720 l 528 734 l 517 722 l 505 722 l 505 734 l 459 711 m 793 676 l 817 676 l 817 618 l 793 618 l 793 676 m 205 549 l 171 480 l 182 480 l 217 549 l 205 549 m 655 480 l 609 365 l 644 365 l 678 446 l 667 480 l 655 480 m 736 434 l 724 399 l 724 376 l 736 376 l 747 422 l 747 434 l 736 434 m 56 388 l 56 296 l 67 296 l 67 388 l 56 388 m 597 353 l 551 296 l 563 296 l 609 353 l 597 353 m 229 100 l 229 88 l 286 54 l 286 65 l 229 100 z "},"P":{"ha":689,"x_min":5,"x_max":685,"o":"m 139 950 l 150 939 l 150 927 l 161 939 l 219 939 q 241 881 242 939 l 252 881 q 277 916 254 916 q 298 881 300 916 l 380 892 l 503 869 l 549 881 q 685 789 637 881 l 673 708 l 684 696 l 684 685 l 659 616 l 647 616 l 648 639 l 636 639 q 384 339 547 422 l 197 258 l 191 62 l 200 5 q 138 -111 177 5 l 127 -122 l 115 -122 l 24 -76 l 39 16 l 6 62 l 35 224 l 23 235 l 65 454 l 54 466 l 66 477 l 89 477 l 87 431 l 99 431 l 101 489 l 91 524 l 114 524 l 115 581 l 93 604 l 92 558 l 80 558 q 15 673 83 631 l 5 743 l 7 789 q 159 869 159 850 l 160 881 l 138 904 l 126 892 l 115 939 l 127 950 l 139 950 m 239 500 l 262 500 q 523 708 411 563 l 488 708 q 256 639 257 692 l 239 500 m 533 662 q 238 466 496 597 l 227 454 l 227 443 l 250 443 q 545 662 420 495 l 533 662 m 64 420 l 64 408 l 75 397 l 63 385 l 62 362 l 85 362 l 87 420 l 64 420 z "},"Q":{"ha":822,"x_min":18,"x_max":802,"o":"m 490 913 l 502 913 l 513 901 l 525 913 l 536 913 q 802 613 802 791 l 802 532 q 640 94 802 287 l 640 71 q 755 -56 701 30 l 755 -67 q 652 -182 680 -182 q 502 -33 581 -182 l 421 -44 l 352 -44 l 283 -33 l 271 -33 l 271 -44 l 329 -56 l 329 -67 l 260 -79 q 18 210 18 43 q 202 717 18 543 l 202 728 q 375 878 325 878 l 375 867 l 387 855 l 490 901 l 490 913 m 467 786 l 502 774 l 594 798 l 594 809 l 548 809 l 536 798 l 525 798 l 525 809 l 536 821 l 536 832 l 513 832 q 467 786 475 821 m 571 774 l 559 763 l 559 751 l 629 740 l 629 763 l 571 774 m 179 290 l 179 267 q 248 117 179 169 l 283 117 q 421 198 349 117 l 375 313 l 387 325 l 410 325 l 410 302 l 421 313 l 433 313 l 513 290 q 629 613 629 471 l 629 671 q 536 728 600 728 q 260 509 430 728 q 179 290 179 359 m 744 625 q 709 325 744 465 l 709 313 l 721 313 l 767 555 l 755 625 l 744 625 m 652 613 q 606 406 652 547 q 663 578 663 425 l 663 613 l 652 613 m 594 348 q 525 244 525 276 q 606 348 562 260 l 594 348 m 606 163 l 606 152 l 617 152 l 698 267 l 698 279 q 606 163 640 233 m 41 221 l 52 152 l 64 152 l 64 210 l 52 221 l 41 221 m 133 106 l 133 94 q 260 -33 133 38 l 260 -21 q 144 106 155 45 l 133 106 z "},"R":{"ha":689,"x_min":12,"x_max":752,"o":"m 245 909 l 383 909 q 625 702 625 864 l 625 633 l 510 471 l 522 471 l 637 575 l 637 552 q 487 379 578 420 l 418 356 l 418 310 q 660 10 443 310 q 752 -82 706 -9 l 752 -94 l 694 -47 l 694 -59 q 752 -151 752 -120 l 741 -151 l 683 -186 l 671 -186 l 648 -151 l 637 -163 l 625 -163 q 302 218 395 26 l 245 333 q 199 195 204 333 q 187 54 206 79 q 176 -1 153 26 l 176 -24 l 141 -24 q 118 22 118 -24 l 106 22 q 63 -13 106 -24 l 12 55 l 26 160 l 26 206 l 95 529 l 106 529 l 106 483 l 118 483 l 176 725 q 153 679 153 725 l 141 679 l 141 702 l 72 702 l 72 713 q 141 748 72 736 l 141 760 l 118 760 l 49 736 l 37 736 q 83 760 37 760 l 83 771 q 37 806 37 771 l 245 909 m 256 494 l 268 494 q 522 679 449 581 l 522 702 q 383 783 522 741 l 314 760 l 256 494 m 487 783 q 533 725 510 730 l 533 748 l 487 783 m 556 713 l 545 656 l 556 656 l 568 667 l 568 713 l 556 713 m 130 679 l 141 679 l 141 644 l 130 598 l 118 598 l 118 633 l 130 679 m 522 633 l 464 552 l 475 552 l 533 621 l 533 633 l 522 633 m 637 610 l 660 610 l 648 575 l 637 575 l 637 610 m 106 575 l 118 575 l 118 529 l 106 529 l 106 575 m 83 425 l 83 379 l 95 379 l 95 425 l 83 425 m 429 79 l 429 68 l 475 22 q 429 79 453 74 m 487 -1 l 487 -13 l 533 -47 l 533 -36 l 487 -1 z "},"S":{"ha":669,"x_min":11,"x_max":683,"o":"m 370 920 q 564 897 401 897 l 564 886 l 483 886 l 482 874 q 663 805 627 874 l 661 782 l 604 782 l 603 770 l 683 759 l 682 747 l 613 747 l 612 736 q 646 713 647 736 q 279 563 440 713 l 278 551 q 631 286 501 492 l 631 275 q 395 -2 589 125 l 325 -14 l 324 -25 l 347 -25 q 136 -94 346 -56 l 137 -71 l 195 -71 l 196 -60 q 62 21 122 -60 q 11 122 11 47 q 12 136 11 129 l 47 159 l 81 136 l 104 136 q 439 344 429 187 q 259 413 303 413 l 258 401 l 145 448 l 156 436 l 155 413 q 15 574 12 519 l 105 736 l 165 782 l 164 759 l 370 920 m 213 609 l 212 597 l 416 724 l 509 747 l 511 770 l 488 770 q 213 609 305 703 m 277 136 l 288 136 l 313 159 l 301 159 l 277 136 m 484 136 l 435 79 l 446 79 l 496 136 l 484 136 m 340 44 l 340 33 l 351 33 l 399 67 l 340 44 m 209 -37 l 208 -48 l 254 -48 l 313 -37 l 313 -25 l 301 -25 l 209 -37 z "},"T":{"ha":623,"x_min":-57,"x_max":739,"o":"m 704 924 l 739 913 l 739 890 l 704 890 l 727 855 q 543 798 702 798 l 462 786 l 450 751 l 462 751 q 323 14 427 669 l 358 -136 l 347 -136 q 300 -21 321 -136 l 312 94 l 312 106 l 300 106 l 300 83 q 266 60 266 83 l 266 48 l 289 -136 l 289 -148 l 266 -148 l 220 -113 l 208 -125 l 197 -125 q 151 48 151 -25 l 162 37 l 174 37 l 151 117 l 185 129 l 185 186 l 162 186 l 162 198 q 197 221 197 198 l 197 233 l 174 233 q 208 325 174 325 l 208 475 q 254 717 227 491 l 174 705 l 12 717 l 12 728 l 70 740 l 70 728 l 81 740 l 254 740 l 254 774 l 70 751 l 58 763 l 47 763 l -22 751 l -57 774 l -45 832 l -57 844 q 81 901 -57 901 l 704 924 m 635 890 l 635 878 l 681 878 l 681 890 l 635 890 m 208 244 l 185 -9 l 208 -9 l 197 48 l 197 71 l 220 106 l 208 106 l 220 117 l 220 129 l 208 140 l 208 152 l 231 198 l 220 244 l 208 244 z "},"U":{"ha":709,"x_min":11,"x_max":703,"o":"m 195 902 l 218 867 l 207 810 l 218 798 l 230 798 l 241 856 l 264 856 l 276 821 q 184 302 184 489 q 230 176 195 176 l 495 475 l 507 533 l 507 856 l 530 879 q 553 833 553 879 l 564 833 q 622 879 564 879 l 645 833 l 633 775 q 656 833 656 775 l 680 833 l 691 821 l 703 821 l 645 -9 l 633 -55 q 587 -101 587 -55 l 541 -101 l 553 14 l 530 14 l 530 -55 l 495 -90 l 495 -78 l 507 37 q 472 83 472 37 l 460 83 l 264 -9 l 172 14 l 172 3 q 11 349 53 3 q 103 867 57 867 l 103 879 l 115 879 l 115 833 l 92 833 l 92 810 l 103 798 l 103 787 l 92 787 l 103 752 l 68 694 l 80 694 l 92 706 l 57 498 l 57 452 l 68 452 q 195 902 105 902 m 57 441 l 45 429 l 45 337 l 57 337 l 68 441 l 57 441 m 414 349 l 334 256 l 345 256 l 426 349 l 414 349 m 80 164 l 80 141 l 92 106 l 103 106 l 103 130 l 92 164 l 80 164 m 161 106 l 161 95 q 264 26 161 55 l 288 26 l 288 37 q 161 106 221 38 z "},"V":{"ha":706,"x_min":-8,"x_max":707,"o":"m -8 905 q 130 813 130 905 l 142 813 l 142 848 l 165 848 q 245 479 211 713 l 234 479 l 245 467 l 245 363 l 269 363 l 257 352 l 257 294 l 269 294 q 453 606 314 409 l 465 594 l 488 629 l 476 629 l 453 606 l 453 617 l 580 755 l 603 755 l 649 709 l 591 640 l 626 640 q 695 721 626 676 l 695 686 q 649 652 649 681 l 672 652 q 707 686 672 686 l 707 652 q 534 444 648 617 l 292 6 l 269 6 l 257 18 q 222 -28 222 18 l 199 -28 q 119 52 119 -28 l 130 87 l 107 64 l 107 29 l 119 18 l 119 6 l 107 -5 l 84 -5 l 73 52 l 84 87 l 73 87 l 84 98 l 84 168 q 3 802 70 802 l 15 836 l -8 905 m 545 767 l 545 755 l 499 709 l 488 709 q 545 767 515 760 m 465 686 l 465 675 l 361 536 l 361 548 q 465 686 387 613 m 557 617 l 522 559 l 534 559 l 568 606 l 568 617 l 557 617 m 96 559 l 96 502 l 107 502 l 107 559 l 96 559 m 326 502 l 338 502 l 338 467 l 326 456 l 315 456 l 315 467 l 326 502 m 107 467 l 107 340 l 119 340 l 119 467 l 107 467 m 315 456 l 315 444 l 280 398 l 280 410 l 315 456 m 338 225 l 338 214 l 372 248 l 372 260 l 338 225 m 280 133 l 292 121 l 303 121 l 326 191 q 280 133 302 185 z "},"W":{"ha":910,"x_min":13,"x_max":956,"o":"m 82 928 l 117 928 l 128 871 q 163 905 163 871 l 174 905 l 197 882 l 186 813 l 197 813 l 186 802 l 186 790 l 197 779 l 197 767 l 186 767 l 197 755 l 197 744 l 186 363 l 186 352 l 197 352 l 232 467 l 255 467 l 174 248 l 197 248 l 336 640 l 313 640 l 267 490 l 243 490 l 243 502 l 324 686 l 336 686 l 336 663 l 428 686 q 474 652 474 669 l 486 663 l 520 663 l 566 387 l 578 387 q 760 981 578 438 l 771 981 l 783 946 l 794 946 l 794 969 l 806 969 q 898 935 891 969 l 898 911 l 875 877 l 875 865 l 898 865 l 909 946 l 932 946 l 956 923 l 956 911 l 693 6 l 659 -5 l 659 18 l 647 6 l 635 6 l 624 18 q 589 -28 624 -28 q 497 6 497 -20 l 509 6 q 463 87 497 64 l 416 340 q 278 18 397 340 l 220 -40 l 209 -40 l 197 6 q 382 456 374 298 q 232 110 351 425 q 186 -28 218 110 l 82 -28 l 71 18 l 59 6 l 47 6 q 13 98 47 68 l 13 144 l 59 110 l 36 306 l 47 317 l 36 329 l 47 340 l 36 340 l 47 352 l 47 513 l 59 571 l 47 571 l 59 583 l 59 882 l 47 894 l 47 905 l 82 928 m 760 923 q 589 329 589 393 l 589 317 l 601 317 l 783 923 l 760 923 m 739 479 l 716 375 l 716 363 l 728 363 l 751 467 l 751 479 l 739 479 m 670 202 l 647 98 l 647 75 l 659 75 l 682 191 l 682 202 l 670 202 z "},"X":{"ha":793,"x_min":-12,"x_max":852,"o":"m 195 922 q 322 737 322 857 l 391 633 l 426 668 l 437 668 l 391 599 l 403 587 l 414 587 q 749 887 672 887 q 818 829 791 887 q 852 806 852 829 q 656 610 852 763 l 495 437 l 495 414 q 668 34 599 243 l 656 -1 l 668 -1 l 610 -81 l 576 -81 l 576 -58 l 541 -81 l 391 276 l 380 276 q 149 -116 268 140 l 126 -116 l 126 -93 l 138 -81 l 126 -70 l 126 -58 q 334 322 184 82 l 345 322 l 345 357 q 115 -47 115 38 l 68 -70 q -12 11 31 -70 q 264 495 -12 76 q 138 795 159 692 l 149 795 l 103 910 l 115 910 l 126 899 l 195 922 m 691 910 l 703 910 l 530 749 l 518 749 l 518 760 l 691 910 m 507 749 l 518 749 l 437 668 l 437 680 l 507 749 m 530 576 l 507 541 l 518 541 l 541 576 l 530 576 m 11 11 l 264 414 q 288 460 288 414 l 276 460 q 11 11 72 193 m 541 11 l 541 -1 l 553 -47 l 564 -47 l 564 -1 l 553 11 l 541 11 z "},"Y":{"ha":672,"x_min":1,"x_max":719,"o":"m 557 932 l 569 932 l 569 909 l 581 921 l 592 921 q 673 875 673 894 l 615 806 l 638 806 q 684 863 684 829 l 719 863 l 719 852 l 707 840 l 719 829 l 719 817 q 319 115 309 376 l 296 0 l 307 -12 l 307 -23 l 250 -127 l 157 -115 l 157 -23 l 123 22 l 123 45 l 134 184 l 146 172 l 157 172 l 146 184 l 146 195 l 157 207 l 157 218 l 146 230 l 180 241 l 169 184 l 169 138 l 180 138 l 194 277 l 182 311 l 171 311 l 171 277 l 159 277 l 148 369 l 159 380 l 159 392 l 1 797 l 1 820 l 24 820 l 1 878 l 12 889 l 35 889 q 70 831 62 889 l 104 854 l 139 854 q 263 553 139 783 q 378 703 330 680 l 378 692 q 263 519 263 545 l 263 507 l 275 507 l 546 875 l 546 886 l 413 749 l 413 761 l 557 932 m 413 749 l 413 738 l 390 715 l 390 726 l 413 749 m 569 760 q 321 392 321 441 l 344 392 q 581 760 444 584 l 569 760 m 192 -46 l 192 -92 l 203 -92 l 203 -46 l 192 -46 z "},"Z":{"ha":658,"x_min":9,"x_max":703,"o":"m 66 889 l 136 878 l 368 889 l 656 804 l 656 780 l 668 768 l 656 755 l 645 755 l 645 743 l 668 743 l 691 768 l 703 768 l 703 720 l 252 172 l 321 172 l 391 185 q 575 75 534 148 l 587 75 l 587 27 l 564 2 l 552 2 l 494 27 l 506 14 l 506 -9 l 414 14 l 379 14 q 78 -58 267 14 l 9 2 l 43 100 l 20 124 l 20 172 q 125 318 106 318 l 136 306 l 148 318 l 148 330 l 136 330 q 182 367 136 367 l 229 428 l 217 439 l 252 464 l 263 452 q 402 622 366 614 l 402 610 l 275 439 l 286 439 l 483 683 l 471 683 l 425 646 l 414 659 l 414 671 l 425 683 l 309 671 l 171 671 q 90 755 116 698 l 90 768 l 113 804 q 55 865 94 865 l 66 878 l 66 889 m 368 428 l 298 343 l 309 343 l 379 428 l 368 428 m 229 391 l 171 318 l 182 318 l 240 391 l 229 391 m 286 330 l 229 258 l 240 258 l 298 330 l 286 330 z "},"[":{"ha":386,"x_min":0,"x_max":0,"o":""},"\\":{"ha":386,"x_min":0,"x_max":0,"o":""},"]":{"ha":386,"x_min":0,"x_max":0,"o":""},"^":{"ha":677,"x_min":47,"x_max":562,"o":"m 190 529 l 172 529 l 174 546 l 194 579 l 202 571 l 210 571 l 190 529 m 562 654 l 530 596 l 528 571 l 538 579 l 547 579 l 554 571 l 552 546 l 543 546 l 535 554 l 527 554 l 508 537 l 491 537 l 467 554 l 466 546 q 401 587 420 554 q 339 763 371 587 l 220 587 l 212 579 l 203 579 l 203 587 l 325 796 l 308 796 q 147 537 173 537 l 123 554 l 123 546 q 47 610 90 546 l 149 746 l 170 785 l 169 780 q 263 963 212 823 q 303 1030 267 1012 l 312 1030 l 311 1022 l 302 1013 l 301 1005 l 309 997 l 290 980 l 288 955 l 305 955 q 346 1022 309 1001 l 355 1022 l 393 980 q 420 905 416 980 q 461 780 465 818 l 517 640 l 562 654 m 293 913 l 286 939 l 277 939 q 172 713 274 894 l 159 671 q 293 913 224 749 m 346 928 l 352 995 l 343 995 l 331 953 l 337 928 l 346 928 z "},"_":{"ha":380,"x_min":3,"x_max":374,"o":"m 178 -61 l 113 -68 l 105 -89 l 108 -106 l 173 -98 l 181 -92 l 178 -61 m 340 -9 l 351 3 l 347 43 l 31 43 l 19 33 l 24 -7 l 4 -30 l 3 -68 l 25 -70 l 146 -52 l 146 -54 l 169 -60 l 283 -44 l 293 -75 l 372 -58 l 374 -19 l 296 -9 l 340 -9 z "},"`":{"ha":399,"x_min":75,"x_max":311,"o":"m 166 1251 l 175 1251 q 209 1230 186 1251 q 302 1133 259 1199 l 311 1107 l 309 1105 l 307 1107 l 298 1107 l 300 1098 l 298 1086 q 307 1061 307 1069 l 306 1056 l 307 1045 l 304 1040 l 307 1025 l 307 1017 l 304 1017 l 290 1047 l 286 1047 l 286 1045 l 290 1033 l 288 1033 q 297 990 297 1002 l 297 989 q 284 980 297 986 l 279 981 l 271 980 l 265 980 q 219 1089 258 987 q 101 1207 175 1177 q 75 1223 87 1207 q 103 1244 75 1244 l 119 1248 l 133 1244 l 166 1251 z "},"a":{"ha":814,"x_min":-48,"x_max":782,"o":"m 459 956 q 551 922 467 922 l 644 518 l 724 518 l 724 507 l 655 495 l 655 484 q 690 460 690 484 l 782 460 l 782 449 q 667 403 782 423 l 690 334 l 678 299 l 690 230 l 678 218 l 690 218 l 678 207 l 690 68 l 690 -1 l 678 11 l 667 11 l 701 -162 l 678 -162 q 655 -127 678 -127 l 655 -139 l 667 -174 l 655 -174 l 644 -162 l 632 -162 q 609 -197 632 -197 l 551 -1 l 540 -1 l 540 -47 l 528 -47 l 505 92 l 540 68 l 540 80 q 505 184 530 184 l 517 195 l 517 230 l 494 230 l 494 195 l 482 195 l 482 241 l 494 253 l 482 253 l 471 241 l 471 288 l 482 288 l 494 276 l 505 276 l 494 288 l 494 357 l 240 299 l 240 276 l 321 299 l 367 288 l 425 299 l 425 276 q 182 161 182 233 q 113 -1 152 34 l 113 -24 l 79 -24 l 67 -12 l 56 -12 l 56 -24 l 21 -1 l 44 68 l 33 68 q -2 -24 -2 68 l -25 -1 l -14 68 l -48 103 l 148 576 l 159 576 q 182 541 159 541 l 194 599 l 182 587 l 171 587 l 171 633 l 182 691 l 194 680 l 205 680 l 194 691 l 194 703 l 217 749 l 229 749 l 240 737 l 252 737 l 252 749 q 217 772 252 772 l 275 933 l 321 933 l 309 922 l 309 910 q 459 956 389 956 m 390 691 l 298 449 l 321 449 q 448 518 436 449 l 401 691 l 390 691 m 286 622 l 263 541 l 252 553 l 240 553 l 252 507 l 263 507 l 298 610 l 298 622 l 286 622 m 159 518 l 148 507 l 148 484 l 159 484 l 171 518 l 159 518 m 229 472 l 217 426 l 229 426 l 240 437 l 240 472 l 229 472 m 125 460 l 113 414 l 125 414 l 148 460 l 125 460 m 321 426 l 321 414 l 344 414 q 448 449 448 426 l 436 449 l 321 426 m 482 172 l 505 172 l 505 103 l 494 103 l 482 172 m 644 92 l 644 68 l 655 22 l 667 22 l 667 45 l 655 92 l 644 92 m 528 57 l 528 34 l 563 45 l 563 68 l 528 57 z "},"b":{"ha":814,"x_min":7,"x_max":814,"o":"m 469 938 l 525 920 l 524 909 l 467 915 l 469 938 m 249 939 l 281 912 l 387 924 l 397 911 l 408 909 l 444 917 q 724 724 637 897 q 741 665 747 722 l 732 584 l 709 587 l 710 598 l 726 631 l 715 644 l 728 654 l 718 667 l 695 669 q 564 533 688 604 l 562 522 l 574 521 q 695 565 617 515 l 693 542 l 627 479 q 814 274 691 473 q 437 14 800 148 q 198 -53 282 -62 l 178 -26 l 166 -26 q 117 -55 163 -60 q 94 -87 113 -87 l 90 -87 q 76 -4 66 -84 l 64 -3 l 47 -59 l 35 -58 q 13 60 47 56 l 7 107 l 20 117 l 9 130 l 121 617 l 111 629 l 122 628 l 112 640 l 142 811 l 143 823 l 129 905 l 140 905 q 241 940 205 940 q 249 939 245 940 m 523 793 l 522 781 l 612 760 q 581 786 614 783 l 523 793 m 301 678 l 304 597 l 410 608 l 408 585 l 578 659 l 576 648 l 489 588 q 643 722 632 627 l 620 724 q 579 671 613 667 l 581 694 l 570 694 l 585 728 l 595 715 l 607 713 l 608 725 q 474 774 566 765 q 301 678 314 793 m 570 694 l 569 683 l 543 663 l 532 664 l 570 694 m 517 422 l 516 411 l 629 387 l 640 386 l 642 397 l 597 414 l 517 422 m 258 381 l 223 176 l 233 163 l 245 162 q 620 307 328 153 l 646 327 q 559 382 644 374 l 467 393 l 258 381 m 670 336 l 642 292 l 692 321 l 682 334 l 670 336 m 745 281 q 517 109 741 245 q 778 266 772 211 l 766 267 l 757 280 l 745 281 z "},"c":{"ha":694,"x_min":11,"x_max":680,"o":"m 414 888 l 426 888 q 680 749 593 888 l 680 738 l 656 738 l 668 726 l 668 715 q 599 738 599 723 q 195 461 330 738 l 172 380 l 207 161 l 241 161 q 564 369 385 161 l 576 369 l 576 357 q 299 150 453 180 l 299 138 l 311 138 q 610 346 431 138 l 645 300 l 645 265 q 472 92 645 228 l 460 81 l 449 81 l 449 58 q 645 196 645 153 l 668 196 l 668 184 q 334 12 523 12 l 334 0 l 391 0 l 437 12 l 449 12 l 449 0 l 311 -22 q 126 104 223 -22 l 126 92 l 184 0 l 184 -11 l 149 -11 q 22 173 42 62 l 11 323 q 126 692 11 612 l 126 680 l 57 565 l 57 553 l 68 553 q 357 865 68 663 l 322 853 l 311 853 l 311 865 l 414 888 m 288 842 l 299 842 l 299 830 l 218 795 q 288 842 218 819 m 184 761 l 184 749 l 126 692 l 126 703 l 184 761 m 45 208 l 45 173 l 57 127 l 68 127 l 68 138 l 57 208 l 45 208 z "},"d":{"ha":774,"x_min":9,"x_max":758,"o":"m 170 907 l 216 907 l 251 884 l 332 895 q 701 665 532 895 l 758 549 l 747 538 l 758 480 l 758 422 q 274 -27 758 126 l 159 -39 q 113 -4 159 -9 l 113 -50 l 78 -50 l 78 19 l 66 31 l 78 42 l 78 54 q 9 134 9 101 q 124 895 43 656 l 136 895 l 147 884 l 170 907 m 124 791 l 66 457 l 66 446 l 78 446 l 136 768 l 136 791 l 124 791 m 309 711 q 262 688 309 688 q 193 203 216 477 q 539 319 260 203 l 539 330 l 516 330 q 608 526 608 425 l 608 561 q 435 711 608 688 l 309 711 m 539 711 l 539 699 l 585 676 l 585 688 l 551 711 l 539 711 m 643 549 l 631 411 l 654 411 l 654 446 l 666 492 l 654 549 l 643 549 m 724 457 l 666 273 l 666 261 l 677 261 l 735 434 l 735 457 l 724 457 m 608 376 l 585 330 l 597 330 l 620 376 l 608 376 m 539 169 q 620 238 566 173 l 620 250 l 539 169 m 274 100 l 274 88 l 320 88 l 378 111 l 378 123 l 366 123 l 274 100 m 182 88 l 193 54 l 216 54 l 239 77 l 239 88 l 228 88 l 193 77 l 182 88 m 55 19 l 66 19 l 66 7 l 43 -16 l 32 -16 l 32 -4 l 55 19 z "},"e":{"ha":697,"x_min":0,"x_max":694,"o":"m 638 903 l 694 865 q 606 766 669 762 l 304 753 l 303 730 l 360 726 l 430 732 l 441 720 l 452 719 l 534 726 l 557 724 l 556 712 l 288 684 l 267 535 l 279 534 l 592 559 l 602 547 l 602 536 l 578 538 l 578 526 l 658 509 l 657 497 q 326 393 632 433 l 210 389 l 221 377 l 165 231 l 154 231 l 161 334 l 149 335 l 127 175 q 614 212 472 221 l 671 196 l 670 173 l 647 174 l 657 162 l 655 127 q 514 91 622 84 l 513 79 l 606 73 l 604 50 l 67 -28 l 56 -28 q 0 8 0 -16 l 0 10 l 2 45 l 34 170 l 23 182 l 46 181 l 42 123 l 54 122 q 81 178 60 180 l 70 191 l 78 305 l 55 307 l 39 250 l 52 261 l 64 260 l 59 191 l 47 193 l 50 227 l 38 227 l 37 204 l 25 205 l 26 228 l 63 422 l 52 423 l 78 479 l 67 491 l 68 503 l 93 697 l 104 685 l 115 684 l 117 707 l 109 766 l 127 869 l 130 903 l 141 902 l 152 890 l 164 901 l 176 899 l 186 888 l 199 899 l 233 896 l 638 903 m 61 399 l 56 319 l 67 318 l 73 398 l 61 399 m 441 385 l 453 385 l 452 373 l 243 352 l 232 365 l 233 376 l 337 380 l 336 369 l 441 385 z "},"f":{"ha":655,"x_min":5,"x_max":689,"o":"m 448 939 l 447 916 l 412 916 l 412 905 l 423 905 l 643 916 l 689 916 l 688 905 l 665 882 l 675 870 l 675 847 q 637 778 673 787 l 648 743 l 635 709 l 624 720 l 612 720 q 450 697 451 712 l 439 709 q 239 593 241 677 l 235 501 l 513 524 l 524 513 l 524 501 l 466 501 l 465 490 q 522 467 523 490 l 522 455 q 496 397 519 397 l 427 397 l 427 386 l 507 386 l 507 363 q 215 282 506 343 l 199 155 l 210 144 l 210 132 l 198 121 l 197 109 l 208 75 l 196 75 l 206 40 q 125 -139 210 -9 l 33 -127 l 49 -12 q 5 31 5 -12 l 5 34 q 47 397 22 63 l 70 397 l 59 409 l 74 501 l 85 490 l 96 490 l 113 605 l 115 651 q 57 674 57 651 l 81 709 q 37 743 35 709 q 75 847 41 847 q 135 905 133 847 l 146 905 l 157 893 l 182 916 l 216 916 l 250 882 l 448 939 m 480 882 l 479 870 l 514 870 l 642 882 l 642 893 l 572 893 l 480 882 m 372 755 l 372 743 l 383 743 l 614 766 l 614 778 l 581 789 l 568 778 l 557 778 l 546 789 l 372 755 m 66 294 l 61 167 l 73 167 l 77 294 l 66 294 m 83 -35 l 81 -81 l 92 -81 l 94 -35 l 83 -35 z "},"g":{"ha":833,"x_min":21,"x_max":942,"o":"m 492 884 l 502 873 l 513 873 l 515 884 q 696 746 705 836 l 711 677 l 688 677 q 669 723 692 723 l 658 723 l 664 665 l 662 654 l 639 654 q 620 688 616 654 l 607 677 l 595 677 q 485 723 538 723 q 217 481 370 723 l 180 354 q 307 135 163 201 l 304 112 l 281 112 l 279 100 l 302 100 q 544 308 385 100 l 545 319 l 534 319 q 366 158 442 209 l 355 158 l 498 308 l 417 308 q 385 331 420 331 l 375 342 l 376 354 q 495 389 378 377 l 498 412 l 485 400 l 416 400 l 355 481 l 368 492 l 369 504 l 495 492 l 798 527 l 800 538 q 745 562 742 538 l 756 562 l 766 550 l 779 562 l 791 562 q 911 504 913 526 l 910 492 l 897 481 l 896 469 l 942 469 l 939 446 l 928 446 l 741 423 l 740 412 l 751 412 l 857 423 l 854 400 q 728 308 739 400 l 673 123 l 684 112 l 683 100 l 665 43 l 667 -50 l 642 -73 l 651 -84 q 600 -142 604 -99 l 565 -142 q 553 -38 542 -142 l 541 -38 l 532 -119 l 498 -119 l 504 -61 l 501 20 l 478 20 q 346 -26 412 -26 l 288 -26 l 269 -3 l 269 8 l 292 8 l 294 20 q 35 181 54 20 q 21 330 21 256 q 26 423 21 376 l 28 446 q 111 677 39 534 l 123 677 l 120 654 l 77 573 l 76 562 l 87 562 q 312 827 99 667 l 323 827 l 325 838 l 313 838 l 277 827 q 492 884 311 884 m 254 815 l 265 815 l 176 734 l 177 746 l 254 815 m 423 792 l 422 781 l 503 781 l 504 792 l 423 792 m 176 734 l 174 723 l 123 677 l 124 688 l 176 734 m 686 550 l 732 550 l 706 527 l 686 550 m 343 158 l 355 158 l 330 135 l 318 135 l 343 158 m 399 43 l 497 89 l 500 112 l 488 112 l 399 43 m 315 8 l 315 -3 l 372 -3 l 373 8 l 315 8 z "},"h":{"ha":762,"x_min":14,"x_max":763,"o":"m 152 910 l 163 910 l 163 876 l 175 876 l 175 899 l 221 899 q 244 829 244 899 l 279 818 q 302 852 279 852 l 313 841 l 313 829 l 256 518 l 429 530 l 544 530 l 555 587 l 544 599 l 567 599 l 555 680 l 555 691 l 578 691 l 567 703 l 567 726 l 590 726 l 590 749 l 567 749 l 567 760 l 590 760 l 578 772 l 578 852 l 590 841 l 602 841 l 602 887 l 590 899 l 590 910 l 625 910 l 567 518 q 636 899 590 518 l 682 910 q 717 818 694 818 l 728 818 q 751 852 728 852 l 763 852 q 590 -81 705 454 l 578 -81 l 567 -70 l 578 -58 l 578 34 l 567 34 l 532 -81 l 498 -81 q 475 -12 475 -81 l 463 -12 l 463 -58 l 452 -58 q 429 -24 429 -58 q 498 368 429 60 l 486 368 l 336 357 l 233 368 q 163 -1 198 92 l 129 -1 q 106 92 106 -1 l 94 92 l 83 11 l 60 34 l 60 68 l 71 80 l 71 92 l 60 103 l 48 103 l 37 92 l 25 92 l 14 138 q 117 703 60 527 l 129 703 l 117 714 l 117 749 l 152 876 l 140 876 l 152 910 m 163 864 l 163 783 l 175 783 l 175 864 l 163 864 m 152 772 l 140 680 l 140 656 l 152 656 l 163 749 l 163 772 l 152 772 m 129 645 l 129 599 l 140 599 l 140 645 l 129 645 m 117 587 l 106 530 l 106 518 l 117 518 l 129 564 l 129 587 l 117 587 m 94 472 l 94 426 l 106 426 l 106 472 l 94 472 m 532 357 l 521 288 l 521 276 l 532 276 l 544 334 l 544 357 l 532 357 m 509 264 l 509 218 l 521 218 l 521 264 l 509 264 m 590 138 l 578 80 l 578 45 l 590 45 l 602 126 l 602 138 l 590 138 m 25 80 l 37 80 l 37 22 l 25 22 l 25 80 z "},"i":{"ha":326,"x_min":29,"x_max":326,"o":"m 261 899 q 304 865 258 865 l 326 819 l 313 807 l 325 807 q 224 242 242 563 l 220 173 l 231 161 l 231 150 l 218 138 l 230 138 l 218 127 l 224 46 l 223 23 q 159 -92 161 -52 l 113 -92 l 57 -69 l 73 12 l 29 58 l 50 231 l 62 438 l 87 473 l 90 519 l 79 530 l 79 542 l 102 542 l 103 553 l 92 565 l 139 784 l 127 784 l 140 795 l 143 865 l 132 876 l 133 888 l 261 899 m 134 692 l 130 611 l 141 611 l 145 692 l 134 692 m 116 576 l 112 507 l 123 507 l 127 576 l 116 576 m 98 473 l 95 404 l 106 404 l 110 473 l 98 473 m 96 12 l 93 -46 l 117 -23 l 119 12 l 96 12 z "},"j":{"ha":637,"x_min":2,"x_max":639,"o":"m 558 924 l 558 866 l 593 866 l 593 901 l 639 901 q 406 -43 528 -43 q 290 -101 406 -66 l 279 -90 l 267 -90 l 210 -101 l 198 -90 l 198 -101 q 83 3 83 -101 l 2 37 l 2 72 l 14 60 l 48 60 l 48 72 q 25 222 43 222 l 48 291 q 117 326 79 291 l 163 326 l 175 256 l 198 256 l 198 279 l 186 291 l 186 302 l 198 314 l 221 314 q 256 279 221 279 l 244 199 l 244 164 q 279 95 252 95 l 313 199 l 325 187 l 348 187 q 477 843 399 187 l 489 912 l 500 924 l 558 924 m 359 383 l 371 383 l 371 337 l 359 337 l 359 383 m 348 326 l 359 326 q 382 291 359 291 q 348 268 382 268 l 359 256 l 359 245 l 336 222 l 348 222 l 359 233 l 359 210 l 325 199 l 325 210 l 348 326 m 48 279 l 48 222 l 60 222 l 60 279 l 48 279 z "},"k":{"ha":748,"x_min":10,"x_max":809,"o":"m 671 940 l 682 928 l 682 917 l 671 905 l 659 917 l 648 917 l 544 848 l 532 848 q 671 940 532 878 m 221 917 l 233 813 q 267 882 256 813 l 279 882 l 290 836 l 256 652 l 382 744 l 394 744 l 256 617 l 256 606 l 521 802 l 532 790 q 740 917 688 917 l 751 917 l 763 871 l 671 779 l 682 779 q 751 825 705 825 l 763 813 l 763 825 l 751 836 l 763 848 l 798 848 l 809 813 q 406 513 722 772 q 682 52 484 343 l 682 29 l 671 -52 l 659 -40 l 648 -40 l 636 -86 l 590 -86 l 590 -63 l 578 -63 l 578 -86 l 555 -86 q 302 340 555 -45 l 279 410 l 221 398 q 149 52 206 121 l 149 41 l 33 52 l 33 87 l 45 168 q 10 237 10 168 q 48 352 29 352 l 37 363 q 106 744 71 681 l 94 779 l 129 871 l 129 882 l 117 894 l 117 905 l 140 905 l 140 825 l 152 825 l 163 859 l 152 871 l 152 882 q 221 917 163 917 m 521 848 l 532 848 l 486 802 l 475 802 l 521 848 m 129 790 l 117 721 l 117 675 l 129 675 l 140 779 l 140 790 l 129 790 m 463 802 l 475 802 l 406 744 l 394 744 l 463 802 m 613 755 l 567 721 l 555 709 l 555 698 l 567 698 l 613 732 l 625 744 l 625 755 l 613 755 m 417 98 l 429 98 l 463 64 l 452 64 l 417 98 m 463 64 q 521 -52 492 64 l 521 -63 l 509 -63 l 463 64 z "},"l":{"ha":720,"x_min":5,"x_max":777,"o":"m 178 910 q 201 841 201 910 l 224 841 l 258 864 l 270 852 l 212 207 q 604 288 286 241 l 616 288 l 616 276 q 212 172 212 210 l 339 207 l 339 195 l 558 241 l 558 230 l 570 241 l 581 241 l 593 230 l 650 241 l 696 241 l 777 230 l 777 218 q 604 161 777 184 l 604 149 l 616 161 l 627 161 l 708 149 l 720 161 l 720 126 l 339 34 l 97 -58 l 62 -58 l 16 -1 l 5 -1 l 5 11 q 51 45 5 40 l 51 80 l 16 126 l 62 645 l 74 645 l 74 599 l 62 518 l 85 518 l 62 368 l 74 357 l 62 311 l 62 253 l 74 253 l 120 864 q 143 899 143 864 l 155 910 l 178 910 z "},"m":{"ha":822,"x_min":-5,"x_max":819,"o":"m 611 920 l 634 920 l 632 897 l 605 850 l 595 862 l 583 862 l 611 920 m 184 908 l 207 908 l 239 885 l 240 897 q 328 839 302 885 q 410 597 368 839 l 570 839 l 582 850 l 593 850 l 593 839 l 429 551 l 452 551 q 668 908 633 908 l 701 885 l 701 897 q 819 781 751 897 l 815 747 l 803 735 l 813 724 l 809 677 l 786 677 l 803 608 l 781 481 l 777 447 l 788 435 l 787 424 l 762 401 l 783 378 l 758 355 l 779 332 l 766 320 l 755 320 l 766 309 l 737 -14 q 700 -49 703 -14 q 660 -106 665 -49 l 625 -106 l 560 -60 l 578 9 l 561 78 l 639 574 q 513 320 581 513 q 458 228 507 253 l 447 228 l 448 239 l 460 251 l 462 262 l 451 274 l 476 297 l 479 332 l 456 332 q 401 239 451 269 l 390 239 l 338 297 q 301 401 307 297 q 247 574 242 521 l 235 574 l 212 435 l 203 343 l 189 309 l 195 251 l 174 -3 q 147 -37 151 -3 l 85 -95 l 73 -95 l -5 -60 l 12 -3 l 12 124 l 16 182 l 28 193 l 18 205 l 20 216 q 87 597 35 393 l 99 597 l 88 608 l 90 620 l 105 666 l 97 712 l 98 724 l 110 724 l 108 701 l 119 701 l 123 735 l 112 747 l 154 827 l 157 862 l 144 850 l 132 850 l 122 862 l 125 897 l 136 897 l 147 885 l 159 885 l 184 908 m 473 389 l 481 355 l 493 355 q 635 666 498 416 l 652 724 q 473 389 566 616 m 678 631 l 666 620 l 640 332 l 652 332 l 685 574 l 674 585 l 686 585 l 675 597 l 676 608 l 689 620 l 690 631 l 678 631 m 603 32 l 595 -60 l 606 -60 l 623 -3 l 614 32 l 603 32 z "},"n":{"ha":870,"x_min":4,"x_max":863,"o":"m 235 898 l 315 829 q 338 863 315 863 l 350 863 l 511 448 l 511 425 l 500 425 l 477 494 l 465 494 l 465 471 l 546 275 l 557 275 q 690 901 604 575 l 725 878 l 760 890 l 829 855 l 829 844 q 794 798 794 844 l 806 798 l 817 786 l 829 786 l 840 844 l 863 844 l 863 832 l 852 821 l 863 809 l 863 798 q 707 33 777 531 l 684 33 l 707 218 q 638 -1 684 218 q 557 -36 595 -36 l 557 -59 l 546 -59 q 500 -36 546 -36 l 500 45 q 269 621 500 97 l 258 621 q 177 68 212 416 l 165 79 q 96 22 96 59 l 73 22 q 50 172 50 65 l 39 172 l 39 68 l 16 68 l 4 125 q 142 886 4 439 l 235 898 m 73 610 l 73 598 l 85 587 l 73 575 l 73 552 l 85 552 l 96 598 l 85 610 l 73 610 m 511 425 q 557 333 541 425 l 557 321 l 546 321 l 511 425 z "},"o":{"ha":848,"x_min":21,"x_max":828,"o":"m 517 907 q 770 826 652 907 l 759 814 l 759 803 l 805 734 l 782 734 l 770 745 l 759 745 l 793 492 l 805 492 q 828 549 805 549 l 828 503 q 713 203 828 438 l 724 203 q 482 -4 643 92 l 425 -16 l 413 -16 q 67 203 139 -16 l 21 273 l 33 284 l 21 365 l 21 388 q 205 722 21 484 l 205 711 q 67 457 121 597 l 67 446 l 79 446 q 390 872 121 614 l 309 826 l 298 826 q 517 907 298 879 m 459 711 l 448 722 l 448 711 l 459 699 l 378 630 q 194 307 283 630 q 298 146 194 215 l 309 146 q 597 411 435 146 q 655 595 655 537 l 655 688 q 540 734 655 720 l 528 734 l 517 722 l 505 722 l 505 734 l 459 711 m 793 676 l 817 676 l 817 618 l 793 618 l 793 676 m 205 549 l 171 480 l 182 480 l 217 549 l 205 549 m 655 480 l 609 365 l 644 365 l 678 446 l 667 480 l 655 480 m 736 434 l 724 399 l 724 376 l 736 376 l 747 422 l 747 434 l 736 434 m 56 388 l 56 296 l 67 296 l 67 388 l 56 388 m 597 353 l 551 296 l 563 296 l 609 353 l 597 353 m 229 100 l 229 88 l 286 54 l 286 65 l 229 100 z "},"p":{"ha":689,"x_min":5,"x_max":685,"o":"m 139 950 l 150 939 l 150 927 l 161 939 l 219 939 q 241 881 242 939 l 252 881 q 277 916 254 916 q 298 881 300 916 l 380 892 l 503 869 l 549 881 q 685 789 637 881 l 673 708 l 684 696 l 684 685 l 659 616 l 647 616 l 648 639 l 636 639 q 384 339 547 422 l 197 258 l 191 62 l 200 5 q 138 -111 177 5 l 127 -122 l 115 -122 l 24 -76 l 39 16 l 6 62 l 35 224 l 23 235 l 65 454 l 54 466 l 66 477 l 89 477 l 87 431 l 99 431 l 101 489 l 91 524 l 114 524 l 115 581 l 93 604 l 92 558 l 80 558 q 15 673 83 631 l 5 743 l 7 789 q 159 869 159 850 l 160 881 l 138 904 l 126 892 l 115 939 l 127 950 l 139 950 m 239 500 l 262 500 q 523 708 411 563 l 488 708 q 256 639 257 692 l 239 500 m 533 662 q 238 466 496 597 l 227 454 l 227 443 l 250 443 q 545 662 420 495 l 533 662 m 64 420 l 64 408 l 75 397 l 63 385 l 62 362 l 85 362 l 87 420 l 64 420 z "},"q":{"ha":822,"x_min":18,"x_max":802,"o":"m 490 913 l 502 913 l 513 901 l 525 913 l 536 913 q 802 613 802 791 l 802 532 q 640 94 802 287 l 640 71 q 755 -56 701 30 l 755 -67 q 652 -182 680 -182 q 502 -33 581 -182 l 421 -44 l 352 -44 l 283 -33 l 271 -33 l 271 -44 l 329 -56 l 329 -67 l 260 -79 q 18 210 18 43 q 202 717 18 543 l 202 728 q 375 878 325 878 l 375 867 l 387 855 l 490 901 l 490 913 m 467 786 l 502 774 l 594 798 l 594 809 l 548 809 l 536 798 l 525 798 l 525 809 l 536 821 l 536 832 l 513 832 q 467 786 475 821 m 571 774 l 559 763 l 559 751 l 629 740 l 629 763 l 571 774 m 179 290 l 179 267 q 248 117 179 169 l 283 117 q 421 198 349 117 l 375 313 l 387 325 l 410 325 l 410 302 l 421 313 l 433 313 l 513 290 q 629 613 629 471 l 629 671 q 536 728 600 728 q 260 509 430 728 q 179 290 179 359 m 744 625 q 709 325 744 465 l 709 313 l 721 313 l 767 555 l 755 625 l 744 625 m 652 613 q 606 406 652 547 q 663 578 663 425 l 663 613 l 652 613 m 594 348 q 525 244 525 276 q 606 348 562 260 l 594 348 m 606 163 l 606 152 l 617 152 l 698 267 l 698 279 q 606 163 640 233 m 41 221 l 52 152 l 64 152 l 64 210 l 52 221 l 41 221 m 133 106 l 133 94 q 260 -33 133 38 l 260 -21 q 144 106 155 45 l 133 106 z "},"r":{"ha":689,"x_min":12,"x_max":752,"o":"m 245 909 l 383 909 q 625 702 625 864 l 625 633 l 510 471 l 522 471 l 637 575 l 637 552 q 487 379 578 420 l 418 356 l 418 310 q 660 10 443 310 q 752 -82 706 -9 l 752 -94 l 694 -47 l 694 -59 q 752 -151 752 -120 l 741 -151 l 683 -186 l 671 -186 l 648 -151 l 637 -163 l 625 -163 q 302 218 395 26 l 245 333 q 199 195 204 333 q 187 54 206 79 q 176 -1 153 26 l 176 -24 l 141 -24 q 118 22 118 -24 l 106 22 q 63 -13 106 -24 l 12 55 l 26 160 l 26 206 l 95 529 l 106 529 l 106 483 l 118 483 l 176 725 q 153 679 153 725 l 141 679 l 141 702 l 72 702 l 72 713 q 141 748 72 736 l 141 760 l 118 760 l 49 736 l 37 736 q 83 760 37 760 l 83 771 q 37 806 37 771 l 245 909 m 256 494 l 268 494 q 522 679 449 581 l 522 702 q 383 783 522 741 l 314 760 l 256 494 m 487 783 q 533 725 510 730 l 533 748 l 487 783 m 556 713 l 545 656 l 556 656 l 568 667 l 568 713 l 556 713 m 130 679 l 141 679 l 141 644 l 130 598 l 118 598 l 118 633 l 130 679 m 522 633 l 464 552 l 475 552 l 533 621 l 533 633 l 522 633 m 637 610 l 660 610 l 648 575 l 637 575 l 637 610 m 106 575 l 118 575 l 118 529 l 106 529 l 106 575 m 83 425 l 83 379 l 95 379 l 95 425 l 83 425 m 429 79 l 429 68 l 475 22 q 429 79 453 74 m 487 -1 l 487 -13 l 533 -47 l 533 -36 l 487 -1 z "},"s":{"ha":669,"x_min":11,"x_max":683,"o":"m 370 920 q 564 897 401 897 l 564 886 l 483 886 l 482 874 q 663 805 627 874 l 661 782 l 604 782 l 603 770 l 683 759 l 682 747 l 613 747 l 612 736 q 646 713 647 736 q 279 563 440 713 l 278 551 q 631 286 501 492 l 631 275 q 395 -2 589 125 l 325 -14 l 324 -25 l 347 -25 q 136 -94 346 -56 l 137 -71 l 195 -71 l 196 -60 q 62 21 122 -60 q 11 122 11 47 q 12 136 11 129 l 47 159 l 81 136 l 104 136 q 439 344 429 187 q 259 413 303 413 l 258 401 l 145 448 l 156 436 l 155 413 q 15 574 12 519 l 105 736 l 165 782 l 164 759 l 370 920 m 213 609 l 212 597 l 416 724 l 509 747 l 511 770 l 488 770 q 213 609 305 703 m 277 136 l 288 136 l 313 159 l 301 159 l 277 136 m 484 136 l 435 79 l 446 79 l 496 136 l 484 136 m 340 44 l 340 33 l 351 33 l 399 67 l 340 44 m 209 -37 l 208 -48 l 254 -48 l 313 -37 l 313 -25 l 301 -25 l 209 -37 z "},"t":{"ha":623,"x_min":-57,"x_max":739,"o":"m 704 924 l 739 913 l 739 890 l 704 890 l 727 855 q 543 798 702 798 l 462 786 l 450 751 l 462 751 q 323 14 427 669 l 358 -136 l 347 -136 q 300 -21 321 -136 l 312 94 l 312 106 l 300 106 l 300 83 q 266 60 266 83 l 266 48 l 289 -136 l 289 -148 l 266 -148 l 220 -113 l 208 -125 l 197 -125 q 151 48 151 -25 l 162 37 l 174 37 l 151 117 l 185 129 l 185 186 l 162 186 l 162 198 q 197 221 197 198 l 197 233 l 174 233 q 208 325 174 325 l 208 475 q 254 717 227 491 l 174 705 l 12 717 l 12 728 l 70 740 l 70 728 l 81 740 l 254 740 l 254 774 l 70 751 l 58 763 l 47 763 l -22 751 l -57 774 l -45 832 l -57 844 q 81 901 -57 901 l 704 924 m 635 890 l 635 878 l 681 878 l 681 890 l 635 890 m 208 244 l 185 -9 l 208 -9 l 197 48 l 197 71 l 220 106 l 208 106 l 220 117 l 220 129 l 208 140 l 208 152 l 231 198 l 220 244 l 208 244 z "},"u":{"ha":709,"x_min":11,"x_max":703,"o":"m 195 902 l 218 867 l 207 810 l 218 798 l 230 798 l 241 856 l 264 856 l 276 821 q 184 302 184 489 q 230 176 195 176 l 495 475 l 507 533 l 507 856 l 530 879 q 553 833 553 879 l 564 833 q 622 879 564 879 l 645 833 l 633 775 q 656 833 656 775 l 680 833 l 691 821 l 703 821 l 645 -9 l 633 -55 q 587 -101 587 -55 l 541 -101 l 553 14 l 530 14 l 530 -55 l 495 -90 l 495 -78 l 507 37 q 472 83 472 37 l 460 83 l 264 -9 l 172 14 l 172 3 q 11 349 53 3 q 103 867 57 867 l 103 879 l 115 879 l 115 833 l 92 833 l 92 810 l 103 798 l 103 787 l 92 787 l 103 752 l 68 694 l 80 694 l 92 706 l 57 498 l 57 452 l 68 452 q 195 902 105 902 m 57 441 l 45 429 l 45 337 l 57 337 l 68 441 l 57 441 m 414 349 l 334 256 l 345 256 l 426 349 l 414 349 m 80 164 l 80 141 l 92 106 l 103 106 l 103 130 l 92 164 l 80 164 m 161 106 l 161 95 q 264 26 161 55 l 288 26 l 288 37 q 161 106 221 38 z "},"v":{"ha":706,"x_min":-8,"x_max":707,"o":"m -8 905 q 130 813 130 905 l 142 813 l 142 848 l 165 848 q 245 479 211 713 l 234 479 l 245 467 l 245 363 l 269 363 l 257 352 l 257 294 l 269 294 q 453 606 314 409 l 465 594 l 488 629 l 476 629 l 453 606 l 453 617 l 580 755 l 603 755 l 649 709 l 591 640 l 626 640 q 695 721 626 676 l 695 686 q 649 652 649 681 l 672 652 q 707 686 672 686 l 707 652 q 534 444 648 617 l 292 6 l 269 6 l 257 18 q 222 -28 222 18 l 199 -28 q 119 52 119 -28 l 130 87 l 107 64 l 107 29 l 119 18 l 119 6 l 107 -5 l 84 -5 l 73 52 l 84 87 l 73 87 l 84 98 l 84 168 q 3 802 70 802 l 15 836 l -8 905 m 545 767 l 545 755 l 499 709 l 488 709 q 545 767 515 760 m 465 686 l 465 675 l 361 536 l 361 548 q 465 686 387 613 m 557 617 l 522 559 l 534 559 l 568 606 l 568 617 l 557 617 m 96 559 l 96 502 l 107 502 l 107 559 l 96 559 m 326 502 l 338 502 l 338 467 l 326 456 l 315 456 l 315 467 l 326 502 m 107 467 l 107 340 l 119 340 l 119 467 l 107 467 m 315 456 l 315 444 l 280 398 l 280 410 l 315 456 m 338 225 l 338 214 l 372 248 l 372 260 l 338 225 m 280 133 l 292 121 l 303 121 l 326 191 q 280 133 302 185 z "},"w":{"ha":910,"x_min":13,"x_max":956,"o":"m 82 928 l 117 928 l 128 871 q 163 905 163 871 l 174 905 l 197 882 l 186 813 l 197 813 l 186 802 l 186 790 l 197 779 l 197 767 l 186 767 l 197 755 l 197 744 l 186 363 l 186 352 l 197 352 l 232 467 l 255 467 l 174 248 l 197 248 l 336 640 l 313 640 l 267 490 l 243 490 l 243 502 l 324 686 l 336 686 l 336 663 l 428 686 q 474 652 474 669 l 486 663 l 520 663 l 566 387 l 578 387 q 760 981 578 438 l 771 981 l 783 946 l 794 946 l 794 969 l 806 969 q 898 935 891 969 l 898 911 l 875 877 l 875 865 l 898 865 l 909 946 l 932 946 l 956 923 l 956 911 l 693 6 l 659 -5 l 659 18 l 647 6 l 635 6 l 624 18 q 589 -28 624 -28 q 497 6 497 -20 l 509 6 q 463 87 497 64 l 416 340 q 278 18 397 340 l 220 -40 l 209 -40 l 197 6 q 382 456 374 298 q 232 110 351 425 q 186 -28 218 110 l 82 -28 l 71 18 l 59 6 l 47 6 q 13 98 47 68 l 13 144 l 59 110 l 36 306 l 47 317 l 36 329 l 47 340 l 36 340 l 47 352 l 47 513 l 59 571 l 47 571 l 59 583 l 59 882 l 47 894 l 47 905 l 82 928 m 760 923 q 589 329 589 393 l 589 317 l 601 317 l 783 923 l 760 923 m 739 479 l 716 375 l 716 363 l 728 363 l 751 467 l 751 479 l 739 479 m 670 202 l 647 98 l 647 75 l 659 75 l 682 191 l 682 202 l 670 202 z "},"x":{"ha":793,"x_min":-12,"x_max":852,"o":"m 195 922 q 322 737 322 857 l 391 633 l 426 668 l 437 668 l 391 599 l 403 587 l 414 587 q 749 887 672 887 q 818 829 791 887 q 852 806 852 829 q 656 610 852 763 l 495 437 l 495 414 q 668 34 599 243 l 656 -1 l 668 -1 l 610 -81 l 576 -81 l 576 -58 l 541 -81 l 391 276 l 380 276 q 149 -116 268 140 l 126 -116 l 126 -93 l 138 -81 l 126 -70 l 126 -58 q 334 322 184 82 l 345 322 l 345 357 q 115 -47 115 38 l 68 -70 q -12 11 31 -70 q 264 495 -12 76 q 138 795 159 692 l 149 795 l 103 910 l 115 910 l 126 899 l 195 922 m 691 910 l 703 910 l 530 749 l 518 749 l 518 760 l 691 910 m 507 749 l 518 749 l 437 668 l 437 680 l 507 749 m 530 576 l 507 541 l 518 541 l 541 576 l 530 576 m 11 11 l 264 414 q 288 460 288 414 l 276 460 q 11 11 72 193 m 541 11 l 541 -1 l 553 -47 l 564 -47 l 564 -1 l 553 11 l 541 11 z "},"y":{"ha":672,"x_min":1,"x_max":719,"o":"m 557 932 l 569 932 l 569 909 l 581 921 l 592 921 q 673 875 673 894 l 615 806 l 638 806 q 684 863 684 829 l 719 863 l 719 852 l 707 840 l 719 829 l 719 817 q 319 115 309 376 l 296 0 l 307 -12 l 307 -23 l 250 -127 l 157 -115 l 157 -23 l 123 22 l 123 45 l 134 184 l 146 172 l 157 172 l 146 184 l 146 195 l 157 207 l 157 218 l 146 230 l 180 241 l 169 184 l 169 138 l 180 138 l 194 277 l 182 311 l 171 311 l 171 277 l 159 277 l 148 369 l 159 380 l 159 392 l 1 797 l 1 820 l 24 820 l 1 878 l 12 889 l 35 889 q 70 831 62 889 l 104 854 l 139 854 q 263 553 139 783 q 378 703 330 680 l 378 692 q 263 519 263 545 l 263 507 l 275 507 l 546 875 l 546 886 l 413 749 l 413 761 l 557 932 m 413 749 l 413 738 l 390 715 l 390 726 l 413 749 m 569 760 q 321 392 321 441 l 344 392 q 581 760 444 584 l 569 760 m 192 -46 l 192 -92 l 203 -92 l 203 -46 l 192 -46 z "},"z":{"ha":658,"x_min":9,"x_max":703,"o":"m 66 889 l 136 878 l 368 889 l 656 804 l 656 780 l 668 768 l 656 755 l 645 755 l 645 743 l 668 743 l 691 768 l 703 768 l 703 720 l 252 172 l 321 172 l 391 185 q 575 75 534 148 l 587 75 l 587 27 l 564 2 l 552 2 l 494 27 l 506 14 l 506 -9 l 414 14 l 379 14 q 78 -58 267 14 l 9 2 l 43 100 l 20 124 l 20 172 q 125 318 106 318 l 136 306 l 148 318 l 148 330 l 136 330 q 182 367 136 367 l 229 428 l 217 439 l 252 464 l 263 452 q 402 622 366 614 l 402 610 l 275 439 l 286 439 l 483 683 l 471 683 l 425 646 l 414 659 l 414 671 l 425 683 l 309 671 l 171 671 q 90 755 116 698 l 90 768 l 113 804 q 55 865 94 865 l 66 878 l 66 889 m 368 428 l 298 343 l 309 343 l 379 428 l 368 428 m 229 391 l 171 318 l 182 318 l 240 391 l 229 391 m 286 330 l 229 258 l 240 258 l 298 330 l 286 330 z "},"{":{"ha":464,"x_min":0,"x_max":0,"o":""},"|":{"ha":361,"x_min":0,"x_max":0,"o":""},"}":{"ha":464,"x_min":0,"x_max":0,"o":""},"~":{"ha":635,"x_min":27,"x_max":604,"o":"m 572 896 l 586 873 l 583 871 l 586 869 l 588 869 l 591 871 l 594 869 l 594 867 q 576 818 594 846 q 557 779 576 807 l 559 779 l 596 821 l 599 821 l 599 818 l 596 806 q 604 791 601 806 q 548 703 581 747 l 537 687 l 540 684 l 545 684 q 562 709 545 695 l 564 709 l 564 707 q 530 658 530 665 l 542 667 l 545 667 l 545 665 q 445 542 502 602 l 448 538 l 448 536 q 389 493 448 514 l 378 491 q 268 587 332 491 l 236 623 q 183 532 201 580 l 174 527 l 169 527 l 161 532 l 158 532 q 129 481 154 532 l 127 478 l 124 478 q 73 527 94 478 q 27 583 47 527 q 59 638 27 591 l 112 713 q 188 803 146 766 l 193 803 q 245 736 209 803 q 301 633 281 699 l 304 631 l 309 631 q 462 767 358 631 q 530 850 487 792 l 572 896 z "},"":{"ha":814,"x_min":-48,"x_max":782,"o":"m 459 956 q 551 922 467 922 l 644 518 l 724 518 l 724 507 l 655 495 l 655 484 q 690 460 690 484 l 782 460 l 782 449 q 667 403 782 423 l 690 334 l 678 299 l 690 230 l 678 218 l 690 218 l 678 207 l 690 68 l 690 -1 l 678 11 l 667 11 l 701 -162 l 678 -162 q 655 -127 678 -127 l 655 -139 l 667 -174 l 655 -174 l 644 -162 l 632 -162 q 609 -197 632 -197 l 551 -1 l 540 -1 l 540 -47 l 528 -47 l 505 92 l 540 68 l 540 80 q 505 184 530 184 l 517 195 l 517 230 l 494 230 l 494 195 l 482 195 l 482 241 l 494 253 l 482 253 l 471 241 l 471 288 l 482 288 l 494 276 l 505 276 l 494 288 l 494 357 l 240 299 l 240 276 l 321 299 l 367 288 l 425 299 l 425 276 q 182 161 182 233 q 113 -1 152 34 l 113 -24 l 79 -24 l 67 -12 l 56 -12 l 56 -24 l 21 -1 l 44 68 l 33 68 q -2 -24 -2 68 l -25 -1 l -14 68 l -48 103 l 148 576 l 159 576 q 182 541 159 541 l 194 599 l 182 587 l 171 587 l 171 633 l 182 691 l 194 680 l 205 680 l 194 691 l 194 703 l 217 749 l 229 749 l 240 737 l 252 737 l 252 749 q 217 772 252 772 l 275 933 l 321 933 l 309 922 l 309 910 q 459 956 389 956 m 390 691 l 298 449 l 321 449 q 448 518 436 449 l 401 691 l 390 691 m 286 622 l 263 541 l 252 553 l 240 553 l 252 507 l 263 507 l 298 610 l 298 622 l 286 622 m 159 518 l 148 507 l 148 484 l 159 484 l 171 518 l 159 518 m 229 472 l 217 426 l 229 426 l 240 437 l 240 472 l 229 472 m 125 460 l 113 414 l 125 414 l 148 460 l 125 460 m 321 426 l 321 414 l 344 414 q 448 449 448 426 l 436 449 l 321 426 m 482 172 l 505 172 l 505 103 l 494 103 l 482 172 m 644 92 l 644 68 l 655 22 l 667 22 l 667 45 l 655 92 l 644 92 m 528 57 l 528 34 l 563 45 l 563 68 l 528 57 m 583 1225 l 585 1223 l 596 1225 l 599 1225 l 621 1200 l 621 1193 q 572 1145 572 1151 l 574 1145 q 627 1178 607 1173 l 637 1156 l 631 1135 l 633 1137 l 637 1137 l 644 1131 l 644 1128 q 583 1055 642 1114 q 562 1013 566 1033 l 553 1006 l 551 1006 q 516 1028 541 1006 q 505 1050 509 1028 q 488 1065 494 1065 q 458 1120 458 1098 l 458 1122 q 572 1221 543 1211 l 583 1225 m 334 1223 q 360 1217 360 1221 l 358 1215 l 358 1213 q 377 1199 366 1213 l 377 1193 q 349 1177 371 1185 q 301 1143 308 1154 l 304 1143 q 388 1180 353 1180 l 397 1162 q 401 1147 399 1162 q 410 1128 410 1147 q 330 1063 338 1082 q 308 1021 321 1061 l 284 1015 q 247 1061 247 1038 q 241 1072 243 1061 q 203 1110 226 1072 l 201 1130 q 321 1221 254 1201 l 334 1223 z "},"":{"ha":814,"x_min":-48,"x_max":782,"o":"m 459 956 q 551 922 467 922 l 644 518 l 724 518 l 724 507 l 655 495 l 655 484 q 690 460 690 484 l 782 460 l 782 449 q 667 403 782 423 l 690 334 l 678 299 l 690 230 l 678 218 l 690 218 l 678 207 l 690 68 l 690 -1 l 678 11 l 667 11 l 701 -162 l 678 -162 q 655 -127 678 -127 l 655 -139 l 667 -174 l 655 -174 l 644 -162 l 632 -162 q 609 -197 632 -197 l 551 -1 l 540 -1 l 540 -47 l 528 -47 l 505 92 l 540 68 l 540 80 q 505 184 530 184 l 517 195 l 517 230 l 494 230 l 494 195 l 482 195 l 482 241 l 494 253 l 482 253 l 471 241 l 471 288 l 482 288 l 494 276 l 505 276 l 494 288 l 494 357 l 240 299 l 240 276 l 321 299 l 367 288 l 425 299 l 425 276 q 182 161 182 233 q 113 -1 152 34 l 113 -24 l 79 -24 l 67 -12 l 56 -12 l 56 -24 l 21 -1 l 44 68 l 33 68 q -2 -24 -2 68 l -25 -1 l -14 68 l -48 103 l 148 576 l 159 576 q 182 541 159 541 l 194 599 l 182 587 l 171 587 l 171 633 l 182 691 l 194 680 l 205 680 l 194 691 l 194 703 l 217 749 l 229 749 l 240 737 l 252 737 l 252 749 q 217 772 252 772 l 275 933 l 321 933 l 309 922 l 309 910 q 459 956 389 956 m 390 691 l 298 449 l 321 449 q 448 518 436 449 l 401 691 l 390 691 m 286 622 l 263 541 l 252 553 l 240 553 l 252 507 l 263 507 l 298 610 l 298 622 l 286 622 m 159 518 l 148 507 l 148 484 l 159 484 l 171 518 l 159 518 m 229 472 l 217 426 l 229 426 l 240 437 l 240 472 l 229 472 m 125 460 l 113 414 l 125 414 l 148 460 l 125 460 m 321 426 l 321 414 l 344 414 q 448 449 448 426 l 436 449 l 321 426 m 482 172 l 505 172 l 505 103 l 494 103 l 482 172 m 644 92 l 644 68 l 655 22 l 667 22 l 667 45 l 655 92 l 644 92 m 528 57 l 528 34 l 563 45 l 563 68 l 528 57 m 508 1254 q 541 1234 533 1254 l 544 1223 q 540 1215 544 1217 l 524 1217 l 505 1210 l 505 1208 l 508 1206 l 521 1210 q 526 1207 526 1209 l 530 1208 q 553 1195 553 1208 l 556 1192 q 552 1189 556 1189 l 551 1188 l 551 1185 q 572 1137 564 1160 q 584 1107 584 1120 l 583 1107 l 584 1106 l 584 1105 l 583 1100 l 584 1095 l 556 1044 q 512 994 548 1023 q 475 974 486 974 l 471 974 l 461 980 l 428 970 q 368 1013 401 970 q 329 1081 329 1064 l 328 1097 l 328 1110 q 358 1182 328 1137 q 442 1241 412 1232 l 468 1253 l 481 1249 l 508 1254 m 389 1055 l 393 1052 l 446 1064 l 452 1064 l 461 1063 q 505 1107 496 1086 q 530 1152 516 1123 l 530 1159 q 524 1173 526 1173 q 428 1126 437 1141 q 389 1055 395 1095 z "},"":{"ha":694,"x_min":11,"x_max":680,"o":"m 414 888 l 426 888 q 680 749 593 888 l 680 738 l 656 738 l 668 726 l 668 715 q 599 738 599 723 q 195 461 330 738 l 172 380 l 207 161 l 241 161 q 564 369 385 161 l 576 369 l 576 357 q 299 150 453 180 l 299 138 l 311 138 q 610 346 431 138 l 645 300 l 645 265 q 472 92 645 228 l 460 81 l 449 81 l 449 58 q 645 196 645 153 l 668 196 l 668 184 q 334 12 523 12 l 334 0 l 391 0 l 437 12 l 449 12 l 449 0 l 311 -22 q 126 104 223 -22 l 126 92 l 184 0 l 184 -11 l 149 -11 q 22 173 42 62 l 11 323 q 126 692 11 612 l 126 680 l 57 565 l 57 553 l 68 553 q 357 865 68 663 l 322 853 l 311 853 l 311 865 l 414 888 m 288 842 l 299 842 l 299 830 l 218 795 q 288 842 218 819 m 184 761 l 184 749 l 126 692 l 126 703 l 184 761 m 45 208 l 45 173 l 57 127 l 68 127 l 68 138 l 57 208 l 45 208 m 316 -42 l 320 -42 q 333 -61 324 -44 l 335 -61 q 345 -46 339 -60 l 354 -44 l 356 -46 l 356 -59 l 345 -83 l 345 -88 l 363 -92 l 399 -88 q 473 -140 473 -88 q 416 -229 473 -204 l 370 -264 q 328 -273 363 -270 l 319 -269 l 300 -275 l 279 -273 l 264 -273 l 250 -277 q 239 -271 239 -275 l 239 -262 q 300 -224 242 -256 q 348 -145 348 -201 l 348 -140 l 345 -136 l 314 -142 q 286 -132 286 -140 q 259 -138 273 -138 l 252 -138 q 229 -124 238 -138 q 245 -82 229 -113 q 273 -52 261 -52 l 276 -48 l 282 -48 l 288 -52 q 267 -104 288 -66 l 264 -109 l 267 -111 l 269 -111 q 309 -54 288 -111 l 316 -42 m 404 -119 l 404 -121 q 411 -140 404 -130 l 411 -149 l 414 -149 l 414 -128 q 404 -119 410 -119 m 404 -166 l 405 -172 l 399 -174 l 399 -180 l 401 -178 l 404 -178 l 409 -180 l 409 -178 q 413 -170 409 -170 l 414 -172 l 414 -157 l 411 -153 l 409 -153 q 404 -166 404 -153 m 399 -200 l 405 -195 l 405 -191 q 399 -200 401 -191 z "},"":{"ha":697,"x_min":0,"x_max":694,"o":"m 638 903 l 694 865 q 606 766 669 762 l 304 753 l 303 730 l 360 726 l 430 732 l 441 720 l 452 719 l 534 726 l 557 724 l 556 712 l 288 684 l 267 535 l 279 534 l 592 559 l 602 547 l 602 536 l 578 538 l 578 526 l 658 509 l 657 497 q 326 393 632 433 l 210 389 l 221 377 l 165 231 l 154 231 l 161 334 l 149 335 l 127 175 q 614 212 472 221 l 671 196 l 670 173 l 647 174 l 657 162 l 655 127 q 514 91 622 84 l 513 79 l 606 73 l 604 50 l 67 -28 l 56 -28 q 0 8 0 -16 l 0 10 l 2 45 l 34 170 l 23 182 l 46 181 l 42 123 l 54 122 q 81 178 60 180 l 70 191 l 78 305 l 55 307 l 39 250 l 52 261 l 64 260 l 59 191 l 47 193 l 50 227 l 38 227 l 37 204 l 25 205 l 26 228 l 63 422 l 52 423 l 78 479 l 67 491 l 68 503 l 93 697 l 104 685 l 115 684 l 117 707 l 109 766 l 127 869 l 130 903 l 141 902 l 152 890 l 164 901 l 176 899 l 186 888 l 199 899 l 233 896 l 638 903 m 61 399 l 56 319 l 67 318 l 73 398 l 61 399 m 441 385 l 453 385 l 452 373 l 243 352 l 232 365 l 233 376 l 337 380 l 336 369 l 441 385 m 532 1259 q 536 1249 536 1255 q 545 1239 543 1249 q 471 1162 545 1227 q 447 1135 471 1157 q 435 1114 435 1120 q 545 1215 520 1202 l 547 1215 l 545 1208 l 548 1205 q 528 1178 548 1195 l 536 1175 l 548 1183 l 549 1182 l 549 1179 q 543 1165 545 1175 q 458 1078 483 1109 q 403 992 408 1023 l 400 988 q 376 1007 376 991 l 371 1011 l 371 1014 l 372 1019 l 371 1019 q 347 1056 354 1019 q 403 1137 363 1096 q 508 1239 432 1173 l 532 1259 m 496 1143 l 496 1141 l 498 1141 l 508 1153 l 507 1153 l 496 1143 m 488 1136 l 488 1135 l 492 1137 l 492 1139 l 488 1136 m 476 1123 l 476 1121 l 481 1126 l 481 1127 l 476 1123 m 471 1120 l 470 1116 l 473 1116 l 473 1120 l 471 1120 m 420 1097 l 431 1108 l 429 1108 q 420 1097 420 1104 z "},"":{"ha":870,"x_min":4,"x_max":863,"o":"m 235 898 l 315 829 q 338 863 315 863 l 350 863 l 511 448 l 511 425 l 500 425 l 477 494 l 465 494 l 465 471 l 546 275 l 557 275 q 690 901 604 575 l 725 878 l 760 890 l 829 855 l 829 844 q 794 798 794 844 l 806 798 l 817 786 l 829 786 l 840 844 l 863 844 l 863 832 l 852 821 l 863 809 l 863 798 q 707 33 777 531 l 684 33 l 707 218 q 638 -1 684 218 q 557 -36 595 -36 l 557 -59 l 546 -59 q 500 -36 546 -36 l 500 45 q 269 621 500 97 l 258 621 q 177 68 212 416 l 165 79 q 96 22 96 59 l 73 22 q 50 172 50 65 l 39 172 l 39 68 l 16 68 l 4 125 q 142 886 4 439 l 235 898 m 73 610 l 73 598 l 85 587 l 73 575 l 73 552 l 85 552 l 96 598 l 85 610 l 73 610 m 511 425 q 557 333 541 425 l 557 321 l 546 321 l 511 425 m 701 1255 l 711 1240 l 710 1238 l 711 1237 l 713 1237 l 715 1238 l 717 1237 l 717 1235 q 705 1202 717 1221 q 691 1175 705 1194 l 692 1175 l 718 1203 l 720 1203 l 720 1202 l 718 1193 q 724 1183 722 1193 q 684 1122 708 1152 l 677 1110 l 679 1109 l 682 1109 q 694 1126 682 1116 l 696 1126 l 696 1124 q 672 1090 672 1095 l 681 1097 l 682 1097 l 682 1095 q 612 1009 652 1052 l 614 1008 l 614 1006 q 573 976 614 991 l 564 974 q 487 1042 532 974 l 465 1067 q 427 1002 441 1036 l 420 999 l 417 999 l 412 1002 l 410 1002 q 389 967 407 1002 l 388 966 l 386 966 q 350 999 364 966 q 317 1038 332 999 q 340 1077 317 1044 l 378 1129 q 431 1192 401 1166 l 434 1192 q 472 1144 446 1192 q 511 1074 496 1119 l 513 1072 l 516 1072 q 624 1166 551 1072 q 672 1223 642 1184 l 701 1255 z "},"":{"ha":848,"x_min":21,"x_max":828,"o":"m 517 907 q 770 826 652 907 l 759 814 l 759 803 l 805 734 l 782 734 l 770 745 l 759 745 l 793 492 l 805 492 q 828 549 805 549 l 828 503 q 713 203 828 438 l 724 203 q 482 -4 643 92 l 425 -16 l 413 -16 q 67 203 139 -16 l 21 273 l 33 284 l 21 365 l 21 388 q 205 722 21 484 l 205 711 q 67 457 121 597 l 67 446 l 79 446 q 390 872 121 614 l 309 826 l 298 826 q 517 907 298 879 m 459 711 l 448 722 l 448 711 l 459 699 l 378 630 q 194 307 283 630 q 298 146 194 215 l 309 146 q 597 411 435 146 q 655 595 655 537 l 655 688 q 540 734 655 720 l 528 734 l 517 722 l 505 722 l 505 734 l 459 711 m 793 676 l 817 676 l 817 618 l 793 618 l 793 676 m 205 549 l 171 480 l 182 480 l 217 549 l 205 549 m 655 480 l 609 365 l 644 365 l 678 446 l 667 480 l 655 480 m 736 434 l 724 399 l 724 376 l 736 376 l 747 422 l 747 434 l 736 434 m 56 388 l 56 296 l 67 296 l 67 388 l 56 388 m 597 353 l 551 296 l 563 296 l 609 353 l 597 353 m 229 100 l 229 88 l 286 54 l 286 65 l 229 100 m 753 1225 l 755 1223 l 766 1225 l 768 1225 l 789 1200 l 789 1193 q 742 1145 742 1151 l 744 1145 q 796 1178 777 1173 l 807 1156 l 800 1135 l 803 1137 l 807 1137 l 814 1131 l 814 1128 q 753 1055 811 1114 q 731 1013 736 1033 l 722 1006 l 720 1006 q 686 1028 711 1006 q 675 1050 678 1028 q 657 1065 664 1065 q 627 1120 627 1098 l 627 1122 q 742 1221 712 1211 l 753 1225 m 503 1223 q 530 1217 530 1221 l 527 1215 l 527 1213 q 547 1199 535 1213 l 547 1193 q 519 1177 541 1185 q 471 1143 477 1154 l 473 1143 q 557 1180 523 1180 l 566 1162 q 570 1147 569 1162 q 579 1128 579 1147 q 499 1063 507 1082 q 477 1021 490 1061 l 454 1015 q 416 1061 416 1038 q 410 1072 413 1061 q 373 1110 395 1072 l 371 1130 q 490 1221 423 1202 l 503 1223 z "},"":{"ha":709,"x_min":11,"x_max":703,"o":"m 195 902 l 218 867 l 207 810 l 218 798 l 230 798 l 241 856 l 264 856 l 276 821 q 184 302 184 489 q 230 176 195 176 l 495 475 l 507 533 l 507 856 l 530 879 q 553 833 553 879 l 564 833 q 622 879 564 879 l 645 833 l 633 775 q 656 833 656 775 l 680 833 l 691 821 l 703 821 l 645 -9 l 633 -55 q 587 -101 587 -55 l 541 -101 l 553 14 l 530 14 l 530 -55 l 495 -90 l 495 -78 l 507 37 q 472 83 472 37 l 460 83 l 264 -9 l 172 14 l 172 3 q 11 349 53 3 q 103 867 57 867 l 103 879 l 115 879 l 115 833 l 92 833 l 92 810 l 103 798 l 103 787 l 92 787 l 103 752 l 68 694 l 80 694 l 92 706 l 57 498 l 57 452 l 68 452 q 195 902 105 902 m 57 441 l 45 429 l 45 337 l 57 337 l 68 441 l 57 441 m 414 349 l 334 256 l 345 256 l 426 349 l 414 349 m 80 164 l 80 141 l 92 106 l 103 106 l 103 130 l 92 164 l 80 164 m 161 106 l 161 95 q 264 26 161 55 l 288 26 l 288 37 q 161 106 221 38 m 577 1225 l 579 1223 l 590 1225 l 593 1225 l 614 1200 l 614 1193 q 566 1145 566 1151 l 568 1145 q 621 1178 601 1173 l 631 1156 l 625 1135 l 627 1137 l 631 1137 l 638 1130 l 638 1128 q 577 1054 635 1113 q 555 1013 560 1033 l 547 1006 l 545 1006 q 510 1028 535 1006 q 499 1050 503 1028 q 481 1065 488 1065 q 452 1119 452 1098 l 452 1122 q 566 1221 536 1211 l 577 1225 m 328 1223 q 354 1217 354 1221 l 352 1215 l 352 1212 q 371 1199 359 1212 l 371 1193 q 343 1177 365 1185 q 295 1143 302 1154 l 298 1143 q 382 1179 347 1179 l 391 1162 q 395 1147 393 1162 q 404 1128 404 1147 q 323 1063 332 1082 q 302 1021 315 1061 l 278 1015 q 241 1060 241 1038 q 235 1071 237 1060 q 197 1110 220 1071 l 195 1130 q 315 1221 248 1201 l 328 1223 z "},"":{"ha":814,"x_min":-48,"x_max":782,"o":"m 459 956 q 551 922 467 922 l 644 518 l 724 518 l 724 507 l 655 495 l 655 484 q 690 460 690 484 l 782 460 l 782 449 q 667 403 782 423 l 690 334 l 678 299 l 690 230 l 678 218 l 690 218 l 678 207 l 690 68 l 690 -1 l 678 11 l 667 11 l 701 -162 l 678 -162 q 655 -127 678 -127 l 655 -139 l 667 -174 l 655 -174 l 644 -162 l 632 -162 q 609 -197 632 -197 l 551 -1 l 540 -1 l 540 -47 l 528 -47 l 505 92 l 540 68 l 540 80 q 505 184 530 184 l 517 195 l 517 230 l 494 230 l 494 195 l 482 195 l 482 241 l 494 253 l 482 253 l 471 241 l 471 288 l 482 288 l 494 276 l 505 276 l 494 288 l 494 357 l 240 299 l 240 276 l 321 299 l 367 288 l 425 299 l 425 276 q 182 161 182 233 q 113 -1 152 34 l 113 -24 l 79 -24 l 67 -12 l 56 -12 l 56 -24 l 21 -1 l 44 68 l 33 68 q -2 -24 -2 68 l -25 -1 l -14 68 l -48 103 l 148 576 l 159 576 q 182 541 159 541 l 194 599 l 182 587 l 171 587 l 171 633 l 182 691 l 194 680 l 205 680 l 194 691 l 194 703 l 217 749 l 229 749 l 240 737 l 252 737 l 252 749 q 217 772 252 772 l 275 933 l 321 933 l 309 922 l 309 910 q 459 956 389 956 m 390 691 l 298 449 l 321 449 q 448 518 436 449 l 401 691 l 390 691 m 286 622 l 263 541 l 252 553 l 240 553 l 252 507 l 263 507 l 298 610 l 298 622 l 286 622 m 159 518 l 148 507 l 148 484 l 159 484 l 171 518 l 159 518 m 229 472 l 217 426 l 229 426 l 240 437 l 240 472 l 229 472 m 125 460 l 113 414 l 125 414 l 148 460 l 125 460 m 321 426 l 321 414 l 344 414 q 448 449 448 426 l 436 449 l 321 426 m 482 172 l 505 172 l 505 103 l 494 103 l 482 172 m 644 92 l 644 68 l 655 22 l 667 22 l 667 45 l 655 92 l 644 92 m 528 57 l 528 34 l 563 45 l 563 68 l 528 57 m 570 1259 q 572 1249 572 1256 q 582 1239 580 1249 q 509 1162 582 1227 q 484 1135 509 1158 q 472 1114 472 1120 q 582 1215 557 1202 l 583 1215 l 582 1208 l 585 1205 q 565 1178 585 1195 l 572 1175 l 585 1183 l 586 1182 l 586 1179 q 580 1165 582 1175 q 494 1078 519 1109 q 439 992 444 1023 l 437 988 q 412 1007 412 991 l 408 1011 l 408 1014 l 409 1019 l 408 1019 q 383 1056 391 1019 q 439 1137 400 1096 q 545 1239 469 1173 l 570 1259 m 533 1143 l 533 1141 l 534 1141 l 545 1154 l 543 1154 l 533 1143 m 525 1136 l 525 1135 l 528 1137 l 528 1139 l 525 1136 m 513 1123 l 513 1121 l 517 1126 l 517 1127 l 513 1123 m 509 1120 l 507 1116 l 510 1116 l 510 1120 l 509 1120 m 456 1097 l 467 1108 l 466 1108 q 456 1097 456 1104 z "},"":{"ha":814,"x_min":-46,"x_max":784,"o":"m 461 956 q 553 922 469 922 l 646 518 l 726 518 l 726 507 l 657 495 l 657 484 q 692 460 692 484 l 784 460 l 784 449 q 669 403 784 423 l 692 334 l 680 299 l 692 230 l 680 218 l 692 218 l 680 207 l 692 68 l 692 -1 l 680 11 l 669 11 l 703 -162 l 680 -162 q 657 -127 680 -127 l 657 -139 l 669 -174 l 657 -174 l 646 -162 l 634 -162 q 611 -197 634 -197 l 553 -1 l 542 -1 l 542 -47 l 530 -47 l 507 92 l 542 68 l 542 80 q 507 184 532 184 l 519 195 l 519 230 l 496 230 l 496 195 l 484 195 l 484 241 l 496 253 l 484 253 l 473 241 l 473 288 l 484 288 l 496 276 l 507 276 l 496 288 l 496 357 l 242 299 l 242 276 l 323 299 l 369 288 l 427 299 l 427 276 q 184 161 184 233 q 115 -1 154 34 l 115 -24 l 81 -24 l 69 -12 l 58 -12 l 58 -24 l 23 -1 l 46 68 l 35 68 q 0 -24 0 68 l -23 -1 l -12 68 l -46 103 l 150 576 l 161 576 q 184 541 161 541 l 196 599 l 184 587 l 173 587 l 173 633 l 184 691 l 196 680 l 208 680 l 196 691 l 196 703 l 219 749 l 231 749 l 242 737 l 254 737 l 254 749 q 219 772 254 772 l 277 933 l 323 933 l 311 922 l 311 910 q 461 956 391 956 m 392 691 l 300 449 l 323 449 q 450 518 438 449 l 404 691 l 392 691 m 288 622 l 265 541 l 254 553 l 242 553 l 254 507 l 265 507 l 300 610 l 300 622 l 288 622 m 161 518 l 150 507 l 150 484 l 161 484 l 173 518 l 161 518 m 231 472 l 219 426 l 231 426 l 242 437 l 242 472 l 231 472 m 127 460 l 115 414 l 127 414 l 150 460 l 127 460 m 323 426 l 323 414 l 346 414 q 450 449 450 426 l 438 449 l 323 426 m 484 172 l 507 172 l 507 103 l 496 103 l 484 172 m 646 92 l 646 68 l 657 22 l 669 22 l 669 45 l 657 92 l 646 92 m 530 57 l 530 34 l 565 45 l 565 68 l 530 57 m 359 1251 l 368 1251 q 401 1230 379 1251 q 494 1133 452 1199 l 503 1107 l 502 1105 l 500 1107 l 491 1107 l 493 1098 l 491 1086 q 500 1061 500 1069 l 498 1056 l 500 1045 l 496 1040 l 500 1025 l 500 1017 l 496 1017 l 482 1047 l 479 1047 l 479 1045 l 482 1033 l 481 1033 q 490 990 490 1002 l 490 989 q 477 980 490 986 l 472 981 l 463 980 l 458 980 q 412 1089 450 987 q 294 1207 368 1177 q 267 1223 280 1207 q 296 1244 267 1244 l 311 1248 l 326 1244 l 359 1251 z "},"":{"ha":814,"x_min":-48,"x_max":782,"o":"m 459 956 q 551 922 467 922 l 644 518 l 724 518 l 724 507 l 655 495 l 655 484 q 690 460 690 484 l 782 460 l 782 449 q 667 403 782 423 l 690 334 l 678 299 l 690 230 l 678 218 l 690 218 l 678 207 l 690 68 l 690 -1 l 678 11 l 667 11 l 701 -162 l 678 -162 q 655 -127 678 -127 l 655 -139 l 667 -174 l 655 -174 l 644 -162 l 632 -162 q 609 -197 632 -197 l 551 -1 l 540 -1 l 540 -47 l 528 -47 l 505 92 l 540 68 l 540 80 q 505 184 530 184 l 517 195 l 517 230 l 494 230 l 494 195 l 482 195 l 482 241 l 494 253 l 482 253 l 471 241 l 471 288 l 482 288 l 494 276 l 505 276 l 494 288 l 494 357 l 240 299 l 240 276 l 321 299 l 367 288 l 425 299 l 425 276 q 182 161 182 233 q 113 -1 152 34 l 113 -24 l 79 -24 l 67 -12 l 56 -12 l 56 -24 l 21 -1 l 44 68 l 33 68 q -2 -24 -2 68 l -25 -1 l -14 68 l -48 103 l 148 576 l 159 576 q 182 541 159 541 l 194 599 l 182 587 l 171 587 l 171 633 l 182 691 l 194 680 l 205 680 l 194 691 l 194 703 l 217 749 l 229 749 l 240 737 l 252 737 l 252 749 q 217 772 252 772 l 275 933 l 321 933 l 309 922 l 309 910 q 459 956 389 956 m 390 691 l 298 449 l 321 449 q 448 518 436 449 l 401 691 l 390 691 m 286 622 l 263 541 l 252 553 l 240 553 l 252 507 l 263 507 l 298 610 l 298 622 l 286 622 m 159 518 l 148 507 l 148 484 l 159 484 l 171 518 l 159 518 m 229 472 l 217 426 l 229 426 l 240 437 l 240 472 l 229 472 m 125 460 l 113 414 l 125 414 l 148 460 l 125 460 m 321 426 l 321 414 l 344 414 q 448 449 448 426 l 436 449 l 321 426 m 482 172 l 505 172 l 505 103 l 494 103 l 482 172 m 644 92 l 644 68 l 655 22 l 667 22 l 667 45 l 655 92 l 644 92 m 528 57 l 528 34 l 563 45 l 563 68 l 528 57 m 567 1249 q 608 1106 600 1249 l 608 1072 q 581 1027 608 1027 q 569 1023 581 1023 l 553 1023 q 546 1044 547 1023 l 544 1046 l 539 1046 q 528 1025 539 1031 l 521 1027 q 498 1012 511 1012 l 495 1012 q 475 1016 490 1016 q 460 1032 460 1019 l 460 1044 l 452 1113 l 447 1113 q 396 1062 447 1095 q 327 998 359 998 l 325 998 l 309 1002 l 309 1000 q 276 986 309 989 q 258 1009 258 998 l 258 1012 q 368 1164 265 1044 q 484 1228 437 1228 l 493 1226 q 567 1249 533 1249 z "},"":{"ha":814,"x_min":-48,"x_max":782,"o":"m 459 956 q 551 922 467 922 l 644 518 l 724 518 l 724 507 l 655 495 l 655 484 q 690 460 690 484 l 782 460 l 782 449 q 667 403 782 423 l 690 334 l 678 299 l 690 230 l 678 218 l 690 218 l 678 207 l 690 68 l 690 -1 l 678 11 l 667 11 l 701 -162 l 678 -162 q 655 -127 678 -127 l 655 -139 l 667 -174 l 655 -174 l 644 -162 l 632 -162 q 609 -197 632 -197 l 551 -1 l 540 -1 l 540 -47 l 528 -47 l 505 92 l 540 68 l 540 80 q 505 184 530 184 l 517 195 l 517 230 l 494 230 l 494 195 l 482 195 l 482 241 l 494 253 l 482 253 l 471 241 l 471 288 l 482 288 l 494 276 l 505 276 l 494 288 l 494 357 l 240 299 l 240 276 l 321 299 l 367 288 l 425 299 l 425 276 q 182 161 182 233 q 113 -1 152 34 l 113 -24 l 79 -24 l 67 -12 l 56 -12 l 56 -24 l 21 -1 l 44 68 l 33 68 q -2 -24 -2 68 l -25 -1 l -14 68 l -48 103 l 148 576 l 159 576 q 182 541 159 541 l 194 599 l 182 587 l 171 587 l 171 633 l 182 691 l 194 680 l 205 680 l 194 691 l 194 703 l 217 749 l 229 749 l 240 737 l 252 737 l 252 749 q 217 772 252 772 l 275 933 l 321 933 l 309 922 l 309 910 q 459 956 389 956 m 390 691 l 298 449 l 321 449 q 448 518 436 449 l 401 691 l 390 691 m 286 622 l 263 541 l 252 553 l 240 553 l 252 507 l 263 507 l 298 610 l 298 622 l 286 622 m 159 518 l 148 507 l 148 484 l 159 484 l 171 518 l 159 518 m 229 472 l 217 426 l 229 426 l 240 437 l 240 472 l 229 472 m 125 460 l 113 414 l 125 414 l 148 460 l 125 460 m 321 426 l 321 414 l 344 414 q 448 449 448 426 l 436 449 l 321 426 m 482 172 l 505 172 l 505 103 l 494 103 l 482 172 m 644 92 l 644 68 l 655 22 l 667 22 l 667 45 l 655 92 l 644 92 m 528 57 l 528 34 l 563 45 l 563 68 l 528 57 m 583 1225 l 585 1223 l 596 1225 l 598 1225 l 620 1200 l 620 1193 q 572 1145 572 1151 l 574 1145 q 627 1178 607 1173 l 637 1156 l 631 1135 l 633 1137 l 637 1137 l 644 1130 l 644 1128 q 583 1054 642 1113 q 562 1013 566 1032 l 553 1006 l 551 1006 q 516 1028 541 1006 q 505 1050 509 1028 q 488 1065 494 1065 q 457 1119 457 1098 l 457 1121 q 572 1221 543 1211 l 583 1225 m 334 1223 q 360 1217 360 1221 l 357 1214 l 357 1212 q 377 1199 366 1212 l 377 1192 q 349 1177 371 1185 q 301 1143 307 1154 l 303 1143 q 388 1179 353 1179 l 397 1162 q 401 1147 399 1162 q 410 1127 410 1147 q 330 1062 338 1082 q 308 1021 321 1061 l 284 1015 q 247 1060 247 1038 q 241 1071 243 1060 q 203 1110 226 1071 l 201 1130 q 321 1221 254 1201 l 334 1223 z "},"":{"ha":814,"x_min":-48,"x_max":782,"o":"m 459 956 q 551 922 467 922 l 644 518 l 724 518 l 724 507 l 655 495 l 655 484 q 690 460 690 484 l 782 460 l 782 449 q 667 403 782 423 l 690 334 l 678 299 l 690 230 l 678 218 l 690 218 l 678 207 l 690 68 l 690 -1 l 678 11 l 667 11 l 701 -162 l 678 -162 q 655 -127 678 -127 l 655 -139 l 667 -174 l 655 -174 l 644 -162 l 632 -162 q 609 -197 632 -197 l 551 -1 l 540 -1 l 540 -47 l 528 -47 l 505 92 l 540 68 l 540 80 q 505 184 530 184 l 517 195 l 517 230 l 494 230 l 494 195 l 482 195 l 482 241 l 494 253 l 482 253 l 471 241 l 471 288 l 482 288 l 494 276 l 505 276 l 494 288 l 494 357 l 240 299 l 240 276 l 321 299 l 367 288 l 425 299 l 425 276 q 182 161 182 233 q 113 -1 152 34 l 113 -24 l 79 -24 l 67 -12 l 56 -12 l 56 -24 l 21 -1 l 44 68 l 33 68 q -2 -24 -2 68 l -25 -1 l -14 68 l -48 103 l 148 576 l 159 576 q 182 541 159 541 l 194 599 l 182 587 l 171 587 l 171 633 l 182 691 l 194 680 l 205 680 l 194 691 l 194 703 l 217 749 l 229 749 l 240 737 l 252 737 l 252 749 q 217 772 252 772 l 275 933 l 321 933 l 309 922 l 309 910 q 459 956 389 956 m 390 691 l 298 449 l 321 449 q 448 518 436 449 l 401 691 l 390 691 m 286 622 l 263 541 l 252 553 l 240 553 l 252 507 l 263 507 l 298 610 l 298 622 l 286 622 m 159 518 l 148 507 l 148 484 l 159 484 l 171 518 l 159 518 m 229 472 l 217 426 l 229 426 l 240 437 l 240 472 l 229 472 m 125 460 l 113 414 l 125 414 l 148 460 l 125 460 m 321 426 l 321 414 l 344 414 q 448 449 448 426 l 436 449 l 321 426 m 482 172 l 505 172 l 505 103 l 494 103 l 482 172 m 644 92 l 644 68 l 655 22 l 667 22 l 667 45 l 655 92 l 644 92 m 528 57 l 528 34 l 563 45 l 563 68 l 528 57 m 644 1255 l 654 1240 l 652 1238 l 654 1236 l 655 1236 l 657 1238 l 659 1236 l 659 1235 q 647 1201 659 1221 q 633 1174 647 1194 l 635 1174 l 661 1203 l 663 1203 l 663 1201 l 661 1193 q 666 1183 664 1193 q 627 1122 650 1152 l 619 1110 l 621 1108 l 625 1108 q 637 1125 625 1116 l 638 1125 l 638 1124 q 614 1090 614 1095 l 623 1097 l 625 1097 l 625 1095 q 554 1009 594 1051 l 556 1007 l 556 1006 q 515 975 556 990 l 507 974 q 429 1041 475 974 l 407 1066 q 370 1002 382 1036 l 363 999 l 359 999 l 354 1002 l 352 1002 q 332 967 349 1002 l 330 965 l 328 965 q 292 999 307 965 q 260 1038 274 999 q 282 1076 260 1044 l 319 1128 q 373 1191 343 1165 l 376 1191 q 414 1144 388 1191 q 453 1073 439 1118 l 455 1072 l 458 1072 q 566 1166 493 1072 q 614 1223 584 1183 l 644 1255 z "},"":{"ha":814,"x_min":-48,"x_max":782,"o":"m 459 956 q 551 922 467 922 l 644 518 l 724 518 l 724 507 l 655 495 l 655 484 q 690 460 690 484 l 782 460 l 782 449 q 667 403 782 423 l 690 334 l 678 299 l 690 230 l 678 218 l 690 218 l 678 207 l 690 68 l 690 -1 l 678 11 l 667 11 l 701 -162 l 678 -162 q 655 -127 678 -127 l 655 -139 l 667 -174 l 655 -174 l 644 -162 l 632 -162 q 609 -197 632 -197 l 551 -1 l 540 -1 l 540 -47 l 528 -47 l 505 92 l 540 68 l 540 80 q 505 184 530 184 l 517 195 l 517 230 l 494 230 l 494 195 l 482 195 l 482 241 l 494 253 l 482 253 l 471 241 l 471 288 l 482 288 l 494 276 l 505 276 l 494 288 l 494 357 l 240 299 l 240 276 l 321 299 l 367 288 l 425 299 l 425 276 q 182 161 182 233 q 113 -1 152 34 l 113 -24 l 79 -24 l 67 -12 l 56 -12 l 56 -24 l 21 -1 l 44 68 l 33 68 q -2 -24 -2 68 l -25 -1 l -14 68 l -48 103 l 148 576 l 159 576 q 182 541 159 541 l 194 599 l 182 587 l 171 587 l 171 633 l 182 691 l 194 680 l 205 680 l 194 691 l 194 703 l 217 749 l 229 749 l 240 737 l 252 737 l 252 749 q 217 772 252 772 l 275 933 l 321 933 l 309 922 l 309 910 q 459 956 389 956 m 390 691 l 298 449 l 321 449 q 448 518 436 449 l 401 691 l 390 691 m 286 622 l 263 541 l 252 553 l 240 553 l 252 507 l 263 507 l 298 610 l 298 622 l 286 622 m 159 518 l 148 507 l 148 484 l 159 484 l 171 518 l 159 518 m 229 472 l 217 426 l 229 426 l 240 437 l 240 472 l 229 472 m 125 460 l 113 414 l 125 414 l 148 460 l 125 460 m 321 426 l 321 414 l 344 414 q 448 449 448 426 l 436 449 l 321 426 m 482 172 l 505 172 l 505 103 l 494 103 l 482 172 m 644 92 l 644 68 l 655 22 l 667 22 l 667 45 l 655 92 l 644 92 m 528 57 l 528 34 l 563 45 l 563 68 l 528 57 m 508 1254 q 541 1234 534 1254 l 544 1223 q 540 1215 544 1217 l 524 1217 l 505 1210 l 505 1208 l 508 1206 l 521 1210 q 526 1207 526 1209 l 530 1208 q 554 1195 554 1208 l 557 1192 q 553 1189 557 1189 l 551 1188 l 551 1185 q 572 1137 564 1160 q 584 1107 584 1120 l 583 1107 l 584 1106 l 584 1105 l 583 1100 l 584 1095 l 557 1044 q 513 994 548 1023 q 475 974 486 974 l 471 974 l 461 980 l 428 970 q 368 1013 401 970 q 329 1081 329 1064 l 328 1097 l 328 1110 q 358 1182 328 1137 q 442 1241 412 1232 l 468 1253 l 481 1249 l 508 1254 m 390 1055 l 394 1052 l 446 1064 l 452 1064 l 461 1063 q 505 1107 496 1086 q 530 1152 517 1123 l 530 1159 q 524 1173 526 1173 q 428 1126 438 1141 q 390 1055 395 1095 z "},"":{"ha":694,"x_min":11,"x_max":680,"o":"m 414 888 l 426 888 q 680 749 593 888 l 680 738 l 656 738 l 668 726 l 668 715 q 599 738 599 723 q 195 461 330 738 l 172 380 l 207 161 l 241 161 q 564 369 385 161 l 576 369 l 576 357 q 299 150 453 180 l 299 138 l 311 138 q 610 346 431 138 l 645 300 l 645 265 q 472 92 645 228 l 460 81 l 449 81 l 449 58 q 645 196 645 153 l 668 196 l 668 184 q 334 12 523 12 l 334 0 l 391 0 l 437 12 l 449 12 l 449 0 l 311 -22 q 126 104 223 -22 l 126 92 l 184 0 l 184 -11 l 149 -11 q 22 173 42 62 l 11 323 q 126 692 11 612 l 126 680 l 57 565 l 57 553 l 68 553 q 357 865 68 663 l 322 853 l 311 853 l 311 865 l 414 888 m 288 842 l 299 842 l 299 830 l 218 795 q 288 842 218 819 m 184 761 l 184 749 l 126 692 l 126 703 l 184 761 m 45 208 l 45 173 l 57 127 l 68 127 l 68 138 l 57 208 l 45 208 m 316 -42 l 320 -42 q 333 -61 324 -44 l 335 -61 q 345 -46 340 -60 l 354 -44 l 356 -46 l 356 -59 l 345 -83 l 345 -88 l 363 -92 l 399 -88 q 473 -140 473 -88 q 416 -229 473 -203 l 370 -263 q 328 -273 363 -269 l 319 -269 l 300 -275 l 279 -273 l 264 -273 l 250 -277 q 239 -271 239 -275 l 239 -262 q 300 -224 242 -256 q 348 -145 348 -201 l 348 -140 l 345 -136 l 314 -141 q 286 -132 286 -140 q 259 -138 273 -138 l 252 -138 q 229 -124 238 -138 q 245 -82 229 -112 q 273 -52 261 -52 l 276 -47 l 282 -47 l 288 -52 q 267 -103 288 -66 l 264 -109 l 267 -111 l 269 -111 q 309 -54 288 -111 l 316 -42 m 404 -119 l 404 -121 q 411 -140 404 -129 l 411 -149 l 414 -149 l 414 -128 q 404 -119 410 -119 m 404 -166 l 405 -172 l 399 -174 l 399 -179 l 401 -178 l 404 -178 l 409 -179 l 409 -178 q 413 -170 409 -170 l 414 -172 l 414 -157 l 411 -153 l 409 -153 q 404 -166 404 -153 m 399 -200 l 405 -195 l 405 -191 q 399 -200 401 -191 z "},"":{"ha":697,"x_min":0,"x_max":694,"o":"m 638 903 l 694 865 q 606 766 669 762 l 304 753 l 303 730 l 360 726 l 430 732 l 441 720 l 452 719 l 534 726 l 557 724 l 556 712 l 288 684 l 267 535 l 279 534 l 592 559 l 602 547 l 602 536 l 578 538 l 578 526 l 658 509 l 657 497 q 326 393 632 433 l 210 389 l 221 377 l 165 231 l 154 231 l 161 334 l 149 335 l 127 175 q 614 212 472 221 l 671 196 l 670 173 l 647 174 l 657 162 l 655 127 q 514 91 622 84 l 513 79 l 606 73 l 604 50 l 67 -28 l 56 -28 q 0 8 0 -16 l 0 10 l 2 45 l 34 170 l 23 182 l 46 181 l 42 123 l 54 122 q 81 178 60 180 l 70 191 l 78 305 l 55 307 l 39 250 l 52 261 l 64 260 l 59 191 l 47 193 l 50 227 l 38 227 l 37 204 l 25 205 l 26 228 l 63 422 l 52 423 l 78 479 l 67 491 l 68 503 l 93 697 l 104 685 l 115 684 l 117 707 l 109 766 l 127 869 l 130 903 l 141 902 l 152 890 l 164 901 l 176 899 l 186 888 l 199 899 l 233 896 l 638 903 m 61 399 l 56 319 l 67 318 l 73 398 l 61 399 m 441 385 l 453 385 l 452 373 l 243 352 l 232 365 l 233 376 l 337 380 l 336 369 l 441 385 m 533 1259 q 536 1249 536 1256 q 545 1239 543 1249 q 472 1162 545 1227 q 448 1135 472 1158 q 435 1114 435 1120 q 545 1215 520 1202 l 547 1215 l 545 1208 l 548 1205 q 528 1178 548 1195 l 536 1175 l 548 1183 l 549 1182 l 549 1179 q 543 1165 545 1175 q 458 1078 483 1109 q 403 992 408 1023 l 400 988 q 376 1007 376 991 l 371 1011 l 371 1014 l 372 1019 l 371 1019 q 347 1056 354 1019 q 403 1137 363 1096 q 509 1239 432 1173 l 533 1259 m 496 1143 l 496 1141 l 498 1141 l 509 1154 l 507 1154 l 496 1143 m 488 1136 l 488 1135 l 492 1137 l 492 1139 l 488 1136 m 476 1123 l 476 1121 l 481 1126 l 481 1127 l 476 1123 m 472 1120 l 470 1116 l 473 1116 l 473 1120 l 472 1120 m 420 1097 l 431 1108 l 429 1108 q 420 1097 420 1104 z "},"":{"ha":697,"x_min":0,"x_max":694,"o":"m 638 903 l 694 865 q 606 766 669 762 l 304 753 l 303 730 l 360 726 l 430 732 l 441 720 l 452 719 l 534 726 l 557 724 l 556 712 l 288 684 l 267 535 l 279 534 l 592 559 l 602 547 l 602 536 l 578 538 l 578 526 l 658 509 l 657 497 q 326 393 632 433 l 210 389 l 221 377 l 165 231 l 154 231 l 161 334 l 149 335 l 127 175 q 614 212 472 221 l 671 196 l 670 173 l 647 174 l 657 162 l 655 127 q 514 91 622 84 l 513 79 l 606 73 l 604 50 l 67 -28 l 56 -28 q 0 8 0 -16 l 0 10 l 2 45 l 34 170 l 23 182 l 46 181 l 42 123 l 54 122 q 81 178 60 180 l 70 191 l 78 305 l 55 307 l 39 250 l 52 261 l 64 260 l 59 191 l 47 193 l 50 227 l 38 227 l 37 204 l 25 205 l 26 228 l 63 422 l 52 423 l 78 479 l 67 491 l 68 503 l 93 697 l 104 685 l 115 684 l 117 707 l 109 766 l 127 869 l 130 903 l 141 902 l 152 890 l 164 901 l 176 899 l 186 888 l 199 899 l 233 896 l 638 903 m 61 399 l 56 319 l 67 318 l 73 398 l 61 399 m 441 385 l 453 385 l 452 373 l 243 352 l 232 365 l 233 376 l 337 380 l 336 369 l 441 385 m 357 1251 l 366 1251 q 399 1230 377 1251 q 492 1133 450 1199 l 501 1107 l 500 1105 l 498 1107 l 489 1107 l 491 1098 l 489 1086 q 498 1061 498 1069 l 496 1056 l 498 1045 l 494 1040 l 498 1025 l 498 1017 l 494 1017 l 480 1047 l 477 1047 l 477 1045 l 480 1033 l 479 1033 q 488 990 488 1002 l 488 989 q 475 980 488 986 l 470 981 l 461 980 l 456 980 q 410 1089 448 987 q 292 1207 366 1177 q 265 1223 278 1207 q 294 1244 265 1244 l 309 1248 l 323 1244 l 357 1251 z "},"":{"ha":697,"x_min":0,"x_max":694,"o":"m 638 903 l 694 865 q 606 766 669 762 l 304 753 l 303 730 l 360 726 l 430 732 l 441 720 l 452 719 l 534 726 l 557 724 l 556 712 l 288 684 l 267 535 l 279 534 l 592 559 l 602 547 l 602 536 l 578 538 l 578 526 l 658 509 l 657 497 q 326 393 632 433 l 210 389 l 221 377 l 165 231 l 154 231 l 161 334 l 149 335 l 127 175 q 614 212 472 221 l 671 196 l 670 173 l 647 174 l 657 162 l 655 127 q 514 91 622 84 l 513 79 l 606 73 l 604 50 l 67 -28 l 56 -28 q 0 8 0 -16 l 0 10 l 2 45 l 34 170 l 23 182 l 46 181 l 42 123 l 54 122 q 81 178 60 180 l 70 191 l 78 305 l 55 307 l 39 250 l 52 261 l 64 260 l 59 191 l 47 193 l 50 227 l 38 227 l 37 204 l 25 205 l 26 228 l 63 422 l 52 423 l 78 479 l 67 491 l 68 503 l 93 697 l 104 685 l 115 684 l 117 707 l 109 766 l 127 869 l 130 903 l 141 902 l 152 890 l 164 901 l 176 899 l 186 888 l 199 899 l 233 896 l 638 903 m 61 399 l 56 319 l 67 318 l 73 398 l 61 399 m 441 385 l 453 385 l 452 373 l 243 352 l 232 365 l 233 376 l 337 380 l 336 369 l 441 385 m 558 1249 q 600 1106 591 1249 l 600 1072 q 572 1027 600 1027 q 560 1023 572 1023 l 544 1023 q 537 1044 538 1023 l 535 1046 l 530 1046 q 519 1025 530 1031 l 512 1027 q 489 1012 502 1012 l 486 1012 q 466 1016 481 1016 q 452 1032 452 1019 l 452 1044 l 443 1113 l 438 1113 q 387 1062 438 1095 q 318 998 350 998 l 316 998 l 300 1002 l 300 1000 q 267 986 300 989 q 249 1009 249 998 l 249 1012 q 359 1164 256 1044 q 475 1228 429 1228 l 484 1226 q 558 1249 524 1249 z "},"":{"ha":697,"x_min":0,"x_max":694,"o":"m 638 903 l 694 865 q 606 766 669 762 l 304 753 l 303 730 l 360 726 l 430 732 l 441 720 l 452 719 l 534 726 l 557 724 l 556 712 l 288 684 l 267 535 l 279 534 l 592 559 l 602 547 l 602 536 l 578 538 l 578 526 l 658 509 l 657 497 q 326 393 632 433 l 210 389 l 221 377 l 165 231 l 154 231 l 161 334 l 149 335 l 127 175 q 614 212 472 221 l 671 196 l 670 173 l 647 174 l 657 162 l 655 127 q 514 91 622 84 l 513 79 l 606 73 l 604 50 l 67 -28 l 56 -28 q 0 8 0 -16 l 0 10 l 2 45 l 34 170 l 23 182 l 46 181 l 42 123 l 54 122 q 81 178 60 180 l 70 191 l 78 305 l 55 307 l 39 250 l 52 261 l 64 260 l 59 191 l 47 193 l 50 227 l 38 227 l 37 204 l 25 205 l 26 228 l 63 422 l 52 423 l 78 479 l 67 491 l 68 503 l 93 697 l 104 685 l 115 684 l 117 707 l 109 766 l 127 869 l 130 903 l 141 902 l 152 890 l 164 901 l 176 899 l 186 888 l 199 899 l 233 896 l 638 903 m 61 399 l 56 319 l 67 318 l 73 398 l 61 399 m 441 385 l 453 385 l 452 373 l 243 352 l 232 365 l 233 376 l 337 380 l 336 369 l 441 385 m 591 1225 l 593 1223 l 604 1225 l 606 1225 l 627 1200 l 627 1193 q 580 1145 580 1151 l 582 1145 q 634 1178 614 1173 l 645 1156 l 638 1135 l 641 1137 l 645 1137 l 652 1130 l 652 1128 q 591 1054 649 1113 q 569 1013 574 1032 l 560 1006 l 558 1006 q 524 1028 549 1006 q 513 1050 516 1028 q 495 1065 502 1065 q 465 1119 465 1098 l 465 1121 q 580 1221 550 1211 l 591 1225 m 341 1223 q 368 1217 368 1221 l 365 1214 l 365 1212 q 385 1199 373 1212 l 385 1192 q 357 1177 378 1185 q 309 1143 315 1154 l 311 1143 q 395 1179 361 1179 l 404 1162 q 408 1147 407 1162 q 417 1127 417 1147 q 337 1062 345 1082 q 315 1021 328 1061 l 292 1015 q 254 1060 254 1038 q 248 1071 251 1060 q 211 1110 233 1071 l 209 1130 q 328 1221 261 1201 l 341 1223 z "},"":{"ha":326,"x_min":29,"x_max":399,"o":"m 261 899 q 304 865 258 865 l 326 819 l 313 807 l 325 807 q 224 242 242 563 l 220 173 l 231 161 l 231 150 l 218 138 l 230 138 l 218 127 l 224 46 l 223 23 q 159 -92 161 -52 l 113 -92 l 57 -69 l 73 12 l 29 58 l 50 231 l 62 438 l 87 473 l 90 519 l 79 530 l 79 542 l 102 542 l 103 553 l 92 565 l 139 784 l 127 784 l 140 795 l 143 865 l 132 876 l 133 888 l 261 899 m 134 692 l 130 611 l 141 611 l 145 692 l 134 692 m 116 576 l 112 507 l 123 507 l 127 576 l 116 576 m 98 473 l 95 404 l 106 404 l 110 473 l 98 473 m 96 12 l 93 -46 l 117 -23 l 119 12 l 96 12 m 383 1259 q 386 1249 386 1256 q 395 1239 393 1249 q 322 1162 395 1227 q 298 1135 322 1158 q 286 1114 286 1120 q 395 1215 370 1202 l 397 1215 l 395 1208 l 398 1205 q 378 1178 398 1195 l 386 1175 l 398 1183 l 399 1182 l 399 1179 q 393 1165 395 1175 q 308 1078 333 1109 q 253 992 258 1023 l 250 988 q 226 1007 226 991 l 221 1011 l 221 1014 l 222 1019 l 221 1019 q 197 1056 204 1019 q 253 1137 214 1096 q 359 1239 282 1173 l 383 1259 m 347 1143 l 347 1141 l 348 1141 l 359 1154 l 357 1154 l 347 1143 m 338 1136 l 338 1135 l 342 1137 l 342 1139 l 338 1136 m 326 1123 l 326 1121 l 331 1126 l 331 1127 l 326 1123 m 322 1120 l 320 1116 l 323 1116 l 323 1120 l 322 1120 m 270 1097 l 281 1108 l 279 1108 q 270 1097 270 1104 z "},"":{"ha":326,"x_min":29,"x_max":326,"o":"m 261 899 q 304 865 258 865 l 326 819 l 313 807 l 325 807 q 224 242 242 563 l 220 173 l 231 161 l 231 150 l 218 138 l 230 138 l 218 127 l 224 46 l 223 23 q 159 -92 161 -52 l 113 -92 l 57 -69 l 73 12 l 29 58 l 50 231 l 62 438 l 87 473 l 90 519 l 79 530 l 79 542 l 102 542 l 103 553 l 92 565 l 139 784 l 127 784 l 140 795 l 143 865 l 132 876 l 133 888 l 261 899 m 134 692 l 130 611 l 141 611 l 145 692 l 134 692 m 116 576 l 112 507 l 123 507 l 127 576 l 116 576 m 98 473 l 95 404 l 106 404 l 110 473 l 98 473 m 96 12 l 93 -46 l 117 -23 l 119 12 l 96 12 m 130 1251 l 139 1251 q 173 1230 151 1251 q 266 1133 223 1199 l 275 1107 l 273 1105 l 271 1107 l 262 1107 l 264 1098 l 262 1086 q 271 1061 271 1069 l 270 1056 l 271 1045 l 268 1040 l 271 1025 l 271 1017 l 268 1017 l 254 1047 l 250 1047 l 250 1045 l 254 1033 l 252 1033 q 261 990 261 1002 l 261 989 q 248 980 261 986 l 243 981 l 235 980 l 229 980 q 183 1089 222 987 q 65 1207 139 1177 q 39 1223 52 1207 q 67 1244 39 1244 l 83 1248 l 97 1244 l 130 1251 z "},"":{"ha":326,"x_min":29,"x_max":387,"o":"m 261 899 q 304 865 258 865 l 326 819 l 313 807 l 325 807 q 224 242 242 563 l 220 173 l 231 161 l 231 150 l 218 138 l 230 138 l 218 127 l 224 46 l 223 23 q 159 -92 161 -52 l 113 -92 l 57 -69 l 73 12 l 29 58 l 50 231 l 62 438 l 87 473 l 90 519 l 79 530 l 79 542 l 102 542 l 103 553 l 92 565 l 139 784 l 127 784 l 140 795 l 143 865 l 132 876 l 133 888 l 261 899 m 134 692 l 130 611 l 141 611 l 145 692 l 134 692 m 116 576 l 112 507 l 123 507 l 127 576 l 116 576 m 98 473 l 95 404 l 106 404 l 110 473 l 98 473 m 96 12 l 93 -46 l 117 -23 l 119 12 l 96 12 m 354 1249 q 387 1106 380 1249 l 387 1072 q 365 1027 387 1027 q 355 1023 365 1023 l 342 1023 q 337 1044 338 1023 l 335 1046 l 332 1046 q 322 1025 332 1031 l 317 1027 q 299 1012 309 1012 l 296 1012 q 280 1016 293 1016 q 269 1032 269 1019 l 269 1044 l 262 1113 l 258 1113 q 217 1062 258 1095 q 162 998 187 998 l 160 998 l 147 1002 l 147 1000 q 121 986 147 989 q 106 1009 106 998 l 106 1012 q 195 1164 112 1044 q 287 1228 250 1228 l 295 1226 q 354 1249 327 1249 z "},"":{"ha":326,"x_min":20,"x_max":463,"o":"m 261 899 q 304 865 258 865 l 326 819 l 313 807 l 325 807 q 224 242 242 563 l 220 173 l 231 161 l 231 150 l 218 138 l 230 138 l 218 127 l 224 46 l 223 23 q 159 -92 161 -52 l 113 -92 l 57 -69 l 73 12 l 29 58 l 50 231 l 62 438 l 87 473 l 90 519 l 79 530 l 79 542 l 102 542 l 103 553 l 92 565 l 139 784 l 127 784 l 140 795 l 143 865 l 132 876 l 133 888 l 261 899 m 134 692 l 130 611 l 141 611 l 145 692 l 134 692 m 116 576 l 112 507 l 123 507 l 127 576 l 116 576 m 98 473 l 95 404 l 106 404 l 110 473 l 98 473 m 96 12 l 93 -46 l 117 -23 l 119 12 l 96 12 m 401 1225 l 404 1223 l 414 1225 l 416 1225 l 438 1200 l 438 1193 q 391 1145 391 1151 l 393 1145 q 445 1178 425 1173 l 456 1156 l 449 1135 l 452 1137 l 456 1137 l 463 1130 l 463 1128 q 401 1054 460 1113 q 380 1013 385 1032 l 371 1006 l 369 1006 q 334 1028 359 1006 q 323 1050 327 1028 q 306 1065 313 1065 q 275 1119 275 1098 l 275 1121 q 391 1221 361 1211 l 401 1225 m 152 1223 q 178 1217 178 1221 l 176 1214 l 176 1212 q 195 1199 184 1212 l 195 1192 q 168 1177 189 1185 q 119 1143 125 1154 l 121 1143 q 206 1179 172 1179 l 215 1162 q 219 1147 218 1162 q 228 1127 228 1147 q 148 1062 156 1082 q 126 1021 139 1061 l 102 1015 q 65 1060 65 1038 q 59 1071 62 1060 q 22 1110 44 1071 l 20 1130 q 139 1221 72 1201 l 152 1223 z "},"":{"ha":870,"x_min":4,"x_max":863,"o":"m 235 898 l 315 829 q 338 863 315 863 l 350 863 l 511 448 l 511 425 l 500 425 l 477 494 l 465 494 l 465 471 l 546 275 l 557 275 q 690 901 604 575 l 725 878 l 760 890 l 829 855 l 829 844 q 794 798 794 844 l 806 798 l 817 786 l 829 786 l 840 844 l 863 844 l 863 832 l 852 821 l 863 809 l 863 798 q 707 33 777 531 l 684 33 l 707 218 q 638 -1 684 218 q 557 -36 595 -36 l 557 -59 l 546 -59 q 500 -36 546 -36 l 500 45 q 269 621 500 97 l 258 621 q 177 68 212 416 l 165 79 q 96 22 96 59 l 73 22 q 50 172 50 65 l 39 172 l 39 68 l 16 68 l 4 125 q 142 886 4 439 l 235 898 m 73 610 l 73 598 l 85 587 l 73 575 l 73 552 l 85 552 l 96 598 l 85 610 l 73 610 m 511 425 q 557 333 541 425 l 557 321 l 546 321 l 511 425 m 701 1255 l 711 1240 l 709 1238 l 711 1236 l 713 1236 l 715 1238 l 717 1236 l 717 1235 q 705 1201 717 1221 q 691 1174 705 1194 l 692 1174 l 718 1203 l 720 1203 l 720 1201 l 718 1193 q 724 1183 722 1193 q 684 1122 707 1152 l 677 1110 l 679 1108 l 682 1108 q 694 1125 682 1116 l 696 1125 l 696 1124 q 672 1090 672 1095 l 680 1097 l 682 1097 l 682 1095 q 612 1009 652 1051 l 614 1007 l 614 1006 q 572 975 614 990 l 564 974 q 487 1041 532 974 l 465 1066 q 427 1002 440 1036 l 420 999 l 417 999 l 412 1002 l 410 1002 q 389 967 407 1002 l 388 965 l 386 965 q 350 999 364 965 q 317 1038 332 999 q 340 1076 317 1044 l 377 1128 q 431 1191 401 1165 l 434 1191 q 471 1144 446 1191 q 511 1073 496 1118 l 513 1072 l 516 1072 q 624 1166 551 1072 q 672 1223 642 1183 l 701 1255 z "},"":{"ha":848,"x_min":21,"x_max":828,"o":"m 517 907 q 770 826 652 907 l 759 814 l 759 803 l 805 734 l 782 734 l 770 745 l 759 745 l 793 492 l 805 492 q 828 549 805 549 l 828 503 q 713 203 828 438 l 724 203 q 482 -4 643 92 l 425 -16 l 413 -16 q 67 203 139 -16 l 21 273 l 33 284 l 21 365 l 21 388 q 205 722 21 484 l 205 711 q 67 457 121 597 l 67 446 l 79 446 q 390 872 121 614 l 309 826 l 298 826 q 517 907 298 879 m 459 711 l 448 722 l 448 711 l 459 699 l 378 630 q 194 307 283 630 q 298 146 194 215 l 309 146 q 597 411 435 146 q 655 595 655 537 l 655 688 q 540 734 655 720 l 528 734 l 517 722 l 505 722 l 505 734 l 459 711 m 793 676 l 817 676 l 817 618 l 793 618 l 793 676 m 205 549 l 171 480 l 182 480 l 217 549 l 205 549 m 655 480 l 609 365 l 644 365 l 678 446 l 667 480 l 655 480 m 736 434 l 724 399 l 724 376 l 736 376 l 747 422 l 747 434 l 736 434 m 56 388 l 56 296 l 67 296 l 67 388 l 56 388 m 597 353 l 551 296 l 563 296 l 609 353 l 597 353 m 229 100 l 229 88 l 286 54 l 286 65 l 229 100 m 726 1259 q 728 1249 728 1256 q 738 1239 736 1249 q 665 1162 738 1227 q 640 1135 665 1158 q 628 1114 628 1120 q 738 1215 713 1202 l 739 1215 l 738 1208 l 741 1205 q 721 1178 741 1195 l 728 1175 l 741 1183 l 742 1182 l 742 1179 q 736 1165 738 1175 q 650 1078 675 1109 q 595 992 600 1023 l 593 988 q 568 1007 568 991 l 564 1011 l 564 1014 l 565 1019 l 564 1019 q 539 1056 547 1019 q 595 1137 556 1096 q 701 1239 625 1173 l 726 1259 m 689 1143 l 689 1141 l 690 1141 l 701 1154 l 699 1154 l 689 1143 m 681 1136 l 681 1135 l 684 1137 l 684 1139 l 681 1136 m 669 1123 l 669 1121 l 673 1126 l 673 1127 l 669 1123 m 665 1120 l 663 1116 l 666 1116 l 666 1120 l 665 1120 m 612 1097 l 623 1108 l 622 1108 q 612 1097 612 1104 z "},"":{"ha":848,"x_min":21,"x_max":828,"o":"m 517 907 q 770 826 652 907 l 759 814 l 759 803 l 805 734 l 782 734 l 770 745 l 759 745 l 793 492 l 805 492 q 828 549 805 549 l 828 503 q 713 203 828 438 l 724 203 q 482 -4 643 92 l 425 -16 l 413 -16 q 67 203 139 -16 l 21 273 l 33 284 l 21 365 l 21 388 q 205 722 21 484 l 205 711 q 67 457 121 597 l 67 446 l 79 446 q 390 872 121 614 l 309 826 l 298 826 q 517 907 298 879 m 459 711 l 448 722 l 448 711 l 459 699 l 378 630 q 194 307 283 630 q 298 146 194 215 l 309 146 q 597 411 435 146 q 655 595 655 537 l 655 688 q 540 734 655 720 l 528 734 l 517 722 l 505 722 l 505 734 l 459 711 m 793 676 l 817 676 l 817 618 l 793 618 l 793 676 m 205 549 l 171 480 l 182 480 l 217 549 l 205 549 m 655 480 l 609 365 l 644 365 l 678 446 l 667 480 l 655 480 m 736 434 l 724 399 l 724 376 l 736 376 l 747 422 l 747 434 l 736 434 m 56 388 l 56 296 l 67 296 l 67 388 l 56 388 m 597 353 l 551 296 l 563 296 l 609 353 l 597 353 m 229 100 l 229 88 l 286 54 l 286 65 l 229 100 m 496 1251 l 505 1251 q 538 1230 516 1251 q 631 1133 589 1199 l 640 1107 l 639 1105 l 637 1107 l 628 1107 l 630 1098 l 628 1086 q 637 1061 637 1069 l 635 1056 l 637 1045 l 633 1040 l 637 1025 l 637 1017 l 633 1017 l 619 1047 l 616 1047 l 616 1045 l 619 1033 l 618 1033 q 627 990 627 1002 l 627 989 q 614 980 627 986 l 609 981 l 600 980 l 595 980 q 549 1089 587 987 q 431 1207 505 1177 q 404 1223 417 1207 q 433 1244 404 1244 l 448 1248 l 463 1244 l 496 1251 z "},"":{"ha":848,"x_min":21,"x_max":828,"o":"m 517 907 q 770 826 652 907 l 759 814 l 759 803 l 805 734 l 782 734 l 770 745 l 759 745 l 793 492 l 805 492 q 828 549 805 549 l 828 503 q 713 203 828 438 l 724 203 q 482 -4 643 92 l 425 -16 l 413 -16 q 67 203 139 -16 l 21 273 l 33 284 l 21 365 l 21 388 q 205 722 21 484 l 205 711 q 67 457 121 597 l 67 446 l 79 446 q 390 872 121 614 l 309 826 l 298 826 q 517 907 298 879 m 459 711 l 448 722 l 448 711 l 459 699 l 378 630 q 194 307 283 630 q 298 146 194 215 l 309 146 q 597 411 435 146 q 655 595 655 537 l 655 688 q 540 734 655 720 l 528 734 l 517 722 l 505 722 l 505 734 l 459 711 m 793 676 l 817 676 l 817 618 l 793 618 l 793 676 m 205 549 l 171 480 l 182 480 l 217 549 l 205 549 m 655 480 l 609 365 l 644 365 l 678 446 l 667 480 l 655 480 m 736 434 l 724 399 l 724 376 l 736 376 l 747 422 l 747 434 l 736 434 m 56 388 l 56 296 l 67 296 l 67 388 l 56 388 m 597 353 l 551 296 l 563 296 l 609 353 l 597 353 m 229 100 l 229 88 l 286 54 l 286 65 l 229 100 m 706 1249 q 747 1106 739 1249 l 747 1072 q 720 1027 747 1027 q 708 1023 720 1023 l 692 1023 q 685 1044 686 1023 l 683 1046 l 678 1046 q 667 1025 678 1031 l 660 1027 q 637 1012 650 1012 l 634 1012 q 614 1016 629 1016 q 600 1032 600 1019 l 600 1044 l 591 1113 l 586 1113 q 535 1062 586 1095 q 466 998 498 998 l 464 998 l 448 1002 l 448 1000 q 415 986 448 989 q 397 1009 397 998 l 397 1012 q 507 1164 404 1044 q 623 1228 576 1228 l 632 1226 q 706 1249 672 1249 z "},"":{"ha":848,"x_min":21,"x_max":828,"o":"m 517 907 q 770 826 652 907 l 759 814 l 759 803 l 805 734 l 782 734 l 770 745 l 759 745 l 793 492 l 805 492 q 828 549 805 549 l 828 503 q 713 203 828 438 l 724 203 q 482 -4 643 92 l 425 -16 l 413 -16 q 67 203 139 -16 l 21 273 l 33 284 l 21 365 l 21 388 q 205 722 21 484 l 205 711 q 67 457 121 597 l 67 446 l 79 446 q 390 872 121 614 l 309 826 l 298 826 q 517 907 298 879 m 459 711 l 448 722 l 448 711 l 459 699 l 378 630 q 194 307 283 630 q 298 146 194 215 l 309 146 q 597 411 435 146 q 655 595 655 537 l 655 688 q 540 734 655 720 l 528 734 l 517 722 l 505 722 l 505 734 l 459 711 m 793 676 l 817 676 l 817 618 l 793 618 l 793 676 m 205 549 l 171 480 l 182 480 l 217 549 l 205 549 m 655 480 l 609 365 l 644 365 l 678 446 l 667 480 l 655 480 m 736 434 l 724 399 l 724 376 l 736 376 l 747 422 l 747 434 l 736 434 m 56 388 l 56 296 l 67 296 l 67 388 l 56 388 m 597 353 l 551 296 l 563 296 l 609 353 l 597 353 m 229 100 l 229 88 l 286 54 l 286 65 l 229 100 m 753 1225 l 755 1223 l 766 1225 l 768 1225 l 789 1200 l 789 1193 q 742 1145 742 1151 l 744 1145 q 796 1178 777 1173 l 807 1156 l 800 1135 l 803 1137 l 807 1137 l 814 1130 l 814 1128 q 753 1054 811 1113 q 731 1013 736 1032 l 722 1006 l 720 1006 q 686 1028 711 1006 q 675 1050 678 1028 q 657 1065 664 1065 q 627 1119 627 1098 l 627 1121 q 742 1221 712 1211 l 753 1225 m 503 1223 q 530 1217 530 1221 l 527 1214 l 527 1212 q 547 1199 535 1212 l 547 1192 q 519 1177 541 1185 q 471 1143 477 1154 l 473 1143 q 557 1179 523 1179 l 566 1162 q 570 1147 569 1162 q 579 1127 579 1147 q 499 1062 507 1082 q 477 1021 490 1061 l 454 1015 q 416 1060 416 1038 q 410 1071 413 1060 q 373 1110 395 1071 l 371 1130 q 490 1221 423 1201 l 503 1223 z "},"":{"ha":848,"x_min":21,"x_max":828,"o":"m 517 907 q 770 826 652 907 l 759 814 l 759 803 l 805 734 l 782 734 l 770 745 l 759 745 l 793 492 l 805 492 q 828 549 805 549 l 828 503 q 713 203 828 438 l 724 203 q 482 -4 643 92 l 425 -16 l 413 -16 q 67 203 139 -16 l 21 273 l 33 284 l 21 365 l 21 388 q 205 722 21 484 l 205 711 q 67 457 121 597 l 67 446 l 79 446 q 390 872 121 614 l 309 826 l 298 826 q 517 907 298 879 m 459 711 l 448 722 l 448 711 l 459 699 l 378 630 q 194 307 283 630 q 298 146 194 215 l 309 146 q 597 411 435 146 q 655 595 655 537 l 655 688 q 540 734 655 720 l 528 734 l 517 722 l 505 722 l 505 734 l 459 711 m 793 676 l 817 676 l 817 618 l 793 618 l 793 676 m 205 549 l 171 480 l 182 480 l 217 549 l 205 549 m 655 480 l 609 365 l 644 365 l 678 446 l 667 480 l 655 480 m 736 434 l 724 399 l 724 376 l 736 376 l 747 422 l 747 434 l 736 434 m 56 388 l 56 296 l 67 296 l 67 388 l 56 388 m 597 353 l 551 296 l 563 296 l 609 353 l 597 353 m 229 100 l 229 88 l 286 54 l 286 65 l 229 100 m 777 1255 l 787 1240 l 785 1238 l 787 1236 l 788 1236 l 790 1238 l 792 1236 l 792 1235 q 780 1201 792 1221 q 766 1174 780 1194 l 768 1174 l 793 1203 l 795 1203 l 795 1201 l 793 1193 q 799 1183 797 1193 q 760 1122 783 1152 l 752 1110 l 754 1108 l 758 1108 q 770 1125 758 1116 l 771 1125 l 771 1124 q 747 1090 747 1095 l 755 1097 l 758 1097 l 758 1095 q 687 1009 727 1051 l 689 1007 l 689 1006 q 648 975 689 990 l 640 974 q 562 1041 608 974 l 540 1066 q 503 1002 515 1036 l 496 999 l 492 999 l 487 1002 l 485 1002 q 465 967 482 1002 l 463 965 l 461 965 q 425 999 439 965 q 393 1038 407 999 q 415 1076 393 1044 l 452 1128 q 506 1191 476 1165 l 509 1191 q 547 1144 521 1191 q 586 1073 572 1118 l 588 1072 l 591 1072 q 699 1166 626 1072 q 747 1223 717 1183 l 777 1255 z "},"":{"ha":709,"x_min":11,"x_max":703,"o":"m 195 902 l 218 867 l 207 810 l 218 798 l 230 798 l 241 856 l 264 856 l 276 821 q 184 302 184 489 q 230 176 195 176 l 495 475 l 507 533 l 507 856 l 530 879 q 553 833 553 879 l 564 833 q 622 879 564 879 l 645 833 l 633 775 q 656 833 656 775 l 680 833 l 691 821 l 703 821 l 645 -9 l 633 -55 q 587 -101 587 -55 l 541 -101 l 553 14 l 530 14 l 530 -55 l 495 -90 l 495 -78 l 507 37 q 472 83 472 37 l 460 83 l 264 -9 l 172 14 l 172 3 q 11 349 53 3 q 103 867 57 867 l 103 879 l 115 879 l 115 833 l 92 833 l 92 810 l 103 798 l 103 787 l 92 787 l 103 752 l 68 694 l 80 694 l 92 706 l 57 498 l 57 452 l 68 452 q 195 902 105 902 m 57 441 l 45 429 l 45 337 l 57 337 l 68 441 l 57 441 m 414 349 l 334 256 l 345 256 l 426 349 l 414 349 m 80 164 l 80 141 l 92 106 l 103 106 l 103 130 l 92 164 l 80 164 m 161 106 l 161 95 q 264 26 161 55 l 288 26 l 288 37 q 161 106 221 38 m 562 1259 q 565 1249 565 1256 q 574 1239 572 1249 q 501 1162 574 1227 q 477 1135 501 1158 q 465 1114 465 1120 q 574 1215 549 1202 l 576 1215 l 574 1208 l 577 1205 q 557 1178 577 1195 l 565 1175 l 577 1183 l 578 1182 l 578 1179 q 572 1165 574 1175 q 487 1078 512 1109 q 432 992 437 1023 l 429 988 q 405 1007 405 991 l 400 1011 l 400 1014 l 401 1019 l 400 1019 q 376 1056 383 1019 q 432 1137 393 1096 q 538 1239 461 1173 l 562 1259 m 526 1143 l 526 1141 l 527 1141 l 538 1154 l 536 1154 l 526 1143 m 517 1136 l 517 1135 l 521 1137 l 521 1139 l 517 1136 m 505 1123 l 505 1121 l 510 1126 l 510 1127 l 505 1123 m 501 1120 l 499 1116 l 503 1116 l 503 1120 l 501 1120 m 449 1097 l 460 1108 l 458 1108 q 449 1097 449 1104 z "},"":{"ha":709,"x_min":11,"x_max":703,"o":"m 195 902 l 218 867 l 207 810 l 218 798 l 230 798 l 241 856 l 264 856 l 276 821 q 184 302 184 489 q 230 176 195 176 l 495 475 l 507 533 l 507 856 l 530 879 q 553 833 553 879 l 564 833 q 622 879 564 879 l 645 833 l 633 775 q 656 833 656 775 l 680 833 l 691 821 l 703 821 l 645 -9 l 633 -55 q 587 -101 587 -55 l 541 -101 l 553 14 l 530 14 l 530 -55 l 495 -90 l 495 -78 l 507 37 q 472 83 472 37 l 460 83 l 264 -9 l 172 14 l 172 3 q 11 349 53 3 q 103 867 57 867 l 103 879 l 115 879 l 115 833 l 92 833 l 92 810 l 103 798 l 103 787 l 92 787 l 103 752 l 68 694 l 80 694 l 92 706 l 57 498 l 57 452 l 68 452 q 195 902 105 902 m 57 441 l 45 429 l 45 337 l 57 337 l 68 441 l 57 441 m 414 349 l 334 256 l 345 256 l 426 349 l 414 349 m 80 164 l 80 141 l 92 106 l 103 106 l 103 130 l 92 164 l 80 164 m 161 106 l 161 95 q 264 26 161 55 l 288 26 l 288 37 q 161 106 221 38 m 343 1251 l 352 1251 q 386 1230 363 1251 q 479 1133 436 1199 l 488 1107 l 486 1105 l 484 1107 l 475 1107 l 477 1098 l 475 1086 q 484 1061 484 1069 l 483 1056 l 484 1045 l 481 1040 l 484 1025 l 484 1017 l 481 1017 l 467 1047 l 463 1047 l 463 1045 l 467 1033 l 465 1033 q 474 990 474 1002 l 474 989 q 461 980 474 986 l 456 981 l 448 980 l 442 980 q 396 1089 435 987 q 278 1207 352 1177 q 252 1223 264 1207 q 280 1244 252 1244 l 296 1248 l 310 1244 l 343 1251 z "},"":{"ha":709,"x_min":11,"x_max":703,"o":"m 195 902 l 218 867 l 207 810 l 218 798 l 230 798 l 241 856 l 264 856 l 276 821 q 184 302 184 489 q 230 176 195 176 l 495 475 l 507 533 l 507 856 l 530 879 q 553 833 553 879 l 564 833 q 622 879 564 879 l 645 833 l 633 775 q 656 833 656 775 l 680 833 l 691 821 l 703 821 l 645 -9 l 633 -55 q 587 -101 587 -55 l 541 -101 l 553 14 l 530 14 l 530 -55 l 495 -90 l 495 -78 l 507 37 q 472 83 472 37 l 460 83 l 264 -9 l 172 14 l 172 3 q 11 349 53 3 q 103 867 57 867 l 103 879 l 115 879 l 115 833 l 92 833 l 92 810 l 103 798 l 103 787 l 92 787 l 103 752 l 68 694 l 80 694 l 92 706 l 57 498 l 57 452 l 68 452 q 195 902 105 902 m 57 441 l 45 429 l 45 337 l 57 337 l 68 441 l 57 441 m 414 349 l 334 256 l 345 256 l 426 349 l 414 349 m 80 164 l 80 141 l 92 106 l 103 106 l 103 130 l 92 164 l 80 164 m 161 106 l 161 95 q 264 26 161 55 l 288 26 l 288 37 q 161 106 221 38 m 570 1249 q 612 1106 604 1249 l 612 1072 q 584 1027 612 1027 q 572 1023 584 1023 l 556 1023 q 549 1044 551 1023 l 547 1046 l 543 1046 q 531 1025 543 1031 l 524 1027 q 501 1012 514 1012 l 498 1012 q 478 1016 494 1016 q 464 1032 464 1019 l 464 1044 l 455 1113 l 450 1113 q 399 1062 450 1095 q 330 998 362 998 l 328 998 l 312 1002 l 312 1000 q 279 986 312 989 q 261 1009 261 998 l 261 1012 q 372 1164 269 1044 q 487 1228 441 1228 l 496 1226 q 570 1249 536 1249 z "},"":{"ha":709,"x_min":11,"x_max":703,"o":"m 195 902 l 218 867 l 207 810 l 218 798 l 230 798 l 241 856 l 264 856 l 276 821 q 184 302 184 489 q 230 176 195 176 l 495 475 l 507 533 l 507 856 l 530 879 q 553 833 553 879 l 564 833 q 622 879 564 879 l 645 833 l 633 775 q 656 833 656 775 l 680 833 l 691 821 l 703 821 l 645 -9 l 633 -55 q 587 -101 587 -55 l 541 -101 l 553 14 l 530 14 l 530 -55 l 495 -90 l 495 -78 l 507 37 q 472 83 472 37 l 460 83 l 264 -9 l 172 14 l 172 3 q 11 349 53 3 q 103 867 57 867 l 103 879 l 115 879 l 115 833 l 92 833 l 92 810 l 103 798 l 103 787 l 92 787 l 103 752 l 68 694 l 80 694 l 92 706 l 57 498 l 57 452 l 68 452 q 195 902 105 902 m 57 441 l 45 429 l 45 337 l 57 337 l 68 441 l 57 441 m 414 349 l 334 256 l 345 256 l 426 349 l 414 349 m 80 164 l 80 141 l 92 106 l 103 106 l 103 130 l 92 164 l 80 164 m 161 106 l 161 95 q 264 26 161 55 l 288 26 l 288 37 q 161 106 221 38 m 577 1225 l 579 1223 l 590 1225 l 592 1225 l 614 1200 l 614 1193 q 566 1145 566 1151 l 568 1145 q 621 1178 601 1173 l 631 1156 l 625 1135 l 627 1137 l 631 1137 l 638 1130 l 638 1128 q 577 1054 635 1113 q 555 1013 560 1032 l 547 1006 l 545 1006 q 510 1028 535 1006 q 499 1050 503 1028 q 481 1065 488 1065 q 451 1119 451 1098 l 451 1121 q 566 1221 536 1211 l 577 1225 m 328 1223 q 354 1217 354 1221 l 351 1214 l 351 1212 q 371 1199 359 1212 l 371 1192 q 343 1177 365 1185 q 295 1143 301 1154 l 297 1143 q 382 1179 347 1179 l 391 1162 q 395 1147 393 1162 q 404 1127 404 1147 q 323 1062 332 1082 q 302 1021 315 1061 l 278 1015 q 241 1060 241 1038 q 235 1071 237 1060 q 197 1110 220 1071 l 195 1130 q 315 1221 248 1201 l 328 1223 z "},"":{"ha":772,"x_min":0,"x_max":0,"o":""},"":{"ha":555,"x_min":0,"x_max":0,"o":""},"":{"ha":772,"x_min":0,"x_max":0,"o":""},"":{"ha":772,"x_min":0,"x_max":0,"o":""},"":{"ha":772,"x_min":0,"x_max":0,"o":""},"":{"ha":486,"x_min":0,"x_max":0,"o":""},"":{"ha":746,"x_min":0,"x_max":0,"o":""},"":{"ha":804,"x_min":10,"x_max":784,"o":"m 566 960 q 618 910 618 932 l 521 887 l 583 872 l 634 867 q 675 785 661 867 l 677 777 l 669 745 l 671 745 q 700 699 678 744 l 700 689 q 615 555 700 670 l 544 442 l 547 442 l 584 452 l 665 452 q 765 355 739 452 q 778 299 765 319 l 774 277 l 784 239 q 572 -25 784 125 q 447 -75 471 -75 l 425 -75 q 326 34 349 -75 l 322 37 l 322 40 l 326 50 q 281 149 281 100 l 281 161 q 316 193 281 186 l 338 193 q 378 146 351 184 l 397 143 q 624 246 467 92 l 635 295 l 431 227 l 421 227 l 402 243 l 402 245 l 406 268 q 412 252 390 268 q 441 290 412 274 l 441 293 l 416 286 q 375 321 398 286 l 375 327 q 388 355 375 338 l 388 358 l 381 358 q 338 422 334 358 l 338 425 q 541 705 338 454 l 513 736 q 241 427 313 595 q 160 15 208 310 l 163 -9 q 154 -22 159 -9 l 157 -41 q 144 -62 157 -58 l 123 -62 q 100 -31 109 -56 q 73 12 73 -18 l 73 31 l 57 31 q 10 109 42 31 l 10 115 q 66 352 10 132 q 113 592 85 496 q 144 648 131 615 q 256 792 189 718 q 490 945 443 945 q 513 957 496 953 l 547 954 l 566 960 m 232 589 q 332 705 296 673 l 338 714 l 334 714 q 232 589 252 642 m 216 564 q 229 586 222 564 q 216 564 220 586 m 463 309 l 466 299 l 472 299 q 634 342 608 342 l 634 346 l 593 346 q 463 311 558 346 l 463 309 z "},"":{"ha":1023,"x_min":0,"x_max":0,"o":""},"":{"ha":1023,"x_min":0,"x_max":0,"o":""},"":{"ha":1389,"x_min":0,"x_max":0,"o":""},"":{"ha":326,"x_min":52,"x_max":254,"o":"m 238 1259 q 241 1249 241 1256 q 250 1239 248 1249 q 177 1162 250 1227 q 153 1135 177 1158 q 140 1114 140 1120 q 250 1215 225 1202 l 252 1215 l 250 1208 l 253 1205 q 233 1178 253 1195 l 241 1175 l 253 1183 l 254 1182 l 254 1179 q 248 1165 250 1175 q 163 1078 188 1109 q 108 992 113 1023 l 105 988 q 81 1007 81 991 l 76 1011 l 76 1014 l 77 1019 l 76 1019 q 52 1056 59 1019 q 108 1137 68 1096 q 214 1239 137 1173 l 238 1259 m 201 1143 l 201 1141 l 203 1141 l 214 1154 l 212 1154 l 201 1143 m 193 1136 l 193 1135 l 197 1137 l 197 1139 l 193 1136 m 181 1123 l 181 1121 l 186 1126 l 186 1127 l 181 1123 m 177 1120 l 175 1116 l 178 1116 l 178 1120 l 177 1120 m 125 1097 l 136 1108 l 134 1108 q 125 1097 125 1104 z "},"":{"ha":587,"x_min":96,"x_max":539,"o":"m 478 1225 l 480 1223 l 491 1225 l 493 1225 l 515 1200 l 515 1193 q 467 1145 467 1151 l 469 1145 q 522 1178 502 1173 l 532 1156 l 526 1135 l 528 1137 l 532 1137 l 539 1130 l 539 1128 q 478 1054 536 1113 q 456 1013 461 1032 l 448 1006 l 446 1006 q 411 1028 436 1006 q 400 1050 404 1028 q 382 1065 389 1065 q 352 1119 352 1098 l 352 1121 q 467 1221 437 1211 l 478 1225 m 229 1223 q 255 1217 255 1221 l 252 1214 l 252 1212 q 272 1199 260 1212 l 272 1192 q 244 1177 266 1185 q 196 1143 202 1154 l 198 1143 q 283 1179 248 1179 l 292 1162 q 296 1147 294 1162 q 304 1127 304 1147 q 224 1062 233 1082 q 203 1021 216 1061 l 179 1015 q 142 1060 142 1038 q 136 1071 138 1060 q 98 1110 121 1071 l 96 1130 q 216 1221 149 1201 l 229 1223 z "},"":{"ha":762,"x_min":0,"x_max":0,"o":""},"":{"ha":1145,"x_min":-10,"x_max":1130,"o":"m 557 399 l 551 319 l 563 318 l 568 398 l 557 399 m 878 379 l 889 379 l 888 368 l 739 352 l 728 365 l 728 376 l 833 380 l 832 369 l 878 379 m 509 691 l 393 460 l 416 460 q 530 518 503 449 l 521 691 l 509 691 m 412 437 l 410 426 l 406 414 q 515 449 511 426 l 504 449 l 412 437 m 652 92 l 648 68 l 652 22 l 663 22 l 667 45 l 663 92 l 652 92 m 530 57 l 526 34 l 563 45 l 567 68 l 530 57 m 538 123 l 548 122 q 538 123 548 158 m 543 277 l 542 276 l 544 276 l 543 277 m 699 898 l 729 896 l 1074 898 l 1130 859 q 1042 761 1105 757 l 766 753 l 765 730 l 822 726 l 866 727 l 877 714 l 888 713 l 970 720 l 993 718 l 992 707 l 750 684 l 745 535 l 774 534 l 1028 554 l 1038 542 l 1038 530 l 1015 532 l 1015 521 l 1094 503 l 1093 492 q 822 393 1068 427 l 728 389 l 738 334 l 721 299 l 721 230 l 707 218 l 719 218 l 705 207 l 703 185 q 1050 206 926 214 l 1107 191 l 1106 168 l 1083 169 l 1093 157 l 1091 122 q 950 85 1058 79 l 949 74 l 1042 68 l 1040 45 l 662 -14 l 667 -58 l 644 -58 q 627 -23 650 -23 l 625 -35 l 630 -69 l 618 -69 l 609 -58 l 597 -58 q 569 -92 592 -92 l 547 -26 q 529 -21 537 -24 l 525 -47 l 513 -47 l 513 -15 q 496 8 496 -5 l 496 10 l 498 45 l 511 288 l 523 288 l 532 277 l 542 333 l 546 357 l 311 311 l 307 288 l 391 311 l 408 288 l 467 299 l 464 276 q 230 172 242 244 q 134 11 178 45 l 130 -12 l 96 -12 l 86 -1 l 75 -1 l 73 -12 l 41 11 l 76 80 l 64 80 q 15 -12 30 80 l -5 11 l 18 80 l -10 115 l 265 587 l 277 587 q 294 553 271 553 l 315 610 l 301 599 l 290 599 l 298 645 l 319 703 l 328 691 l 340 691 l 330 703 l 332 714 l 363 760 l 374 760 l 384 749 l 395 749 l 397 760 q 367 783 401 783 l 424 933 l 470 933 l 456 922 l 454 910 q 612 956 542 956 q 698 922 613 922 l 699 898 z "},"":{"ha":848,"x_min":26,"x_max":833,"o":"m 799 676 l 822 676 l 822 618 l 799 618 l 799 676 m 211 549 l 176 480 l 188 480 l 222 549 l 211 549 m 661 480 l 614 365 l 649 365 l 684 446 l 672 480 l 661 480 m 741 434 l 730 399 l 730 376 l 741 376 l 753 422 l 753 434 l 741 434 m 61 388 l 61 296 l 73 296 l 73 388 l 61 388 m 603 353 l 553 264 l 565 264 l 614 353 l 603 353 m 528 761 l 495 682 l 494 671 l 505 670 l 538 749 l 540 761 l 528 761 m 363 410 l 331 331 l 319 332 l 322 355 l 311 355 l 308 332 l 317 320 l 305 310 l 317 309 l 222 118 l 221 106 l 233 106 l 491 648 l 492 659 l 363 410 m 450 686 l 404 686 q 180 321 317 701 q 222 225 199 264 l 450 686 m 650 705 l 588 596 l 600 595 l 394 189 l 382 190 l 341 147 l 384 224 l 385 235 l 374 236 l 326 146 q 603 411 451 93 q 661 595 661 537 l 661 688 q 650 705 661 697 m 149 76 q 73 203 98 126 l 26 273 l 38 284 l 26 365 l 26 388 q 211 722 26 484 l 211 711 q 73 457 126 597 l 73 446 l 84 446 q 395 872 126 614 l 315 826 l 303 826 q 522 907 303 879 q 574 904 548 907 q 583 930 579 916 q 591 922 587 926 q 602 959 597 917 q 668 987 642 987 l 673 987 l 688 964 l 707 960 l 703 958 l 686 902 l 694 895 l 726 903 l 743 950 l 776 942 l 741 888 q 727 855 734 871 q 776 826 752 842 l 764 814 l 764 803 l 810 734 l 787 734 l 776 745 l 764 745 l 799 492 l 810 492 q 833 549 810 549 l 833 503 q 718 203 833 438 l 730 203 q 488 -4 648 92 l 430 -16 l 418 -16 q 267 5 333 -16 q 231 -90 248 -44 l 184 -99 q 132 43 125 -16 l 149 76 m 463 713 l 453 722 l 453 711 l 459 705 l 463 713 z "},"":{"ha":990,"x_min":0,"x_max":0,"o":""},"":{"ha":762,"x_min":0,"x_max":0,"o":""},"":{"ha":762,"x_min":0,"x_max":0,"o":""},"":{"ha":762,"x_min":0,"x_max":0,"o":""},"":{"ha":772,"x_min":0,"x_max":0,"o":""},"":{"ha":800,"x_min":0,"x_max":0,"o":""},"":{"ha":686,"x_min":0,"x_max":0,"o":""},"":{"ha":990,"x_min":0,"x_max":0,"o":""},"":{"ha":1143,"x_min":0,"x_max":0,"o":""},"":{"ha":380,"x_min":0,"x_max":0,"o":""},"":{"ha":442,"x_min":-9,"x_max":448,"o":"m 270 956 q 321 937 274 937 l 372 715 l 416 715 l 416 709 l 378 703 l 378 696 q 397 684 397 696 l 448 684 l 448 677 q 385 652 448 663 l 397 614 l 391 595 l 397 557 l 391 551 l 397 551 l 391 544 l 397 468 l 397 430 l 391 436 l 385 436 l 404 341 l 391 341 q 378 360 391 360 l 378 354 l 385 335 l 378 335 l 372 341 l 366 341 q 353 322 366 322 l 321 430 l 315 430 l 315 404 l 309 404 l 296 481 l 315 468 l 315 474 q 296 531 309 531 l 302 538 l 302 557 l 289 557 l 289 538 l 283 538 l 283 563 l 289 570 l 283 570 l 277 563 l 277 589 l 283 589 l 289 582 l 296 582 l 289 589 l 289 627 l 150 595 l 150 582 l 194 595 l 220 589 l 251 595 l 251 582 q 118 519 118 558 q 80 430 101 449 l 80 417 l 61 417 l 55 424 l 48 424 l 48 417 l 29 430 l 42 468 l 35 468 q 16 417 16 468 l 4 430 l 10 468 l -9 487 l 99 747 l 105 747 q 118 728 105 728 l 124 760 l 118 753 l 112 753 l 112 779 l 118 810 l 124 804 l 131 804 l 124 810 l 124 817 l 137 842 l 143 842 l 150 836 l 156 836 l 156 842 q 137 854 156 854 l 169 943 l 194 943 l 188 937 l 188 931 q 270 956 232 956 m 232 810 l 182 677 l 194 677 q 264 715 258 677 l 239 810 l 232 810 m 175 772 l 162 728 l 156 734 l 150 734 l 156 709 l 162 709 l 182 766 l 182 772 l 175 772 m 105 715 l 99 709 l 99 696 l 105 696 l 112 715 l 105 715 m 143 690 l 137 665 l 143 665 l 150 671 l 150 690 l 143 690 m 86 684 l 80 658 l 86 658 l 99 684 l 86 684 m 194 665 l 194 658 l 207 658 q 264 677 264 665 l 258 677 l 194 665 m 283 525 l 296 525 l 296 487 l 289 487 l 283 525 m 372 481 l 372 468 l 378 443 l 385 443 l 385 455 l 378 481 l 372 481 m 309 462 l 309 449 l 328 455 l 328 468 l 309 462 z "},"":{"ha":473,"x_min":16,"x_max":460,"o":"m 288 907 q 428 863 363 907 l 421 856 l 421 850 l 447 812 l 434 812 l 428 818 l 421 818 l 440 678 l 447 678 q 460 710 447 710 l 460 685 q 396 520 460 649 l 402 520 q 269 406 357 458 l 237 399 l 231 399 q 41 520 81 399 l 16 558 l 22 564 l 16 609 l 16 621 q 117 805 16 674 l 117 799 q 41 659 71 736 l 41 653 l 47 653 q 218 888 71 746 l 174 863 l 168 863 q 288 907 168 892 m 256 799 l 250 805 l 250 799 l 256 793 l 212 755 q 111 577 159 755 q 168 488 111 526 l 174 488 q 333 634 243 488 q 364 736 364 703 l 364 786 q 301 812 364 804 l 294 812 l 288 805 l 282 805 l 282 812 l 256 799 m 440 780 l 453 780 l 453 748 l 440 748 l 440 780 m 117 710 l 98 672 l 104 672 l 123 710 l 117 710 m 364 672 l 339 609 l 358 609 l 377 653 l 371 672 l 364 672 m 409 647 l 402 628 l 402 615 l 409 615 l 415 640 l 415 647 l 409 647 m 35 621 l 35 571 l 41 571 l 41 621 l 35 621 m 333 602 l 307 571 l 313 571 l 339 602 l 333 602 m 130 463 l 130 456 l 161 437 l 161 444 l 130 463 z "},"":{"ha":1067,"x_min":0,"x_max":0,"o":""},"":{"ha":1145,"x_min":-10,"x_max":1130,"o":"m 557 399 l 551 319 l 563 318 l 568 398 l 557 399 m 878 379 l 889 379 l 888 368 l 739 352 l 728 365 l 728 376 l 833 380 l 832 369 l 878 379 m 509 691 l 393 460 l 416 460 q 530 518 503 449 l 521 691 l 509 691 m 412 437 l 410 426 l 406 414 q 515 449 511 426 l 504 449 l 412 437 m 652 92 l 648 68 l 652 22 l 663 22 l 667 45 l 663 92 l 652 92 m 530 57 l 526 34 l 563 45 l 567 68 l 530 57 m 538 123 l 548 122 q 538 123 548 158 m 543 277 l 542 276 l 544 276 l 543 277 m 699 898 l 729 896 l 1074 898 l 1130 859 q 1042 761 1105 757 l 766 753 l 765 730 l 822 726 l 866 727 l 877 714 l 888 713 l 970 720 l 993 718 l 992 707 l 750 684 l 745 535 l 774 534 l 1028 554 l 1038 542 l 1038 530 l 1015 532 l 1015 521 l 1094 503 l 1093 492 q 822 393 1068 427 l 728 389 l 738 334 l 721 299 l 721 230 l 707 218 l 719 218 l 705 207 l 703 185 q 1050 206 926 214 l 1107 191 l 1106 168 l 1083 169 l 1093 157 l 1091 122 q 950 85 1058 79 l 949 74 l 1042 68 l 1040 45 l 662 -14 l 667 -58 l 644 -58 q 627 -23 650 -23 l 625 -35 l 630 -69 l 618 -69 l 609 -58 l 597 -58 q 569 -92 592 -92 l 547 -26 q 529 -21 537 -24 l 525 -47 l 513 -47 l 513 -15 q 496 8 496 -5 l 496 10 l 498 45 l 511 288 l 523 288 l 532 277 l 542 333 l 546 357 l 311 311 l 307 288 l 391 311 l 408 288 l 467 299 l 464 276 q 230 172 242 244 q 134 11 178 45 l 130 -12 l 96 -12 l 86 -1 l 75 -1 l 73 -12 l 41 11 l 76 80 l 64 80 q 15 -12 30 80 l -5 11 l 18 80 l -10 115 l 265 587 l 277 587 q 294 553 271 553 l 315 610 l 301 599 l 290 599 l 298 645 l 319 703 l 328 691 l 340 691 l 330 703 l 332 714 l 363 760 l 374 760 l 384 749 l 395 749 l 397 760 q 367 783 401 783 l 424 933 l 470 933 l 456 922 l 454 910 q 612 956 542 956 q 698 922 613 922 l 699 898 z "},"":{"ha":848,"x_min":26,"x_max":833,"o":"m 799 676 l 822 676 l 822 618 l 799 618 l 799 676 m 211 549 l 176 480 l 188 480 l 222 549 l 211 549 m 661 480 l 614 365 l 649 365 l 684 446 l 672 480 l 661 480 m 741 434 l 730 399 l 730 376 l 741 376 l 753 422 l 753 434 l 741 434 m 61 388 l 61 296 l 73 296 l 73 388 l 61 388 m 603 353 l 553 264 l 565 264 l 614 353 l 603 353 m 528 761 l 495 682 l 494 671 l 505 670 l 538 749 l 540 761 l 528 761 m 363 410 l 331 331 l 319 332 l 322 355 l 311 355 l 308 332 l 317 320 l 305 310 l 317 309 l 222 118 l 221 106 l 233 106 l 491 648 l 492 659 l 363 410 m 450 686 l 404 686 q 180 321 317 701 q 222 225 199 264 l 450 686 m 650 705 l 588 596 l 600 595 l 394 189 l 382 190 l 341 147 l 384 224 l 385 235 l 374 236 l 326 146 q 603 411 451 93 q 661 595 661 537 l 661 688 q 650 705 661 697 m 149 76 q 73 203 98 126 l 26 273 l 38 284 l 26 365 l 26 388 q 211 722 26 484 l 211 711 q 73 457 126 597 l 73 446 l 84 446 q 395 872 126 614 l 315 826 l 303 826 q 522 907 303 879 q 574 904 548 907 q 583 930 579 916 q 591 922 587 926 q 602 959 597 917 q 668 987 642 987 l 673 987 l 688 964 l 707 960 l 703 958 l 686 902 l 694 895 l 726 903 l 743 950 l 776 942 l 741 888 q 727 855 734 871 q 776 826 752 842 l 764 814 l 764 803 l 810 734 l 787 734 l 776 745 l 764 745 l 799 492 l 810 492 q 833 549 810 549 l 833 503 q 718 203 833 438 l 730 203 q 488 -4 648 92 l 430 -16 l 418 -16 q 267 5 333 -16 q 231 -90 248 -44 l 184 -99 q 132 43 125 -16 l 149 76 m 463 713 l 453 722 l 453 711 l 459 705 l 463 713 z "},"":{"ha":961,"x_min":-17,"x_max":907,"o":"m 825 389 l 823 355 q 631 239 698 239 l 632 251 q 704 297 633 270 l 788 355 l 765 355 l 789 366 l 825 389 m 522 334 q 176 150 363 293 l 165 150 l 163 127 l 175 127 l 246 161 l 245 138 l 222 138 l 220 115 l 336 115 l 481 121 q 688 219 629 125 l 773 300 l 785 300 q 819 300 817 258 q 885 242 888 300 l 861 219 q 907 168 893 219 l 902 51 q 729 50 857 118 q 323 -104 798 -74 l 311 -104 q 27 -35 27 -92 l 27 -35 q -17 72 -17 15 q 29 196 -17 130 q 399 415 162 328 l 400 427 l 389 438 q 473 484 391 473 l 473 496 l 439 496 l 427 484 l 416 496 l 404 484 l 406 530 l 500 553 l 499 542 l 534 553 q 625 507 625 532 q 583 392 588 480 l 534 346 l 545 346 l 522 334 m 699 12 l 687 12 q 326 -58 509 -58 q 63 -12 151 -58 l 62 -35 q 290 -69 160 -69 l 325 -69 q 699 12 578 -69 m 406 127 l 394 127 l 395 138 l 441 150 q 406 127 440 127 m 356 422 l 357 434 l 322 434 q 180 365 214 365 l 179 353 l 202 353 l 356 422 m 543 442 l 547 463 l 481 463 l 431 429 l 453 429 l 543 442 m 507 667 l 505 677 l 516 691 l 513 702 l 502 688 l 474 682 l 417 738 l 396 767 l 430 808 l 402 802 l 370 817 l 364 839 l 566 914 l 583 907 l 588 885 q 537 852 532 873 l 540 842 l 623 859 l 638 795 l 627 781 l 629 771 l 643 774 l 683 793 l 685 783 q 507 667 661 699 z "},"":{"ha":374,"x_min":52,"x_max":320,"o":"m 207 -123 l 174 -157 l 169 -110 l 136 -143 l 132 -96 l 64 -147 l 125 33 l 119 89 l 60 -115 l 56 -68 l 56 -55 q 119 372 119 208 l 119 385 q 68 618 119 468 l 81 661 q 119 606 112 661 l 132 606 l 132 633 l 182 633 l 207 564 l 220 578 l 232 578 q 320 344 320 508 l 320 317 l 295 41 l 282 41 l 258 -14 l 232 -41 l 232 0 l 220 0 l 220 -55 l 245 -82 l 207 -123 m 260 86 l 235 86 l 248 31 l 260 31 l 260 86 m 79 831 l 103 880 l 92 886 l 68 836 l 79 831 m 296 310 l 296 379 l 283 448 l 271 448 l 271 406 l 283 310 l 296 310 m 313 505 q 251 629 276 629 l 313 505 m 62 705 l 52 716 l 53 728 l 122 739 l 123 751 l 75 765 l 76 777 l 99 777 l 100 788 l 77 788 l 78 800 q 143 901 142 878 l 120 901 q 275 993 125 993 l 310 981 l 307 947 q 272 924 273 947 l 316 901 l 288 820 l 310 797 q 62 705 307 740 z "},"":{"ha":811,"x_min":0,"x_max":0,"o":""},"":{"ha":762,"x_min":0,"x_max":0,"o":""},"":{"ha":772,"x_min":0,"x_max":0,"o":""},"":{"ha":762,"x_min":0,"x_max":0,"o":""},"":{"ha":850,"x_min":0,"x_max":0,"o":""},"":{"ha":680,"x_min":66,"x_max":649,"o":"m 237 500 l 357 676 q 374 682 364 665 l 380 682 l 388 671 q 374 627 395 660 l 382 616 l 421 642 l 421 631 l 186 326 l 333 177 l 336 171 l 333 165 l 305 176 l 302 170 l 309 171 l 313 165 l 313 155 l 333 133 l 347 112 l 368 69 l 365 64 q 256 178 279 180 l 296 133 q 338 63 328 87 l 321 46 l 178 179 l 77 248 l 66 264 l 70 312 l 66 317 l 70 323 q 71 357 79 337 l 81 374 l 107 372 l 275 598 l 278 593 l 264 571 l 237 538 l 243 527 l 237 503 l 237 500 m 414 410 l 431 434 l 426 429 l 414 410 m 443 451 l 473 494 l 442 457 l 443 451 m 547 157 l 545 153 l 544 152 l 545 152 l 549 148 l 564 127 l 584 82 l 581 77 q 570 74 578 71 q 524 107 559 68 l 540 75 l 546 75 l 525 60 l 522 64 l 516 60 l 420 161 l 359 233 l 348 249 l 312 298 l 308 303 l 312 310 q 325 314 317 319 q 338 309 331 317 l 346 321 l 349 361 l 516 593 l 520 587 l 516 581 l 525 593 l 528 587 l 515 564 l 487 531 l 492 522 l 567 629 q 573 625 570 625 l 575 628 q 577 626 576 627 q 584 635 581 629 l 591 635 l 630 668 q 631 663 631 666 l 638 668 q 625 623 645 657 l 631 612 l 649 607 l 649 595 l 441 306 q 583 157 473 288 l 587 152 l 583 146 q 578 152 581 149 l 575 146 q 431 290 460 277 l 431 289 l 479 245 l 475 239 l 555 157 l 553 153 l 547 157 m 490 545 l 479 531 l 479 530 l 490 545 z "},"":{"ha":680,"x_min":66,"x_max":650,"o":"m 251 228 l 131 52 q 114 46 123 63 l 107 46 l 100 57 q 113 100 93 68 l 106 111 l 66 85 l 66 96 l 321 357 l 155 551 l 151 557 l 155 562 l 182 552 l 185 557 l 179 557 l 175 562 l 175 573 l 155 595 l 140 616 l 119 659 l 123 664 q 231 550 209 548 l 191 595 q 150 665 160 641 l 167 682 l 309 549 l 431 435 l 441 419 l 437 371 l 441 366 l 437 359 q 436 326 429 346 l 426 309 l 400 311 l 213 130 l 210 134 l 223 157 l 251 189 l 243 201 l 251 225 l 251 228 m 410 570 l 412 574 l 413 576 l 412 576 l 408 580 l 393 601 l 373 646 l 376 651 q 387 654 379 656 q 433 621 397 659 l 417 652 l 411 652 l 432 667 l 435 664 l 441 667 l 537 567 l 618 450 l 628 434 l 646 411 l 650 406 l 646 399 q 633 395 642 391 q 619 400 627 392 l 644 355 l 627 322 l 441 134 l 437 140 l 441 146 l 432 134 l 429 140 l 442 163 l 470 197 l 465 205 l 390 98 q 384 103 387 103 l 382 100 q 380 102 380 101 q 373 93 376 99 l 366 93 l 327 60 q 326 65 326 62 l 319 60 q 332 105 312 71 l 326 116 l 308 121 l 308 132 l 536 377 q 374 570 504 395 l 370 576 l 374 581 q 378 576 376 578 l 382 581 q 545 393 516 406 l 546 394 l 498 437 l 501 444 l 401 571 l 404 574 l 410 570 m 467 183 l 478 197 l 477 197 l 467 183 z "},"":{"ha":1389,"x_min":0,"x_max":0,"o":""},"":{"ha":814,"x_min":-46,"x_max":784,"o":"m 461 956 q 553 922 469 922 l 646 518 l 726 518 l 726 507 l 657 495 l 657 484 q 692 460 692 484 l 784 460 l 784 449 q 669 403 784 423 l 692 334 l 680 299 l 692 230 l 680 218 l 692 218 l 680 207 l 692 68 l 692 -1 l 680 11 l 669 11 l 703 -162 l 680 -162 q 657 -127 680 -127 l 657 -139 l 669 -174 l 657 -174 l 646 -162 l 634 -162 q 611 -197 634 -197 l 553 -1 l 542 -1 l 542 -47 l 530 -47 l 507 92 l 542 68 l 542 80 q 507 184 532 184 l 519 195 l 519 230 l 496 230 l 496 195 l 484 195 l 484 241 l 496 253 l 484 253 l 473 241 l 473 288 l 484 288 l 496 276 l 507 276 l 496 288 l 496 357 l 242 299 l 242 276 l 323 299 l 369 288 l 427 299 l 427 276 q 184 161 184 233 q 115 -1 154 34 l 115 -24 l 81 -24 l 69 -12 l 58 -12 l 58 -24 l 23 -1 l 46 68 l 35 68 q 0 -24 0 68 l -23 -1 l -12 68 l -46 103 l 150 576 l 161 576 q 184 541 161 541 l 196 599 l 184 587 l 173 587 l 173 633 l 184 691 l 196 680 l 208 680 l 196 691 l 196 703 l 219 749 l 231 749 l 242 737 l 254 737 l 254 749 q 219 772 254 772 l 277 933 l 323 933 l 311 922 l 311 910 q 461 956 391 956 m 392 691 l 300 449 l 323 449 q 450 518 438 449 l 404 691 l 392 691 m 288 622 l 265 541 l 254 553 l 242 553 l 254 507 l 265 507 l 300 610 l 300 622 l 288 622 m 161 518 l 150 507 l 150 484 l 161 484 l 173 518 l 161 518 m 231 472 l 219 426 l 231 426 l 242 437 l 242 472 l 231 472 m 127 460 l 115 414 l 127 414 l 150 460 l 127 460 m 323 426 l 323 414 l 346 414 q 450 449 450 426 l 438 449 l 323 426 m 484 172 l 507 172 l 507 103 l 496 103 l 484 172 m 646 92 l 646 68 l 657 22 l 669 22 l 669 45 l 657 92 l 646 92 m 530 57 l 530 34 l 565 45 l 565 68 l 530 57 m 359 1251 l 368 1251 q 401 1230 379 1251 q 495 1133 452 1199 l 504 1107 l 502 1105 l 500 1107 l 491 1107 l 493 1098 l 491 1086 q 500 1061 500 1069 l 498 1056 l 500 1045 l 496 1040 l 500 1025 l 500 1017 l 496 1017 l 482 1047 l 479 1047 l 479 1045 l 482 1033 l 481 1033 q 490 990 490 1002 l 490 989 q 477 980 490 986 l 472 981 l 463 980 l 458 980 q 412 1089 450 987 q 294 1207 368 1177 q 267 1223 280 1207 q 296 1244 267 1244 l 311 1248 l 326 1244 l 359 1251 z "},"":{"ha":814,"x_min":-48,"x_max":782,"o":"m 459 956 q 551 922 467 922 l 644 518 l 724 518 l 724 507 l 655 495 l 655 484 q 690 460 690 484 l 782 460 l 782 449 q 667 403 782 423 l 690 334 l 678 299 l 690 230 l 678 218 l 690 218 l 678 207 l 690 68 l 690 -1 l 678 11 l 667 11 l 701 -162 l 678 -162 q 655 -127 678 -127 l 655 -139 l 667 -174 l 655 -174 l 644 -162 l 632 -162 q 609 -197 632 -197 l 551 -1 l 540 -1 l 540 -47 l 528 -47 l 505 92 l 540 68 l 540 80 q 505 184 530 184 l 517 195 l 517 230 l 494 230 l 494 195 l 482 195 l 482 241 l 494 253 l 482 253 l 471 241 l 471 288 l 482 288 l 494 276 l 505 276 l 494 288 l 494 357 l 240 299 l 240 276 l 321 299 l 367 288 l 425 299 l 425 276 q 182 161 182 233 q 113 -1 152 34 l 113 -24 l 79 -24 l 67 -12 l 56 -12 l 56 -24 l 21 -1 l 44 68 l 33 68 q -2 -24 -2 68 l -25 -1 l -14 68 l -48 103 l 148 576 l 159 576 q 182 541 159 541 l 194 599 l 182 587 l 171 587 l 171 633 l 182 691 l 194 680 l 205 680 l 194 691 l 194 703 l 217 749 l 229 749 l 240 737 l 252 737 l 252 749 q 217 772 252 772 l 275 933 l 321 933 l 309 922 l 309 910 q 459 956 389 956 m 390 691 l 298 449 l 321 449 q 448 518 436 449 l 401 691 l 390 691 m 286 622 l 263 541 l 252 553 l 240 553 l 252 507 l 263 507 l 298 610 l 298 622 l 286 622 m 159 518 l 148 507 l 148 484 l 159 484 l 171 518 l 159 518 m 229 472 l 217 426 l 229 426 l 240 437 l 240 472 l 229 472 m 125 460 l 113 414 l 125 414 l 148 460 l 125 460 m 321 426 l 321 414 l 344 414 q 448 449 448 426 l 436 449 l 321 426 m 482 172 l 505 172 l 505 103 l 494 103 l 482 172 m 644 92 l 644 68 l 655 22 l 667 22 l 667 45 l 655 92 l 644 92 m 528 57 l 528 34 l 563 45 l 563 68 l 528 57 m 644 1255 l 654 1240 l 652 1238 l 654 1236 l 655 1236 l 657 1238 l 659 1236 l 659 1235 q 647 1201 659 1221 q 633 1174 647 1194 l 635 1174 l 661 1203 l 662 1203 l 662 1201 l 661 1193 q 666 1183 664 1193 q 626 1122 650 1152 l 619 1110 l 621 1108 l 625 1108 q 637 1125 625 1116 l 638 1125 l 638 1124 q 614 1090 614 1095 l 623 1097 l 625 1097 l 625 1095 q 554 1009 594 1051 l 556 1007 l 556 1006 q 515 975 556 990 l 507 973 q 429 1041 474 973 l 407 1066 q 370 1002 382 1036 l 362 999 l 359 999 l 354 1002 l 352 1002 q 332 967 349 1002 l 330 965 l 328 965 q 292 999 307 965 q 260 1038 274 999 q 282 1076 260 1043 l 319 1128 q 373 1191 343 1165 l 376 1191 q 414 1144 388 1191 q 453 1073 439 1118 l 455 1072 l 458 1072 q 566 1166 493 1072 q 614 1223 584 1183 l 644 1255 z "},"":{"ha":848,"x_min":21,"x_max":828,"o":"m 517 907 q 770 826 652 907 l 759 814 l 759 803 l 805 734 l 782 734 l 770 745 l 759 745 l 793 492 l 805 492 q 828 549 805 549 l 828 503 q 713 203 828 438 l 724 203 q 482 -4 643 92 l 425 -16 l 413 -16 q 67 203 139 -16 l 21 273 l 33 284 l 21 365 l 21 388 q 205 722 21 484 l 205 711 q 67 457 121 597 l 67 446 l 79 446 q 390 872 121 614 l 309 826 l 298 826 q 517 907 298 879 m 459 711 l 448 722 l 448 711 l 459 699 l 378 630 q 194 307 283 630 q 298 146 194 215 l 309 146 q 597 411 435 146 q 655 595 655 537 l 655 688 q 540 734 655 720 l 528 734 l 517 722 l 505 722 l 505 734 l 459 711 m 793 676 l 817 676 l 817 618 l 793 618 l 793 676 m 205 549 l 171 480 l 182 480 l 217 549 l 205 549 m 655 480 l 609 365 l 644 365 l 678 446 l 667 480 l 655 480 m 736 434 l 724 399 l 724 376 l 736 376 l 747 422 l 747 434 l 736 434 m 56 388 l 56 296 l 67 296 l 67 388 l 56 388 m 597 353 l 551 296 l 563 296 l 609 353 l 597 353 m 229 100 l 229 88 l 286 54 l 286 65 l 229 100 m 777 1255 l 787 1240 l 785 1238 l 787 1237 l 788 1237 l 790 1238 l 791 1237 l 791 1235 q 780 1202 791 1221 q 766 1175 780 1194 l 768 1175 l 793 1203 l 795 1203 l 795 1202 l 793 1193 q 798 1183 797 1193 q 759 1122 783 1152 l 752 1110 l 754 1109 l 758 1109 q 769 1126 758 1116 l 771 1126 l 771 1124 q 747 1090 747 1095 l 755 1097 l 758 1097 l 758 1095 q 687 1009 727 1052 l 689 1008 l 689 1006 q 648 975 689 991 l 639 974 q 562 1041 607 974 l 540 1067 q 502 1002 515 1036 l 495 999 l 492 999 l 487 1002 l 485 1002 q 465 967 482 1002 l 463 966 l 461 966 q 425 999 439 966 q 393 1038 407 999 q 415 1077 393 1044 l 452 1129 q 505 1192 476 1166 l 509 1192 q 547 1144 521 1192 q 586 1074 572 1119 l 588 1072 l 591 1072 q 699 1166 626 1072 q 747 1223 717 1184 l 777 1255 z "},"":{"ha":1115,"x_min":16,"x_max":1114,"o":"m 417 711 l 406 722 l 406 711 l 417 699 l 343 630 q 174 307 255 630 q 269 146 174 215 l 279 146 q 544 411 395 146 q 597 595 597 537 l 597 688 q 491 734 597 720 l 480 734 l 470 722 l 459 722 l 459 734 l 417 711 m 184 549 l 153 480 l 163 480 l 195 549 l 184 549 m 588 480 l 542 365 l 576 365 l 611 446 l 600 480 l 588 480 m 669 434 l 657 399 l 657 376 l 669 376 l 680 422 l 680 434 l 669 434 m 530 353 l 484 296 l 496 296 l 542 353 l 530 353 m 205 100 l 205 88 l 258 54 l 258 65 l 205 100 m 851 726 l 861 726 l 850 727 l 851 726 m 627 871 l 630 903 l 642 902 l 652 890 l 665 901 l 676 900 l 687 888 l 699 899 l 734 896 l 1059 898 l 1114 859 q 1027 761 1090 757 l 804 753 l 803 730 l 851 726 l 862 715 l 873 714 l 954 720 l 977 718 l 977 707 l 788 684 l 767 536 l 779 535 l 1013 554 l 1023 542 l 1023 530 l 1000 532 l 999 521 l 1078 503 l 1078 492 q 826 393 1053 427 l 727 390 q 694 307 714 353 l 665 231 l 662 231 q 650 203 656 218 l 660 203 q 641 177 651 190 q 1035 206 897 216 l 1092 191 l 1090 168 l 1067 169 l 1078 157 l 1076 123 q 935 85 1042 79 l 934 74 l 1026 68 l 1024 45 l 567 -28 l 555 -27 q 500 9 500 -16 l 500 10 l 503 41 q 438 -4 472 18 l 385 -16 l 375 -16 q 58 203 123 -16 l 16 273 l 26 284 l 16 365 l 16 388 q 184 722 16 484 l 184 711 q 58 457 106 597 l 58 446 l 68 446 q 353 872 106 614 l 279 826 l 269 826 q 470 907 269 879 q 627 871 552 907 z "},"":{"ha":1115,"x_min":16,"x_max":1114,"o":"m 417 711 l 406 722 l 406 711 l 417 699 l 343 630 q 174 307 255 630 q 269 146 174 215 l 279 146 q 544 411 395 146 q 597 595 597 537 l 597 688 q 491 734 597 720 l 480 734 l 470 722 l 459 722 l 459 734 l 417 711 m 184 549 l 153 480 l 163 480 l 195 549 l 184 549 m 588 480 l 542 365 l 576 365 l 611 446 l 600 480 l 588 480 m 669 434 l 657 399 l 657 376 l 669 376 l 680 422 l 680 434 l 669 434 m 530 353 l 484 296 l 496 296 l 542 353 l 530 353 m 205 100 l 205 88 l 258 54 l 258 65 l 205 100 m 851 726 l 861 726 l 850 727 l 851 726 m 627 871 l 630 903 l 642 902 l 652 890 l 665 901 l 676 900 l 687 888 l 699 899 l 734 896 l 1059 898 l 1114 859 q 1027 761 1090 757 l 804 753 l 803 730 l 851 726 l 862 715 l 873 714 l 954 720 l 977 718 l 977 707 l 788 684 l 767 536 l 779 535 l 1013 554 l 1023 542 l 1023 530 l 1000 532 l 999 521 l 1078 503 l 1078 492 q 826 393 1053 427 l 727 390 q 694 307 714 353 l 665 231 l 662 231 q 650 203 656 218 l 660 203 q 641 177 651 190 q 1035 206 897 216 l 1092 191 l 1090 168 l 1067 169 l 1078 157 l 1076 123 q 935 85 1042 79 l 934 74 l 1026 68 l 1024 45 l 567 -28 l 555 -27 q 500 9 500 -16 l 500 10 l 503 41 q 438 -4 472 18 l 385 -16 l 375 -16 q 58 203 123 -16 l 16 273 l 26 284 l 16 365 l 16 388 q 184 722 16 484 l 184 711 q 58 457 106 597 l 58 446 l 68 446 q 353 872 106 614 l 279 826 l 269 826 q 470 907 269 879 q 627 871 552 907 z "},"":{"ha":1000,"x_min":50,"x_max":965,"o":"m 903 605 l 902 597 l 893 589 l 892 581 q 965 561 965 577 l 957 561 l 964 553 l 963 536 q 831 512 962 517 l 808 522 l 783 515 l 782 507 l 888 500 l 895 492 l 903 491 l 895 484 l 894 467 l 910 466 l 909 450 q 418 432 850 429 l 98 403 q 63 487 58 406 l 81 502 l 81 510 q 50 534 50 512 l 50 536 l 53 585 l 71 600 l 103 598 q 650 615 449 615 q 813 611 749 615 l 903 605 m 668 494 l 470 489 l 456 477 l 527 475 l 712 477 l 668 494 z "},"":{"ha":1422,"x_min":45,"x_max":1394,"o":"m 1345 630 l 1394 628 l 1393 595 q 991 532 1391 551 l 982 507 l 1023 505 l 1300 518 l 1299 502 q 1241 479 1242 499 l 1257 479 l 1339 484 l 1347 475 l 1347 467 l 1068 430 l 1061 439 l 1019 433 l 1011 433 l 930 444 l 857 439 l 848 440 l 849 448 l 857 456 l 858 464 l 507 463 l 507 454 l 613 450 l 612 434 l 604 434 l 74 425 l 45 499 l 62 515 l 47 540 l 49 597 l 66 612 l 90 611 q 1345 630 339 600 m 550 510 l 550 502 l 623 498 l 615 507 l 616 515 l 550 510 m 248 498 l 248 490 l 256 490 l 444 498 l 444 506 l 380 517 l 248 498 m 418 458 l 417 450 l 458 449 l 458 457 l 418 458 m 654 456 l 784 451 l 783 435 l 653 440 l 654 456 z "},"":{"ha":391,"x_min":31,"x_max":360,"o":"m 43 732 l 70 899 l 70 954 l 52 981 l 79 1023 l 190 968 l 190 954 q 149 635 158 771 l 147 636 q 153 606 149 621 l 146 564 q 126 619 130 564 l 119 619 l 119 592 l 92 592 l 79 661 l 73 647 l 66 647 q 31 744 42 683 l 43 732 m 211 882 l 240 889 l 240 944 l 222 966 l 250 1016 l 360 994 l 360 981 q 319 649 303 747 l 317 649 q 323 621 319 635 l 316 576 q 296 625 300 572 l 290 623 l 290 596 l 262 589 l 243 611 l 237 595 l 230 593 q 201 722 206 622 l 211 882 z "},"":{"ha":391,"x_min":31,"x_max":360,"o":"m 43 732 l 70 899 l 70 954 l 52 981 l 79 1023 l 190 968 l 190 954 q 149 635 158 771 l 147 636 q 153 606 149 621 l 146 564 q 126 619 130 564 l 119 619 l 119 592 l 92 592 l 79 661 l 73 647 l 66 647 q 31 744 42 683 l 43 732 m 211 882 l 240 889 l 240 944 l 222 966 l 250 1016 l 360 994 l 360 981 q 319 649 303 747 l 317 649 q 323 621 319 635 l 316 576 q 296 625 300 572 l 290 623 l 290 596 l 262 589 l 243 611 l 237 595 l 230 593 q 201 722 206 622 l 211 882 z "},"":{"ha":320,"x_min":45,"x_max":294,"o":"m 54 859 l 67 859 l 79 776 l 54 776 l 54 749 l 45 755 l 54 859 m 67 913 l 79 913 l 92 859 l 67 859 l 67 913 m 67 707 l 67 652 l 79 652 l 79 707 l 67 707 m 94 732 l 117 885 l 104 872 l 92 872 l 92 913 l 117 941 l 117 899 l 130 899 l 130 954 l 104 981 l 143 1023 l 294 968 l 294 954 q 237 635 250 771 l 235 636 q 243 606 239 621 l 233 564 q 206 619 211 564 l 197 619 l 197 592 l 161 592 l 143 661 l 134 647 l 124 647 q 76 744 92 683 l 94 732 m 121 707 l 110 714 q 134 674 123 674 l 121 707 z "},"":{"ha":320,"x_min":45,"x_max":294,"o":"m 54 859 l 67 859 l 79 776 l 54 776 l 54 749 l 45 755 l 54 859 m 67 913 l 79 913 l 92 859 l 67 859 l 67 913 m 67 707 l 67 652 l 79 652 l 79 707 l 67 707 m 94 732 l 117 885 l 104 872 l 92 872 l 92 913 l 117 941 l 117 899 l 130 899 l 130 954 l 104 981 l 143 1023 l 294 968 l 294 954 q 237 635 250 771 l 235 636 q 243 606 239 621 l 233 564 q 206 619 211 564 l 197 619 l 197 592 l 161 592 l 143 661 l 134 647 l 124 647 q 76 744 92 683 l 94 732 m 121 707 l 110 714 q 134 674 123 674 l 121 707 z "},"":{"ha":762,"x_min":0,"x_max":0,"o":""},"":{"ha":686,"x_min":0,"x_max":0,"o":""},"":{"ha":672,"x_min":1,"x_max":719,"o":"m 557 932 l 569 932 l 569 909 l 581 921 l 592 921 q 673 875 673 894 l 615 806 l 638 806 q 684 863 684 829 l 719 863 l 719 852 l 707 840 l 719 829 l 719 817 q 319 115 309 376 l 296 0 l 307 -12 l 307 -23 l 250 -127 l 157 -115 l 157 -23 l 123 22 l 123 45 l 134 184 l 146 172 l 157 172 l 146 184 l 146 195 l 157 207 l 157 218 l 146 230 l 180 241 l 169 184 l 169 138 l 180 138 l 194 277 l 182 311 l 171 311 l 171 277 l 159 277 l 148 369 l 159 380 l 159 392 l 1 797 l 1 820 l 24 820 l 1 878 l 12 889 l 35 889 q 70 831 62 889 l 104 854 l 139 854 q 263 553 139 783 q 378 703 330 680 l 378 692 q 263 519 263 545 l 263 507 l 275 507 l 546 875 l 546 886 l 413 749 l 413 761 l 557 932 m 413 749 l 413 738 l 390 715 l 390 726 l 413 749 m 569 760 q 321 392 321 441 l 344 392 q 581 760 444 584 l 569 760 m 192 -46 l 192 -92 l 203 -92 l 203 -46 l 192 -46 m 511 1225 l 513 1223 l 524 1225 l 526 1225 l 547 1200 l 547 1193 q 500 1145 500 1151 l 502 1145 q 554 1178 534 1173 l 565 1156 l 558 1135 l 561 1137 l 565 1137 l 572 1130 l 572 1128 q 511 1054 569 1113 q 489 1013 494 1032 l 480 1006 l 478 1006 q 444 1028 469 1006 q 433 1050 436 1028 q 415 1065 422 1065 q 385 1119 385 1098 l 385 1121 q 500 1221 470 1211 l 511 1225 m 261 1223 q 288 1217 288 1221 l 285 1214 l 285 1212 q 304 1199 293 1212 l 304 1192 q 277 1177 298 1185 q 229 1143 235 1154 l 231 1143 q 315 1179 281 1179 l 324 1162 q 328 1147 327 1162 q 337 1127 337 1147 q 257 1062 265 1082 q 235 1021 248 1061 l 212 1015 q 174 1060 174 1038 q 168 1071 171 1060 q 131 1110 153 1071 l 129 1130 q 248 1221 181 1201 l 261 1223 z "},"":{"ha":672,"x_min":1,"x_max":719,"o":"m 557 932 l 569 932 l 569 909 l 581 921 l 592 921 q 673 875 673 894 l 615 806 l 638 806 q 684 863 684 829 l 719 863 l 719 852 l 707 840 l 719 829 l 719 817 q 319 115 309 376 l 296 0 l 307 -12 l 307 -23 l 250 -127 l 157 -115 l 157 -23 l 123 22 l 123 45 l 134 184 l 146 172 l 157 172 l 146 184 l 146 195 l 157 207 l 157 218 l 146 230 l 180 241 l 169 184 l 169 138 l 180 138 l 194 277 l 182 311 l 171 311 l 171 277 l 159 277 l 148 369 l 159 380 l 159 392 l 1 797 l 1 820 l 24 820 l 1 878 l 12 889 l 35 889 q 70 831 62 889 l 104 854 l 139 854 q 263 553 139 783 q 378 703 330 680 l 378 692 q 263 519 263 545 l 263 507 l 275 507 l 546 875 l 546 886 l 413 749 l 413 761 l 557 932 m 413 749 l 413 738 l 390 715 l 390 726 l 413 749 m 569 760 q 321 392 321 441 l 344 392 q 581 760 444 584 l 569 760 m 192 -46 l 192 -92 l 203 -92 l 203 -46 l 192 -46 m 511 1225 l 513 1223 l 524 1225 l 526 1225 l 548 1200 l 548 1193 q 500 1145 500 1151 l 502 1145 q 554 1178 534 1173 l 565 1156 l 559 1135 l 561 1137 l 565 1137 l 572 1130 l 572 1128 q 511 1054 570 1113 q 489 1013 494 1032 l 480 1006 l 478 1006 q 444 1028 469 1006 q 433 1050 437 1028 q 415 1065 422 1065 q 385 1119 385 1098 l 385 1121 q 500 1221 470 1211 l 511 1225 m 261 1223 q 288 1217 288 1221 l 286 1214 l 286 1212 q 304 1199 293 1212 l 304 1192 q 277 1177 298 1185 q 229 1143 235 1154 l 231 1143 q 315 1179 281 1179 l 324 1162 q 329 1147 327 1162 q 337 1127 337 1147 q 257 1062 265 1082 q 235 1021 248 1061 l 212 1015 q 174 1060 174 1038 q 168 1071 171 1060 q 131 1110 153 1071 l 129 1130 q 248 1221 181 1201 l 261 1223 z "},"":{"ha":232,"x_min":0,"x_max":0,"o":""},"":{"ha":838,"x_min":11,"x_max":817,"o":"m 496 856 q 427 810 427 833 l 508 844 l 508 856 l 496 856 m 195 122 l 195 87 l 206 41 l 218 41 l 218 53 l 206 122 l 195 122 m 345 566 q 317 526 330 547 q 487 552 427 535 l 487 551 q 522 562 505 556 l 581 566 q 525 538 593 553 l 530 533 l 565 539 l 585 519 l 562 498 l 585 496 l 590 490 q 433 437 560 464 l 269 416 l 262 393 q 489 416 387 403 l 488 414 q 526 426 507 420 l 583 429 q 518 400 588 416 l 520 395 l 555 401 l 565 378 l 480 353 l 500 350 l 503 345 q 389 293 464 316 l 399 307 l 262 298 q 386 136 279 169 q 713 330 524 94 l 725 330 l 725 318 q 760 307 716 263 l 794 260 l 794 226 q 749 172 794 189 l 737 160 l 726 160 l 726 137 q 794 157 794 114 l 817 157 l 817 145 q 490 -16 652 -16 l 397 -22 q 253 52 310 -22 l 253 41 l 271 0 l 271 -11 l 236 -11 q 109 173 129 62 l 101 279 l 74 258 l 11 272 l 43 376 l 61 380 q 102 382 82 381 q 105 401 104 392 l 35 413 l 25 510 l 43 513 q 129 515 88 514 q 146 565 136 541 l 146 560 l 157 574 l 161 548 l 186 614 l 200 631 l 168 557 l 179 572 l 182 576 q 260 720 225 669 l 264 725 q 325 791 281 751 l 329 802 q 444 865 380 838 l 409 853 l 397 853 l 397 865 l 501 888 l 513 888 q 766 749 680 888 l 766 738 l 743 738 l 755 726 l 755 715 q 686 738 686 723 q 575 725 627 738 l 566 734 l 543 723 l 545 729 l 542 731 q 458 691 507 732 l 451 684 l 374 611 l 376 609 l 366 592 q 349 571 357 582 l 347 571 l 345 566 z "},"":{"ha":463,"x_min":0,"x_max":0,"o":""},"":{"ha":463,"x_min":0,"x_max":0,"o":""},"":{"ha":694,"x_min":0,"x_max":0,"o":""},"":{"ha":694,"x_min":0,"x_max":0,"o":""},"":{"ha":772,"x_min":0,"x_max":0,"o":""},"":{"ha":677,"x_min":196,"x_max":484,"o":"m 330 318 q 317 317 323 317 q 287 333 298 317 l 280 345 q 282 355 278 352 l 300 358 l 319 372 l 318 373 l 314 376 l 301 367 q 294 368 295 366 l 291 366 q 260 375 264 359 l 256 378 q 260 382 256 381 l 261 384 l 260 387 q 222 439 239 413 q 200 470 204 455 l 201 471 l 199 472 l 199 479 l 196 485 l 210 554 q 242 625 213 581 q 277 661 264 657 l 281 662 l 294 657 l 328 678 q 338 680 332 680 q 407 646 366 680 q 471 576 465 596 l 477 557 l 481 542 q 484 520 484 532 q 471 447 484 491 q 397 353 428 373 l 373 332 l 357 332 l 330 318 z "},"":{"ha":477,"x_min":94,"x_max":323,"o":"m 261 254 l 292 254 q 323 186 323 241 l 323 182 q 313 111 323 153 l 317 83 q 230 -111 260 -111 q 202 -157 230 -142 l 190 -157 q 155 -126 155 -151 q 193 -51 160 -51 l 196 -48 l 196 -45 l 177 -17 l 183 20 l 149 8 q 97 24 97 16 l 94 33 q 131 117 94 117 l 134 120 l 134 123 l 112 151 q 149 235 117 235 l 261 254 m 214 139 l 218 139 l 248 145 l 248 155 l 245 155 q 214 139 230 155 z "},"":{"ha":694,"x_min":94,"x_max":615,"o":"m 261 254 l 292 254 q 323 186 323 241 l 323 182 q 313 111 323 153 l 317 83 q 230 -111 260 -111 q 202 -157 230 -142 l 190 -157 q 155 -126 155 -151 q 193 -51 160 -51 l 196 -48 l 196 -45 l 177 -17 l 183 20 l 149 8 q 97 24 97 16 l 94 33 q 131 117 94 117 l 134 120 l 134 123 l 112 151 q 149 235 117 235 l 261 254 m 214 139 l 218 139 l 248 145 l 248 155 l 245 155 q 214 139 230 155 m 553 254 l 584 254 q 615 185 615 240 l 615 182 q 606 110 615 152 l 609 82 q 534 -77 553 -111 q 506 -123 534 -109 l 494 -123 q 459 -92 459 -117 q 485 -51 452 -51 l 488 -48 l 488 -45 l 469 -17 l 527 43 l 441 7 q 389 23 389 16 l 400 35 q 423 117 400 119 l 426 119 l 426 123 l 404 151 q 441 235 410 235 l 553 254 m 470 143 l 479 143 l 558 157 l 558 180 l 551 180 q 470 143 511 180 z "},"":{"ha":1389,"x_min":0,"x_max":0,"o":""},"":{"ha":814,"x_min":-48,"x_max":782,"o":"m 459 956 q 551 922 467 922 l 644 518 l 724 518 l 724 507 l 655 495 l 655 484 q 690 460 690 484 l 782 460 l 782 449 q 667 403 782 423 l 690 334 l 678 299 l 690 230 l 678 218 l 690 218 l 678 207 l 690 68 l 690 -1 l 678 11 l 667 11 l 701 -162 l 678 -162 q 655 -127 678 -127 l 655 -139 l 667 -174 l 655 -174 l 644 -162 l 632 -162 q 609 -197 632 -197 l 551 -1 l 540 -1 l 540 -47 l 528 -47 l 505 92 l 540 68 l 540 80 q 505 184 530 184 l 517 195 l 517 230 l 494 230 l 494 195 l 482 195 l 482 241 l 494 253 l 482 253 l 471 241 l 471 288 l 482 288 l 494 276 l 505 276 l 494 288 l 494 357 l 240 299 l 240 276 l 321 299 l 367 288 l 425 299 l 425 276 q 182 161 182 233 q 113 -1 152 34 l 113 -24 l 79 -24 l 67 -12 l 56 -12 l 56 -24 l 21 -1 l 44 68 l 33 68 q -2 -24 -2 68 l -25 -1 l -14 68 l -48 103 l 148 576 l 159 576 q 182 541 159 541 l 194 599 l 182 587 l 171 587 l 171 633 l 182 691 l 194 680 l 205 680 l 194 691 l 194 703 l 217 749 l 229 749 l 240 737 l 252 737 l 252 749 q 217 772 252 772 l 275 933 l 321 933 l 309 922 l 309 910 q 459 956 389 956 m 390 691 l 298 449 l 321 449 q 448 518 436 449 l 401 691 l 390 691 m 286 622 l 263 541 l 252 553 l 240 553 l 252 507 l 263 507 l 298 610 l 298 622 l 286 622 m 159 518 l 148 507 l 148 484 l 159 484 l 171 518 l 159 518 m 229 472 l 217 426 l 229 426 l 240 437 l 240 472 l 229 472 m 125 460 l 113 414 l 125 414 l 148 460 l 125 460 m 321 426 l 321 414 l 344 414 q 448 449 448 426 l 436 449 l 321 426 m 482 172 l 505 172 l 505 103 l 494 103 l 482 172 m 644 92 l 644 68 l 655 22 l 667 22 l 667 45 l 655 92 l 644 92 m 528 57 l 528 34 l 563 45 l 563 68 l 528 57 m 567 1249 q 608 1106 600 1249 l 608 1072 q 581 1027 608 1027 q 569 1023 581 1023 l 553 1023 q 546 1044 547 1023 l 544 1046 l 539 1046 q 528 1025 539 1031 l 521 1027 q 498 1011 511 1011 l 495 1011 q 475 1016 491 1016 q 460 1032 460 1019 l 460 1044 l 452 1113 l 447 1113 q 396 1062 447 1095 q 327 998 359 998 l 325 998 l 309 1002 l 309 1000 q 276 986 309 988 q 258 1009 258 998 l 258 1011 q 368 1164 265 1044 q 484 1228 437 1228 l 493 1225 q 567 1249 533 1249 z "},"":{"ha":697,"x_min":0,"x_max":694,"o":"m 638 903 l 694 865 q 606 766 669 762 l 304 753 l 303 730 l 360 726 l 430 732 l 441 720 l 452 719 l 534 726 l 557 724 l 556 712 l 288 684 l 267 535 l 279 534 l 592 559 l 602 547 l 602 536 l 578 538 l 578 526 l 658 509 l 657 497 q 326 393 632 433 l 210 389 l 221 377 l 165 231 l 154 231 l 161 334 l 149 335 l 127 175 q 614 212 472 221 l 671 196 l 670 173 l 647 174 l 657 162 l 655 127 q 514 91 622 84 l 513 79 l 606 73 l 604 50 l 67 -28 l 56 -28 q 0 8 0 -16 l 0 10 l 2 45 l 34 170 l 23 182 l 46 181 l 42 123 l 54 122 q 81 178 60 180 l 70 191 l 78 305 l 55 307 l 39 250 l 52 261 l 64 260 l 59 191 l 47 193 l 50 227 l 38 227 l 37 204 l 25 205 l 26 228 l 63 422 l 52 423 l 78 479 l 67 491 l 68 503 l 93 697 l 104 685 l 115 684 l 117 707 l 109 766 l 127 869 l 130 903 l 141 902 l 152 890 l 164 901 l 176 899 l 186 888 l 199 899 l 233 896 l 638 903 m 61 399 l 56 319 l 67 318 l 73 398 l 61 399 m 441 385 l 453 385 l 452 373 l 243 352 l 232 365 l 233 376 l 337 380 l 336 369 l 441 385 m 557 1249 q 600 1106 591 1249 l 600 1072 q 572 1028 600 1028 q 560 1023 572 1023 l 544 1023 q 537 1044 538 1023 l 534 1046 l 530 1046 q 519 1025 530 1031 l 511 1028 q 488 1012 501 1012 l 486 1012 q 465 1017 481 1017 q 452 1033 452 1019 l 452 1044 l 442 1114 l 438 1114 q 387 1063 438 1096 q 318 998 350 998 l 315 998 l 300 1002 l 300 1000 q 267 987 300 989 q 249 1010 249 998 l 249 1012 q 359 1164 256 1044 q 475 1229 429 1229 l 484 1226 q 557 1249 524 1249 z "},"":{"ha":814,"x_min":-48,"x_max":782,"o":"m 459 956 q 551 922 467 922 l 644 518 l 724 518 l 724 507 l 655 495 l 655 484 q 690 460 690 484 l 782 460 l 782 449 q 667 403 782 423 l 690 334 l 678 299 l 690 230 l 678 218 l 690 218 l 678 207 l 690 68 l 690 -1 l 678 11 l 667 11 l 701 -162 l 678 -162 q 655 -127 678 -127 l 655 -139 l 667 -174 l 655 -174 l 644 -162 l 632 -162 q 609 -197 632 -197 l 551 -1 l 540 -1 l 540 -47 l 528 -47 l 505 92 l 540 68 l 540 80 q 505 184 530 184 l 517 195 l 517 230 l 494 230 l 494 195 l 482 195 l 482 241 l 494 253 l 482 253 l 471 241 l 471 288 l 482 288 l 494 276 l 505 276 l 494 288 l 494 357 l 240 299 l 240 276 l 321 299 l 367 288 l 425 299 l 425 276 q 182 161 182 233 q 113 -1 152 34 l 113 -24 l 79 -24 l 67 -12 l 56 -12 l 56 -24 l 21 -1 l 44 68 l 33 68 q -2 -24 -2 68 l -25 -1 l -14 68 l -48 103 l 148 576 l 159 576 q 182 541 159 541 l 194 599 l 182 587 l 171 587 l 171 633 l 182 691 l 194 680 l 205 680 l 194 691 l 194 703 l 217 749 l 229 749 l 240 737 l 252 737 l 252 749 q 217 772 252 772 l 275 933 l 321 933 l 309 922 l 309 910 q 459 956 389 956 m 390 691 l 298 449 l 321 449 q 448 518 436 449 l 401 691 l 390 691 m 286 622 l 263 541 l 252 553 l 240 553 l 252 507 l 263 507 l 298 610 l 298 622 l 286 622 m 159 518 l 148 507 l 148 484 l 159 484 l 171 518 l 159 518 m 229 472 l 217 426 l 229 426 l 240 437 l 240 472 l 229 472 m 125 460 l 113 414 l 125 414 l 148 460 l 125 460 m 321 426 l 321 414 l 344 414 q 448 449 448 426 l 436 449 l 321 426 m 482 172 l 505 172 l 505 103 l 494 103 l 482 172 m 644 92 l 644 68 l 655 22 l 667 22 l 667 45 l 655 92 l 644 92 m 528 57 l 528 34 l 563 45 l 563 68 l 528 57 m 570 1259 q 572 1249 572 1256 q 582 1239 580 1249 q 509 1162 582 1227 q 484 1135 509 1158 q 472 1114 472 1121 q 582 1216 557 1202 l 583 1216 l 582 1208 l 585 1206 q 565 1178 585 1196 l 572 1175 l 585 1184 l 587 1183 l 587 1179 q 581 1165 582 1175 q 495 1078 520 1109 q 440 993 444 1023 l 437 988 q 412 1007 412 991 l 408 1011 l 408 1015 l 410 1019 l 408 1019 q 383 1057 391 1019 q 440 1137 400 1096 q 545 1239 469 1173 l 570 1259 m 533 1143 l 533 1142 l 534 1142 l 545 1154 l 544 1154 l 533 1143 m 526 1136 l 526 1135 l 528 1137 l 528 1139 l 526 1136 m 513 1123 l 513 1122 l 517 1126 l 517 1127 l 513 1123 m 509 1120 l 507 1116 l 510 1116 l 510 1120 l 509 1120 m 456 1097 l 467 1109 l 466 1109 q 456 1097 456 1105 z "},"":{"ha":697,"x_min":0,"x_max":694,"o":"m 638 903 l 694 865 q 606 766 669 762 l 304 753 l 303 730 l 360 726 l 430 732 l 441 720 l 452 719 l 534 726 l 557 724 l 556 712 l 288 684 l 267 535 l 279 534 l 592 559 l 602 547 l 602 536 l 578 538 l 578 526 l 658 509 l 657 497 q 326 393 632 433 l 210 389 l 221 377 l 165 231 l 154 231 l 161 334 l 149 335 l 127 175 q 614 212 472 221 l 671 196 l 670 173 l 647 174 l 657 162 l 655 127 q 514 91 622 84 l 513 79 l 606 73 l 604 50 l 67 -28 l 56 -28 q 0 8 0 -16 l 0 10 l 2 45 l 34 170 l 23 182 l 46 181 l 42 123 l 54 122 q 81 178 60 180 l 70 191 l 78 305 l 55 307 l 39 250 l 52 261 l 64 260 l 59 191 l 47 193 l 50 227 l 38 227 l 37 204 l 25 205 l 26 228 l 63 422 l 52 423 l 78 479 l 67 491 l 68 503 l 93 697 l 104 685 l 115 684 l 117 707 l 109 766 l 127 869 l 130 903 l 141 902 l 152 890 l 164 901 l 176 899 l 186 888 l 199 899 l 233 896 l 638 903 m 61 399 l 56 319 l 67 318 l 73 398 l 61 399 m 441 385 l 453 385 l 452 373 l 243 352 l 232 365 l 233 376 l 337 380 l 336 369 l 441 385 m 591 1225 l 593 1223 l 604 1225 l 606 1225 l 628 1200 l 628 1193 q 580 1145 580 1151 l 582 1145 q 634 1178 614 1173 l 645 1156 l 639 1135 l 641 1137 l 645 1137 l 652 1130 l 652 1128 q 591 1054 650 1114 q 569 1013 574 1033 l 560 1006 l 558 1006 q 524 1028 549 1006 q 513 1050 517 1028 q 495 1065 502 1065 q 465 1119 465 1098 l 465 1122 q 580 1221 551 1211 l 591 1225 m 341 1223 q 368 1217 368 1221 l 366 1215 l 366 1212 q 385 1199 373 1212 l 385 1193 q 357 1177 378 1185 q 309 1143 315 1154 l 311 1143 q 395 1179 361 1179 l 404 1162 q 409 1147 407 1162 q 417 1128 417 1147 q 337 1063 345 1082 q 315 1021 328 1061 l 292 1015 q 254 1060 254 1038 q 248 1071 251 1060 q 211 1110 233 1071 l 209 1130 q 328 1221 261 1201 l 341 1223 z "},"":{"ha":697,"x_min":0,"x_max":694,"o":"m 638 903 l 694 865 q 606 766 669 762 l 304 753 l 303 730 l 360 726 l 430 732 l 441 720 l 452 719 l 534 726 l 557 724 l 556 712 l 288 684 l 267 535 l 279 534 l 592 559 l 602 547 l 602 536 l 578 538 l 578 526 l 658 509 l 657 497 q 326 393 632 433 l 210 389 l 221 377 l 165 231 l 154 231 l 161 334 l 149 335 l 127 175 q 614 212 472 221 l 671 196 l 670 173 l 647 174 l 657 162 l 655 127 q 514 91 622 84 l 513 79 l 606 73 l 604 50 l 67 -28 l 56 -28 q 0 8 0 -16 l 0 10 l 2 45 l 34 170 l 23 182 l 46 181 l 42 123 l 54 122 q 81 178 60 180 l 70 191 l 78 305 l 55 307 l 39 250 l 52 261 l 64 260 l 59 191 l 47 193 l 50 227 l 38 227 l 37 204 l 25 205 l 26 228 l 63 422 l 52 423 l 78 479 l 67 491 l 68 503 l 93 697 l 104 685 l 115 684 l 117 707 l 109 766 l 127 869 l 130 903 l 141 902 l 152 890 l 164 901 l 176 899 l 186 888 l 199 899 l 233 896 l 638 903 m 61 399 l 56 319 l 67 318 l 73 398 l 61 399 m 441 385 l 453 385 l 452 373 l 243 352 l 232 365 l 233 376 l 337 380 l 336 369 l 441 385 m 357 1251 l 366 1251 q 399 1230 378 1251 q 493 1133 450 1198 l 502 1107 l 500 1105 l 498 1107 l 490 1107 l 491 1098 l 490 1085 q 498 1061 498 1068 l 496 1055 l 498 1045 l 494 1040 l 498 1025 l 498 1017 l 494 1017 l 481 1046 l 477 1046 l 477 1045 l 481 1032 l 479 1032 q 488 990 488 1002 l 488 988 q 475 979 488 985 l 470 981 l 461 979 l 456 979 q 410 1089 448 986 q 292 1207 366 1177 q 265 1223 279 1207 q 294 1244 265 1244 l 309 1248 l 323 1244 l 357 1251 z "},"":{"ha":326,"x_min":29,"x_max":399,"o":"m 261 899 q 304 865 258 865 l 326 819 l 313 807 l 325 807 q 224 242 242 563 l 220 173 l 231 161 l 231 150 l 218 138 l 230 138 l 218 127 l 224 46 l 223 23 q 159 -92 161 -52 l 113 -92 l 57 -69 l 73 12 l 29 58 l 50 231 l 62 438 l 87 473 l 90 519 l 79 530 l 79 542 l 102 542 l 103 553 l 92 565 l 139 784 l 127 784 l 140 795 l 143 865 l 132 876 l 133 888 l 261 899 m 134 692 l 130 611 l 141 611 l 145 692 l 134 692 m 116 576 l 112 507 l 123 507 l 127 576 l 116 576 m 98 473 l 95 404 l 106 404 l 110 473 l 98 473 m 96 12 l 93 -46 l 117 -23 l 119 12 l 96 12 m 383 1259 q 386 1249 386 1256 q 395 1239 393 1249 q 322 1162 395 1227 q 298 1135 322 1158 q 286 1114 286 1120 q 395 1215 371 1202 l 397 1215 l 395 1208 l 398 1206 q 378 1178 398 1196 l 386 1175 l 398 1183 l 399 1182 l 399 1179 q 393 1165 395 1175 q 308 1078 333 1109 q 253 992 258 1023 l 250 988 q 226 1007 226 991 l 221 1011 l 221 1014 l 222 1019 l 221 1019 q 197 1056 204 1019 q 253 1137 214 1096 q 359 1239 282 1173 l 383 1259 m 347 1143 l 347 1141 l 348 1141 l 359 1154 l 357 1154 l 347 1143 m 338 1136 l 338 1135 l 342 1137 l 342 1139 l 338 1136 m 326 1123 l 326 1122 l 331 1126 l 331 1127 l 326 1123 m 322 1120 l 320 1116 l 323 1116 l 323 1120 l 322 1120 m 270 1097 l 281 1108 l 279 1108 q 270 1097 270 1104 z "},"":{"ha":326,"x_min":29,"x_max":380,"o":"m 261 899 q 304 865 258 865 l 326 819 l 313 807 l 325 807 q 224 242 242 563 l 220 173 l 231 161 l 231 150 l 218 138 l 230 138 l 218 127 l 224 46 l 223 23 q 159 -92 161 -52 l 113 -92 l 57 -69 l 73 12 l 29 58 l 50 231 l 62 438 l 87 473 l 90 519 l 79 530 l 79 542 l 102 542 l 103 553 l 92 565 l 139 784 l 127 784 l 140 795 l 143 865 l 132 876 l 133 888 l 261 899 m 134 692 l 130 611 l 141 611 l 145 692 l 134 692 m 116 576 l 112 507 l 123 507 l 127 576 l 116 576 m 98 473 l 95 404 l 106 404 l 110 473 l 98 473 m 96 12 l 93 -46 l 117 -23 l 119 12 l 96 12 m 347 1249 q 380 1106 374 1249 l 380 1072 q 358 1027 380 1027 q 349 1023 358 1023 l 336 1023 q 330 1044 331 1023 l 328 1046 l 325 1046 q 315 1025 325 1031 l 310 1027 q 292 1012 302 1012 l 290 1012 q 273 1016 286 1016 q 262 1032 262 1019 l 262 1044 l 254 1113 l 251 1113 q 210 1062 251 1095 q 155 998 180 998 l 153 998 l 140 1002 l 140 1000 q 114 986 140 989 q 100 1009 100 998 l 100 1012 q 188 1164 106 1044 q 280 1228 243 1228 l 288 1226 q 347 1249 319 1249 z "},"":{"ha":326,"x_min":20,"x_max":463,"o":"m 261 899 q 304 865 258 865 l 326 819 l 313 807 l 325 807 q 224 242 242 563 l 220 173 l 231 161 l 231 150 l 218 138 l 230 138 l 218 127 l 224 46 l 223 23 q 159 -92 161 -52 l 113 -92 l 57 -69 l 73 12 l 29 58 l 50 231 l 62 438 l 87 473 l 90 519 l 79 530 l 79 542 l 102 542 l 103 553 l 92 565 l 139 784 l 127 784 l 140 795 l 143 865 l 132 876 l 133 888 l 261 899 m 134 692 l 130 611 l 141 611 l 145 692 l 134 692 m 116 576 l 112 507 l 123 507 l 127 576 l 116 576 m 98 473 l 95 404 l 106 404 l 110 473 l 98 473 m 96 12 l 93 -46 l 117 -23 l 119 12 l 96 12 m 401 1225 l 404 1223 l 414 1225 l 416 1225 l 438 1200 l 438 1193 q 391 1145 391 1151 l 393 1145 q 445 1178 425 1173 l 456 1156 l 449 1135 l 452 1137 l 456 1137 l 463 1131 l 463 1128 q 401 1055 460 1114 q 380 1013 385 1033 l 371 1006 l 369 1006 q 334 1028 359 1006 q 323 1050 327 1028 q 306 1065 313 1065 q 275 1120 275 1098 l 275 1122 q 391 1221 361 1211 l 401 1225 m 152 1223 q 178 1217 178 1221 l 176 1215 l 176 1213 q 195 1199 184 1213 l 195 1193 q 168 1177 189 1185 q 119 1143 125 1154 l 121 1143 q 206 1180 172 1180 l 215 1162 q 219 1147 218 1162 q 228 1128 228 1147 q 148 1063 156 1082 q 126 1021 139 1061 l 102 1015 q 65 1061 65 1038 q 59 1072 62 1061 q 22 1110 44 1072 l 20 1130 q 139 1221 72 1202 l 152 1223 z "},"":{"ha":326,"x_min":29,"x_max":326,"o":"m 261 899 q 304 865 258 865 l 326 819 l 313 807 l 325 807 q 224 242 242 563 l 220 173 l 231 161 l 231 150 l 218 138 l 230 138 l 218 127 l 224 46 l 223 23 q 159 -92 161 -52 l 113 -92 l 57 -69 l 73 12 l 29 58 l 50 231 l 62 438 l 87 473 l 90 519 l 79 530 l 79 542 l 102 542 l 103 553 l 92 565 l 139 784 l 127 784 l 140 795 l 143 865 l 132 876 l 133 888 l 261 899 m 134 692 l 130 611 l 141 611 l 145 692 l 134 692 m 116 576 l 112 507 l 123 507 l 127 576 l 116 576 m 98 473 l 95 404 l 106 404 l 110 473 l 98 473 m 96 12 l 93 -46 l 117 -23 l 119 12 l 96 12 m 130 1251 l 139 1251 q 172 1230 151 1251 q 266 1133 222 1198 l 275 1107 l 273 1105 l 271 1107 l 262 1107 l 264 1098 l 262 1086 q 271 1061 271 1069 l 269 1055 l 271 1045 l 268 1040 l 271 1025 l 271 1017 l 268 1017 l 254 1046 l 250 1046 l 250 1045 l 254 1033 l 252 1033 q 260 990 260 1002 l 260 989 q 248 980 260 986 l 243 981 l 234 980 l 229 980 q 183 1089 221 987 q 65 1207 138 1177 q 39 1223 52 1207 q 66 1244 39 1244 l 83 1248 l 96 1244 l 130 1251 z "},"":{"ha":848,"x_min":21,"x_max":828,"o":"m 517 907 q 770 826 652 907 l 759 814 l 759 803 l 805 734 l 782 734 l 770 745 l 759 745 l 793 492 l 805 492 q 828 549 805 549 l 828 503 q 713 203 828 438 l 724 203 q 482 -4 643 92 l 425 -16 l 413 -16 q 67 203 139 -16 l 21 273 l 33 284 l 21 365 l 21 388 q 205 722 21 484 l 205 711 q 67 457 121 597 l 67 446 l 79 446 q 390 872 121 614 l 309 826 l 298 826 q 517 907 298 879 m 459 711 l 448 722 l 448 711 l 459 699 l 378 630 q 194 307 283 630 q 298 146 194 215 l 309 146 q 597 411 435 146 q 655 595 655 537 l 655 688 q 540 734 655 720 l 528 734 l 517 722 l 505 722 l 505 734 l 459 711 m 793 676 l 817 676 l 817 618 l 793 618 l 793 676 m 205 549 l 171 480 l 182 480 l 217 549 l 205 549 m 655 480 l 609 365 l 644 365 l 678 446 l 667 480 l 655 480 m 736 434 l 724 399 l 724 376 l 736 376 l 747 422 l 747 434 l 736 434 m 56 388 l 56 296 l 67 296 l 67 388 l 56 388 m 597 353 l 551 296 l 563 296 l 609 353 l 597 353 m 229 100 l 229 88 l 286 54 l 286 65 l 229 100 m 725 1259 q 728 1249 728 1255 q 737 1238 735 1249 q 664 1162 737 1227 q 640 1134 664 1157 q 627 1114 627 1120 q 737 1215 713 1202 l 739 1215 l 737 1208 l 741 1205 q 721 1178 741 1195 l 728 1175 l 741 1183 l 742 1182 l 742 1179 q 736 1164 738 1175 q 650 1078 675 1108 q 595 992 600 1023 l 593 988 q 568 1006 568 991 l 564 1011 l 564 1014 l 565 1018 l 564 1018 q 539 1056 547 1018 q 595 1137 556 1096 q 701 1238 625 1172 l 725 1259 m 688 1143 l 688 1141 l 690 1141 l 701 1153 l 699 1153 l 688 1143 m 681 1136 l 681 1134 l 684 1137 l 684 1139 l 681 1136 m 669 1122 l 669 1121 l 673 1126 l 673 1127 l 669 1122 m 664 1120 l 663 1116 l 666 1116 l 666 1120 l 664 1120 m 612 1097 l 623 1108 l 621 1108 q 612 1097 612 1104 z "},"":{"ha":848,"x_min":21,"x_max":828,"o":"m 517 907 q 770 826 652 907 l 759 814 l 759 803 l 805 734 l 782 734 l 770 745 l 759 745 l 793 492 l 805 492 q 828 549 805 549 l 828 503 q 713 203 828 438 l 724 203 q 482 -4 643 92 l 425 -16 l 413 -16 q 67 203 139 -16 l 21 273 l 33 284 l 21 365 l 21 388 q 205 722 21 484 l 205 711 q 67 457 121 597 l 67 446 l 79 446 q 390 872 121 614 l 309 826 l 298 826 q 517 907 298 879 m 459 711 l 448 722 l 448 711 l 459 699 l 378 630 q 194 307 283 630 q 298 146 194 215 l 309 146 q 597 411 435 146 q 655 595 655 537 l 655 688 q 540 734 655 720 l 528 734 l 517 722 l 505 722 l 505 734 l 459 711 m 793 676 l 817 676 l 817 618 l 793 618 l 793 676 m 205 549 l 171 480 l 182 480 l 217 549 l 205 549 m 655 480 l 609 365 l 644 365 l 678 446 l 667 480 l 655 480 m 736 434 l 724 399 l 724 376 l 736 376 l 747 422 l 747 434 l 736 434 m 56 388 l 56 296 l 67 296 l 67 388 l 56 388 m 597 353 l 551 296 l 563 296 l 609 353 l 597 353 m 229 100 l 229 88 l 286 54 l 286 65 l 229 100 m 705 1249 q 747 1106 739 1249 l 747 1072 q 720 1028 747 1028 q 708 1023 720 1023 l 692 1023 q 685 1044 686 1023 l 682 1046 l 677 1046 q 666 1025 677 1031 l 659 1028 q 636 1012 649 1012 l 634 1012 q 613 1017 629 1017 q 600 1032 600 1019 l 600 1044 l 590 1113 l 585 1113 q 535 1063 585 1095 q 466 998 497 998 l 463 998 l 447 1002 l 447 1000 q 415 986 447 989 q 397 1009 397 998 l 397 1012 q 507 1164 404 1044 q 623 1228 576 1228 l 631 1226 q 705 1249 671 1249 z "},"":{"ha":848,"x_min":21,"x_max":828,"o":"m 517 907 q 770 826 652 907 l 759 814 l 759 803 l 805 734 l 782 734 l 770 745 l 759 745 l 793 492 l 805 492 q 828 549 805 549 l 828 503 q 713 203 828 438 l 724 203 q 482 -4 643 92 l 425 -16 l 413 -16 q 67 203 139 -16 l 21 273 l 33 284 l 21 365 l 21 388 q 205 722 21 484 l 205 711 q 67 457 121 597 l 67 446 l 79 446 q 390 872 121 614 l 309 826 l 298 826 q 517 907 298 879 m 459 711 l 448 722 l 448 711 l 459 699 l 378 630 q 194 307 283 630 q 298 146 194 215 l 309 146 q 597 411 435 146 q 655 595 655 537 l 655 688 q 540 734 655 720 l 528 734 l 517 722 l 505 722 l 505 734 l 459 711 m 793 676 l 817 676 l 817 618 l 793 618 l 793 676 m 205 549 l 171 480 l 182 480 l 217 549 l 205 549 m 655 480 l 609 365 l 644 365 l 678 446 l 667 480 l 655 480 m 736 434 l 724 399 l 724 376 l 736 376 l 747 422 l 747 434 l 736 434 m 56 388 l 56 296 l 67 296 l 67 388 l 56 388 m 597 353 l 551 296 l 563 296 l 609 353 l 597 353 m 229 100 l 229 88 l 286 54 l 286 65 l 229 100 m 496 1251 l 505 1251 q 538 1230 516 1251 q 631 1133 589 1199 l 640 1107 l 639 1105 l 637 1107 l 628 1107 l 630 1098 l 628 1086 q 637 1061 637 1069 l 635 1056 l 637 1045 l 633 1040 l 637 1026 l 637 1017 l 633 1017 l 619 1047 l 616 1047 l 616 1045 l 619 1033 l 618 1033 q 627 991 627 1002 l 627 989 q 614 980 627 986 l 609 982 l 600 980 l 595 980 q 549 1089 587 987 q 431 1207 505 1177 q 404 1223 417 1207 q 433 1244 404 1244 l 448 1248 l 463 1244 l 496 1251 z "},"":{"ha":709,"x_min":11,"x_max":703,"o":"m 195 902 l 218 867 l 207 810 l 218 798 l 230 798 l 241 856 l 264 856 l 276 821 q 184 302 184 489 q 230 176 195 176 l 495 475 l 507 533 l 507 856 l 530 879 q 553 833 553 879 l 564 833 q 622 879 564 879 l 645 833 l 633 775 q 656 833 656 775 l 680 833 l 691 821 l 703 821 l 645 -9 l 633 -55 q 587 -101 587 -55 l 541 -101 l 553 14 l 530 14 l 530 -55 l 495 -90 l 495 -78 l 507 37 q 472 83 472 37 l 460 83 l 264 -9 l 172 14 l 172 3 q 11 349 53 3 q 103 867 57 867 l 103 879 l 115 879 l 115 833 l 92 833 l 92 810 l 103 798 l 103 787 l 92 787 l 103 752 l 68 694 l 80 694 l 92 706 l 57 498 l 57 452 l 68 452 q 195 902 105 902 m 57 441 l 45 429 l 45 337 l 57 337 l 68 441 l 57 441 m 414 349 l 334 256 l 345 256 l 426 349 l 414 349 m 80 164 l 80 141 l 92 106 l 103 106 l 103 130 l 92 164 l 80 164 m 161 106 l 161 95 q 264 26 161 55 l 288 26 l 288 37 q 161 106 221 38 m 562 1259 q 565 1249 565 1255 q 574 1238 572 1249 q 500 1162 574 1227 q 476 1134 500 1157 q 464 1114 464 1120 q 574 1215 549 1202 l 575 1215 l 574 1208 l 577 1205 q 557 1178 577 1195 l 565 1175 l 577 1183 l 578 1182 l 578 1179 q 572 1164 574 1175 q 487 1078 512 1108 q 432 992 436 1023 l 429 988 q 404 1006 404 991 l 400 1011 l 400 1014 l 401 1018 l 400 1018 q 376 1056 383 1018 q 432 1137 393 1096 q 537 1238 461 1172 l 562 1259 m 525 1143 l 525 1141 l 526 1141 l 537 1153 l 536 1153 l 525 1143 m 517 1136 l 517 1134 l 520 1137 l 520 1139 l 517 1136 m 505 1122 l 505 1121 l 510 1126 l 510 1127 l 505 1122 m 500 1120 l 499 1116 l 502 1116 l 502 1120 l 500 1120 m 449 1097 l 459 1108 l 458 1108 q 449 1097 449 1104 z "},"":{"ha":709,"x_min":11,"x_max":703,"o":"m 195 902 l 218 867 l 207 810 l 218 798 l 230 798 l 241 856 l 264 856 l 276 821 q 184 302 184 489 q 230 176 195 176 l 495 475 l 507 533 l 507 856 l 530 879 q 553 833 553 879 l 564 833 q 622 879 564 879 l 645 833 l 633 775 q 656 833 656 775 l 680 833 l 691 821 l 703 821 l 645 -9 l 633 -55 q 587 -101 587 -55 l 541 -101 l 553 14 l 530 14 l 530 -55 l 495 -90 l 495 -78 l 507 37 q 472 83 472 37 l 460 83 l 264 -9 l 172 14 l 172 3 q 11 349 53 3 q 103 867 57 867 l 103 879 l 115 879 l 115 833 l 92 833 l 92 810 l 103 798 l 103 787 l 92 787 l 103 752 l 68 694 l 80 694 l 92 706 l 57 498 l 57 452 l 68 452 q 195 902 105 902 m 57 441 l 45 429 l 45 337 l 57 337 l 68 441 l 57 441 m 414 349 l 334 256 l 345 256 l 426 349 l 414 349 m 80 164 l 80 141 l 92 106 l 103 106 l 103 130 l 92 164 l 80 164 m 161 106 l 161 95 q 264 26 161 55 l 288 26 l 288 37 q 161 106 221 38 m 570 1249 q 612 1106 604 1249 l 612 1072 q 584 1028 612 1028 q 572 1023 584 1023 l 556 1023 q 549 1044 551 1023 l 547 1046 l 543 1046 q 531 1025 543 1031 l 524 1028 q 501 1012 514 1012 l 498 1012 q 478 1017 494 1017 q 464 1033 464 1019 l 464 1044 l 455 1114 l 450 1114 q 399 1063 450 1096 q 330 998 362 998 l 328 998 l 312 1002 l 312 1000 q 279 987 312 989 q 261 1010 261 998 l 261 1012 q 372 1164 269 1044 q 487 1229 441 1229 l 496 1226 q 570 1249 536 1249 z "},"":{"ha":709,"x_min":11,"x_max":703,"o":"m 195 902 l 218 867 l 207 810 l 218 798 l 230 798 l 241 856 l 264 856 l 276 821 q 184 302 184 489 q 230 176 195 176 l 495 475 l 507 533 l 507 856 l 530 879 q 553 833 553 879 l 564 833 q 622 879 564 879 l 645 833 l 633 775 q 656 833 656 775 l 680 833 l 691 821 l 703 821 l 645 -9 l 633 -55 q 587 -101 587 -55 l 541 -101 l 553 14 l 530 14 l 530 -55 l 495 -90 l 495 -78 l 507 37 q 472 83 472 37 l 460 83 l 264 -9 l 172 14 l 172 3 q 11 349 53 3 q 103 867 57 867 l 103 879 l 115 879 l 115 833 l 92 833 l 92 810 l 103 798 l 103 787 l 92 787 l 103 752 l 68 694 l 80 694 l 92 706 l 57 498 l 57 452 l 68 452 q 195 902 105 902 m 57 441 l 45 429 l 45 337 l 57 337 l 68 441 l 57 441 m 414 349 l 334 256 l 345 256 l 426 349 l 414 349 m 80 164 l 80 141 l 92 106 l 103 106 l 103 130 l 92 164 l 80 164 m 161 106 l 161 95 q 264 26 161 55 l 288 26 l 288 37 q 161 106 221 38 m 343 1251 l 352 1251 q 385 1230 363 1251 q 479 1133 436 1198 l 488 1107 l 486 1105 l 484 1107 l 475 1107 l 477 1098 l 475 1086 q 484 1061 484 1069 l 482 1055 l 484 1045 l 481 1040 l 484 1025 l 484 1017 l 481 1017 l 467 1046 l 463 1046 l 463 1045 l 467 1033 l 465 1033 q 473 990 473 1002 l 473 989 q 461 980 473 986 l 456 981 l 447 980 l 442 980 q 396 1089 435 987 q 278 1207 351 1177 q 252 1223 264 1207 q 279 1244 252 1244 l 296 1248 l 310 1244 l 343 1251 z "},"":{"ha":326,"x_min":29,"x_max":326,"o":"m 261 899 q 304 865 258 865 l 326 819 l 313 807 l 325 807 q 224 242 242 563 l 220 173 l 231 161 l 231 150 l 218 138 l 230 138 l 218 127 l 224 46 l 223 23 q 159 -92 161 -52 l 113 -92 l 57 -69 l 73 12 l 29 58 l 50 231 l 62 438 l 87 473 l 90 519 l 79 530 l 79 542 l 102 542 l 103 553 l 92 565 l 139 784 l 127 784 l 140 795 l 143 865 l 132 876 l 133 888 l 261 899 m 134 692 l 130 611 l 141 611 l 145 692 l 134 692 m 116 576 l 112 507 l 123 507 l 127 576 l 116 576 m 98 473 l 95 404 l 106 404 l 110 473 l 98 473 m 96 12 l 93 -46 l 117 -23 l 119 12 l 96 12 z "},"":{"ha":538,"x_min":98,"x_max":449,"o":"m 408 1249 q 449 1106 441 1249 l 449 1072 q 421 1027 449 1027 q 410 1023 421 1023 l 393 1023 q 387 1044 388 1023 l 385 1046 l 380 1046 q 368 1025 380 1031 l 361 1027 q 338 1012 351 1012 l 336 1012 q 315 1016 331 1016 q 301 1032 301 1019 l 301 1044 l 292 1113 l 288 1113 q 237 1062 288 1095 q 168 998 199 998 l 165 998 l 149 1002 l 149 1000 q 117 986 149 989 q 98 1009 98 998 l 98 1012 q 209 1164 106 1044 q 324 1228 278 1228 l 334 1226 q 408 1249 374 1249 z "},"":{"ha":570,"x_min":115,"x_max":522,"o":"m 499 1255 l 509 1240 l 507 1238 l 509 1236 l 511 1236 l 513 1238 l 515 1236 l 515 1235 q 503 1201 515 1221 q 489 1174 503 1194 l 490 1174 l 516 1203 l 518 1203 l 518 1201 l 516 1193 q 522 1183 519 1193 q 482 1122 505 1152 l 475 1110 l 477 1108 l 480 1108 q 492 1125 480 1116 l 494 1125 l 494 1124 q 470 1090 470 1095 l 478 1097 l 480 1097 l 480 1095 q 410 1009 450 1051 l 412 1007 l 412 1006 q 370 975 412 990 l 362 974 q 285 1041 330 974 l 262 1066 q 225 1002 238 1036 l 218 999 l 215 999 l 210 1002 l 208 1002 q 187 967 205 1002 l 186 965 l 184 965 q 148 999 162 965 q 115 1038 130 999 q 138 1076 115 1044 l 175 1128 q 229 1191 199 1165 l 232 1191 q 269 1144 243 1191 q 309 1073 294 1118 l 311 1072 l 314 1072 q 422 1166 349 1072 q 470 1223 439 1183 l 499 1255 z "},"":{"ha":463,"x_min":7,"x_max":427,"o":"m 156 1173 l 319 1170 l 372 1177 l 383 1203 l 427 1183 l 400 1072 l 387 1071 q 100 1056 205 1088 l 77 1067 q 47 1059 62 1064 l 7 1060 l 7 1062 q 31 1086 7 1075 l 28 1111 l 24 1140 l 39 1158 l 81 1164 q 165 1185 108 1167 l 156 1173 z "},"":{"ha":538,"x_min":151,"x_max":406,"o":"m 368 1244 q 387 1214 378 1229 q 404 1187 401 1200 l 403 1187 l 404 1186 l 404 1180 l 406 1175 l 389 1120 q 355 1063 384 1099 q 322 1036 332 1038 l 318 1036 l 307 1040 l 276 1024 q 269 1023 273 1023 q 209 1055 244 1023 q 158 1115 161 1098 l 154 1130 l 151 1143 q 151 1154 151 1148 q 168 1219 151 1178 q 202 1244 184 1240 q 210 1244 206 1244 q 242 1234 225 1244 q 248 1177 281 1236 q 223 1100 221 1140 l 228 1098 l 277 1120 l 282 1120 l 292 1121 q 327 1173 321 1151 q 343 1222 335 1191 l 342 1226 l 368 1244 z "},"":{"ha":471,"x_min":127,"x_max":336,"o":"m 260 1226 q 286 1220 286 1225 l 283 1217 l 283 1215 q 303 1202 292 1215 l 303 1196 q 275 1181 297 1189 q 227 1146 233 1157 l 229 1146 q 314 1183 279 1183 l 323 1166 q 327 1150 326 1166 q 336 1131 336 1150 q 256 1065 264 1086 q 234 1025 247 1064 l 210 1018 q 173 1063 173 1041 q 167 1074 170 1063 q 130 1114 152 1074 l 127 1133 q 247 1224 180 1204 l 260 1226 z "},"":{"ha":538,"x_min":106,"x_max":363,"o":"m 287 1237 q 320 1217 313 1237 l 323 1206 q 319 1198 323 1200 l 302 1200 l 284 1193 l 284 1192 l 287 1189 l 300 1193 q 305 1190 305 1192 l 309 1192 q 333 1178 333 1192 l 336 1175 q 332 1172 336 1172 l 330 1171 l 330 1168 q 351 1120 342 1143 q 363 1090 363 1103 l 361 1090 l 363 1089 l 363 1088 l 361 1083 l 363 1078 l 336 1027 q 292 977 327 1006 q 254 957 265 957 l 250 957 l 240 963 l 207 954 q 146 996 180 954 q 108 1064 108 1047 l 106 1080 l 106 1093 q 137 1165 106 1120 q 221 1224 191 1215 l 247 1236 l 260 1232 l 287 1237 m 169 1038 l 173 1035 l 225 1047 l 231 1047 l 240 1046 q 284 1090 275 1069 q 309 1135 296 1106 l 309 1142 q 302 1156 305 1156 q 207 1109 217 1124 q 169 1038 174 1078 z "},"":{"ha":550,"x_min":134,"x_max":378,"o":"m 221 -24 l 225 -24 q 238 -43 229 -26 l 240 -43 q 250 -28 245 -43 l 259 -26 l 261 -28 l 261 -41 l 250 -65 l 250 -71 l 269 -75 l 304 -71 q 378 -122 378 -71 q 321 -212 378 -186 l 275 -245 q 233 -255 268 -252 l 224 -252 l 205 -257 l 184 -255 l 169 -255 l 155 -259 q 144 -254 144 -257 l 144 -244 q 205 -206 147 -238 q 253 -127 253 -184 l 253 -122 l 250 -118 l 219 -123 q 191 -114 191 -122 q 164 -120 178 -120 l 157 -120 q 134 -106 143 -120 q 150 -64 134 -94 q 178 -34 166 -34 l 181 -30 l 187 -30 l 193 -34 q 172 -85 193 -49 l 170 -92 l 172 -94 l 174 -94 q 214 -36 193 -94 l 221 -24 m 309 -101 l 309 -103 q 316 -122 309 -111 l 316 -132 l 319 -132 l 319 -111 q 309 -101 315 -101 m 309 -149 l 310 -154 l 304 -156 l 304 -161 l 307 -160 l 309 -160 l 314 -161 l 314 -160 q 318 -152 314 -152 l 319 -154 l 319 -139 l 316 -135 l 314 -135 q 309 -149 309 -135 m 304 -182 l 310 -177 l 310 -173 q 304 -182 306 -173 z "},"":{"ha":471,"x_min":77,"x_max":453,"o":"m 93 988 q 90 998 90 991 q 81 1008 83 998 q 154 1086 81 1020 q 178 1113 154 1090 q 191 1133 191 1127 q 81 1032 106 1045 l 79 1032 l 81 1039 l 78 1042 q 98 1069 78 1053 l 90 1072 l 78 1064 l 77 1065 l 77 1068 q 83 1082 81 1072 q 168 1170 143 1139 q 223 1255 218 1224 l 226 1259 q 250 1240 250 1256 l 255 1236 l 255 1234 l 254 1229 l 255 1229 q 279 1192 272 1229 q 223 1110 262 1152 q 117 1008 194 1075 l 93 988 m 130 1104 l 130 1106 l 128 1106 l 117 1094 l 119 1094 l 130 1104 m 138 1112 l 138 1113 l 134 1110 l 134 1109 l 138 1112 m 150 1124 l 150 1126 l 145 1122 l 145 1120 l 150 1124 m 154 1128 l 156 1132 l 153 1132 l 153 1128 l 154 1128 m 206 1151 l 195 1139 l 197 1139 q 206 1151 206 1143 m 267 988 q 264 998 264 991 q 254 1008 256 998 q 328 1086 254 1020 q 352 1113 328 1090 q 364 1133 364 1127 q 254 1032 279 1045 l 253 1032 l 254 1039 l 252 1042 q 271 1069 252 1053 l 264 1072 l 252 1064 l 250 1065 l 250 1068 q 256 1082 254 1072 q 342 1170 317 1139 q 397 1255 392 1224 l 399 1259 q 424 1240 424 1256 l 429 1236 l 429 1234 l 427 1229 l 429 1229 q 453 1192 446 1229 q 397 1110 436 1152 q 291 1008 368 1075 l 267 988 m 303 1104 l 303 1106 l 302 1106 l 291 1094 l 293 1094 l 303 1104 m 311 1112 l 311 1113 l 308 1110 l 308 1109 l 311 1112 m 323 1124 l 323 1126 l 319 1122 l 319 1120 l 323 1124 m 328 1128 l 330 1132 l 326 1132 l 326 1128 l 328 1128 m 380 1151 l 369 1139 l 370 1139 q 380 1151 380 1143 z "},"":{"ha":541,"x_min":132,"x_max":377,"o":"m 360 -129 q 365 -141 363 -135 q 377 -170 377 -157 l 376 -170 l 377 -172 l 377 -173 l 376 -178 l 377 -182 l 361 -203 q 317 -252 353 -223 q 280 -273 291 -273 l 276 -273 l 266 -267 l 233 -276 q 172 -234 205 -276 q 134 -165 134 -182 l 132 -150 l 132 -136 q 199 -22 142 -77 l 224 -12 l 237 -15 l 264 -10 q 298 -30 290 -10 l 300 -41 q 296 -48 300 -47 l 280 -47 l 262 -54 l 262 -55 l 264 -58 l 277 -54 q 283 -56 283 -54 l 287 -55 q 311 -68 311 -55 l 313 -72 q 309 -75 313 -75 l 308 -75 l 308 -78 q 309 -79 309 -79 l 283 -94 q 280 -90 281 -90 q 233 -121 243 -106 q 195 -192 200 -152 l 199 -195 l 237 -208 l 242 -208 l 252 -210 q 304 -165 295 -186 q 334 -153 315 -150 l 360 -129 z "},"":{"ha":574,"x_min":140,"x_max":458,"o":"m 456 1254 l 458 1247 l 435 1217 l 435 1215 l 437 1217 l 442 1217 l 446 1213 l 435 1199 l 435 1194 l 439 1187 q 406 1112 439 1178 q 315 1023 359 1037 l 244 983 q 214 970 234 970 l 210 970 q 191 1020 191 980 l 163 1089 q 140 1154 149 1089 q 145 1173 145 1158 l 168 1202 l 182 1207 q 196 1193 189 1207 l 198 1196 l 200 1196 q 223 1120 208 1196 l 228 1120 l 231 1122 l 233 1122 q 208 1221 219 1189 q 244 1246 208 1232 q 258 1253 246 1253 l 260 1253 q 290 1161 271 1253 l 304 1117 l 311 1117 l 385 1204 q 456 1254 421 1254 z "},"":{"ha":772,"x_min":0,"x_max":0,"o":""}}}
